<?xml version="1.0" encoding="utf-8"?>
<!-- Generator: Adobe Illustrator 24.3.0, SVG Export Plug-In . SVG Version: 6.00 Build 0)  -->
<svg version="1.1" id="Layer_1" xmlns="http://www.w3.org/2000/svg" xmlns:xlink="http://www.w3.org/1999/xlink" x="0px" y="0px"
	 viewBox="0 0 223.04 223.04" enable-background="new 0 0 223.04 223.04" xml:space="preserve">
<g id="Layer_2_1_">
	<g id="Layer_1-2">
		<circle fill="#FFFFFF" cx="111.52" cy="111.52" r="111.52"/>
		<path fill="#878C90" d="M118.71,148.86c-0.06-6.78,1.69-13.45,5.07-19.33c3.3-5.82,8.14-10.6,14-13.83
			c5.74-3.33,12.27-5.06,18.9-5c11.69,0,20.74,3.89,27.15,11.68c0.6,0.92,0.95,1.99,1,3.09c-0.02,0.66-0.2,1.31-0.51,1.89
			c-0.31,0.63-0.72,1.21-1.21,1.72l-1.54,1.55c-0.83,1.04-2.11,1.62-3.44,1.54c-1.54,0.03-3.01-0.67-3.95-1.89
			c-2.19-2.34-4.86-4.18-7.82-5.41c-3.12-1.06-6.41-1.55-9.71-1.46c-4.37-0.06-8.67,1.07-12.45,3.27c-3.74,2.2-6.84,5.33-9,9.1
			c-2.32,3.89-3.51,8.36-3.44,12.89c-0.05,4.56,1.07,9.07,3.24,13.08c2.07,3.91,5.23,7.13,9.1,9.27c3.72,2.28,8.01,3.47,12.37,3.44
			c7.56,0,13.17-2.12,16.84-6.36c0.72-1.09,1.59-2.07,2.58-2.92c0.5-0.49,1.08-0.9,1.72-1.2c0.58-0.32,1.23-0.49,1.89-0.52
			c1.29-0.06,2.52,0.52,3.3,1.54l1.72,1.72c1.58,1.52,1.98,3.88,1,5.84l-0.17,0.17c-2.99,4.46-7.11,8.05-11.94,10.4
			c-5.19,2.6-10.93,3.93-16.73,3.87c-6.61,0.01-13.1-1.74-18.81-5.06c-5.77-3.26-10.6-7.97-14-13.66
			C120.39,162.41,118.61,155.69,118.71,148.86"/>
		<path fill="#134980" d="M92.43,116.15c-0.01-1.46,0.6-2.86,1.69-3.84c0.99-1,2.33-1.58,3.74-1.59h3.37
			c1.46-0.02,2.86,0.6,3.84,1.68c1.01,0.99,1.58,2.34,1.6,3.75v65.42c0.3,2.69-1.63,5.13-4.33,5.43c-0.37,0.04-0.74,0.04-1.11,0
			h-3.74c-1.36,0.01-2.66-0.57-3.56-1.59c-0.99-1.03-1.53-2.41-1.5-3.84V116.15z"/>
		<path fill="#2C71AE" d="M99.56,40.05c-32.73,0.01-60.03,25.01-62.92,57.61c9.33-11.78,26.44-13.76,38.21-4.43
			c1.38,1.09,2.65,2.31,3.79,3.65c-0.43-2.18-8.33-44.44,20.89-56.83"/>
		<path fill="#2C71AE" d="M99.56,40.05L99.56,40.05c30,12.72,20.84,57.05,20.84,57.05c9.55-11.5,26.62-13.07,38.12-3.52
			c1.45,1.21,2.78,2.57,3.95,4.05C159.57,65.04,132.28,40.06,99.56,40.05"/>
		<path fill="#134980" d="M99.56,40.05C70.34,52.44,78.24,94.7,78.67,96.88c0.04,0.04,0.08,0.08,0.13,0.12
			c9.64-11.46,26.75-12.94,38.21-3.31c1.23,1.03,2.36,2.17,3.39,3.41c0,0,9.15-44.33-20.84-57"/>
		<path fill-rule="evenodd" clip-rule="evenodd" fill="#2C71AE" d="M99.55,36c2.13,0,4.12,1.08,5.28,2.87
			c-3.5-0.48-7.06-0.48-10.56,0C95.43,37.08,97.42,36,99.55,36"/>
	</g>
</g>
</svg>
