<?xml version="1.0" standalone="no"?>
<!DOCTYPE svg PUBLIC "-//W3C//DTD SVG 20010904//EN"
 "http://www.w3.org/TR/2001/REC-SVG-20010904/DTD/svg10.dtd">
<svg version="1.0" xmlns="http://www.w3.org/2000/svg"
 width="512.000000pt" height="512.000000pt" viewBox="0 0 512.000000 512.000000"
 preserveAspectRatio="xMidYMid meet">

<g transform="translate(0.000000,512.000000) scale(0.100000,-0.100000)"
fill="#000000" stroke="none">
<path d="M2885 4261 c-108 -50 -156 -180 -104 -284 14 -28 215 -237 602 -624
l582 -583 -1700 -2 -1700 -3 -38 -27 c-22 -14 -51 -43 -65 -65 -23 -33 -27
-48 -27 -113 0 -65 4 -80 27 -113 14 -22 43 -51 65 -65 l38 -27 1700 -3 1700
-2 -582 -583 c-445 -444 -587 -593 -602 -627 -83 -183 105 -365 285 -275 38
19 226 202 820 797 494 495 777 786 787 810 22 46 22 130 0 176 -10 24 -293
315 -787 810 -594 595 -782 778 -820 797 -60 30 -125 32 -181 6z"/>
</g>
</svg>
