<?xml version="1.0" encoding="utf-8"?>
<!-- Generator: Adobe Illustrator 24.3.0, SVG Export Plug-In . SVG Version: 6.00 Build 0)  -->
<svg version="1.1" id="Layer_1" xmlns="http://www.w3.org/2000/svg" xmlns:xlink="http://www.w3.org/1999/xlink" x="0px" y="0px"
	 viewBox="0 0 84.52 84.52" enable-background="new 0 0 84.52 84.52" xml:space="preserve">
<g id="Layer_2_1_">
	<g id="Layer_1-2">
		<circle fill="#0E4981" cx="42.26" cy="42.26" r="42.26"/>
		<path fill="#FFFFFF" d="M65,38.34h-3.69c-0.44-0.01-0.79,0.34-0.8,0.78c0,0,0,0.01,0,0.01v0.8h-0.23
			c-0.35,0.01-0.66,0.24-0.77,0.57l-0.36,1.22l-2.91-7.61c-0.61-1.57-2.12-2.61-3.8-2.62h-3.1c0.3-0.74,0.55-1.5,0.74-2.27
			c0.49-1.96,0.71-3.98,0.66-6c-0.01-0.34-0.23-0.64-0.55-0.75c-3.62-1.14-6.32-2.23-7.62-2.78c-0.2-0.08-0.42-0.08-0.62,0
			c-1.3,0.55-4,1.64-7.62,2.78c-0.32,0.1-0.54,0.4-0.55,0.74c-0.05,2.02,0.17,4.04,0.66,6c0.19,0.77,0.44,1.53,0.74,2.27h-3.1
			c-1.68,0.01-3.19,1.05-3.8,2.62l-2.91,7.61L25,40.51c-0.1-0.34-0.41-0.58-0.77-0.58H24v-0.8c0-0.44-0.35-0.79-0.79-0.79h0h-3.7
			c-0.44-0.01-0.79,0.34-0.8,0.78c0,0,0,0.01,0,0.01V42c0,0.44,0.36,0.8,0.8,0.8h3.7c0.29,0,0.55-0.16,0.69-0.41l0.5,1.69
			l-2.88,5.29l0,0c-0.06,0.11-0.09,0.23-0.09,0.36v7.3c0,1.25,0.97,2.29,2.22,2.36v2.62c0,1.57,1.27,2.84,2.84,2.84l0,0h3.14
			c1.57,0,2.84-1.27,2.84-2.84v-2.55h19.58v2.61c0,1.57,1.27,2.84,2.84,2.84H58c1.57,0,2.84-1.27,2.84-2.84l0,0v-2.62
			c1.25-0.07,2.22-1.11,2.22-2.36v-7.3c0-0.13-0.03-0.26-0.09-0.37l0,0l-2.89-5.28l0.5-1.69c0.14,0.25,0.41,0.41,0.7,0.41H65
			c0.44,0,0.8-0.36,0.8-0.8c0,0,0,0,0,0l0,0v-2.93c0-0.44-0.35-0.79-0.79-0.79C65.01,38.34,65,38.34,65,38.34z M22.42,41.24h-2.1
			v-1.31h2.1V41.24z M58.22,52.43c0.01,1.02-0.82,1.85-1.84,1.86c-1.02,0.01-1.85-0.82-1.86-1.84c-0.01-1.02,0.82-1.85,1.84-1.86
			c0,0,0.01,0,0.01,0C57.39,50.59,58.21,51.41,58.22,52.43z M23.57,49l2.17-4h33L61,49H23.57z M48.5,50.6L48,52H36.49L36,50.59
			L48.5,50.6z M30,52.43c0.01,1.02-0.82,1.85-1.84,1.86s-1.85-0.82-1.86-1.84c-0.01-1.02,0.82-1.85,1.84-1.86c0.01,0,0.01,0,0.02,0
			C29.18,50.59,30,51.41,30,52.43L30,52.43z M54.11,40.67h-23.7l1.86-4.84H38c1.14,1.12,2.5,1.98,4,2.54c0.19,0.07,0.39,0.07,0.58,0
			c1.5-0.56,2.86-1.42,4-2.54h5.73L54.11,40.67z M42.26,21.27c1.34,0.56,3.75,1.51,6.89,2.53c-0.01,1.69-0.22,3.36-0.62,5
			c-1,4-3.11,6.63-6.27,8c-3.16-1.32-5.27-4-6.28-8c-0.4-1.64-0.6-3.32-0.61-5C38.51,22.78,40.92,21.83,42.26,21.27z M29.78,34.68
			c0.36-0.95,1.28-1.59,2.3-1.59h3.85c0.22,0.39,0.46,0.77,0.72,1.14h-4.57c-0.55,0-1.05,0.34-1.24,0.86l-2.34,6.1
			c-0.13,0.4,0.07,0.84,0.46,1c0.09,0.03,0.19,0.05,0.29,0.05h26c0.44,0,0.8-0.36,0.8-0.8c0.02-0.09,0.02-0.19,0-0.28l-2.34-6.11
			c-0.2-0.51-0.69-0.85-1.24-0.85h-4.6c0.26-0.37,0.5-0.75,0.72-1.14h3.85c1.02,0,1.94,0.63,2.3,1.59l3.35,8.73H26.43L29.78,34.68z
			 M30.87,62.07c0.01,0.68-0.55,1.24-1.23,1.25c0,0-0.01,0-0.01,0h-3.14c-0.69,0-1.25-0.56-1.25-1.25v-2.61h5.63L30.87,62.07z
			 M58,63.32h-3.11c-0.68,0-1.24-0.56-1.24-1.24c0,0,0-0.01,0-0.01v-2.61h5.62v2.61c0.01,0.68-0.54,1.24-1.23,1.25
			C58.03,63.32,58.01,63.32,58,63.32z M61.47,57.09c-0.01,0.43-0.35,0.77-0.78,0.77H23.8c-0.43,0-0.77-0.34-0.78-0.77v-6.5h2.22
			c-1.03,1.6-0.56,3.74,1.04,4.77c1.6,1.03,3.74,0.56,4.77-1.04c0.73-1.13,0.73-2.59,0-3.72h3.29L35.17,53
			c0.1,0.32,0.41,0.54,0.75,0.54H48.6c0.34,0,0.65-0.22,0.76-0.54l0.83-2.41h3.28c-1.03,1.6-0.56,3.74,1.04,4.77
			s3.74,0.56,4.77-1.04c0.73-1.13,0.73-2.59,0-3.72h2.22L61.47,57.09z M64.17,41.24H62.1v-1.31h2.1L64.17,41.24z"/>
		<path fill="#FFFFFF" d="M40.73,30.93c0.15,0.15,0.36,0.24,0.57,0.24l0,0c0.21,0,0.42-0.09,0.57-0.24L45.69,27
			c0.31-0.31,0.31-0.82,0-1.13c-0.3-0.31-0.81-0.32-1.12-0.01c0,0-0.01,0.01-0.01,0.01l0,0l-3.26,3.36L40,27.87
			c-0.29-0.33-0.79-0.35-1.12-0.06c-0.33,0.29-0.35,0.79-0.06,1.12l0,0v0.05L40.73,30.93z"/>
	</g>
</g>
</svg>
