<?xml version="1.0" encoding="utf-8"?>
<!-- Generator: Adobe Illustrator 24.3.0, SVG Export Plug-In . SVG Version: 6.00 Build 0)  -->
<svg version="1.1" id="Layer_1" xmlns="http://www.w3.org/2000/svg" xmlns:xlink="http://www.w3.org/1999/xlink" x="0px" y="0px"
	 viewBox="0 0 56.7 56.66" enable-background="new 0 0 56.7 56.66" xml:space="preserve">
<g id="Layer_2_1_">
	<g id="Layer_1-2">
		<path fill="none" stroke="#000000" stroke-width="2" stroke-miterlimit="10" d="M38.63,37.49c1.52,0.01,2.75-1.22,2.76-2.74
			c0-0.01,0-0.01,0-0.02V4.26c0.01-1.52-1.23-2.76-2.75-2.77c0,0-0.01,0-0.01,0H18.16c-1.53,0-2.77,1.24-2.77,2.77l0,0v30.47
			c0,1.52,1.24,2.76,2.76,2.76c0,0,0.01,0,0.01,0h4.2"/>
		<line fill="none" stroke="#000000" stroke-width="2" stroke-miterlimit="10" x1="38.63" y1="37.49" x2="34.5" y2="37.49"/>
		<polyline fill="none" stroke="#000000" stroke-width="2" stroke-miterlimit="10" points="27.17,30.05 27.17,22.5 18.75,22.5 
			18.75,33.49 20.95,33.49 		"/>
		<line fill="none" stroke="#000000" stroke-width="2" stroke-miterlimit="10" x1="36.85" y1="4.19" x2="36.85" y2="11.24"/>
		<line fill="none" stroke="#000000" stroke-width="2" stroke-miterlimit="10" x1="36.85" y1="15.44" x2="36.85" y2="22.49"/>
		<line fill="none" stroke="#000000" stroke-width="2" stroke-miterlimit="10" x1="36.85" y1="26.44" x2="36.85" y2="33.49"/>
		<path fill="none" d="M25.85,9.76c0.21-0.42,0.32-0.89,0.32-1.36c0-1.77-1.44-3.21-3.21-3.21c-1.77,0-3.21,1.44-3.21,3.21l0,0
			c0,0.47,0.11,0.93,0.31,1.36c0.87-0.59,1.89-0.9,2.94-0.89C24.02,8.88,25.01,9.19,25.85,9.76z"/>
		<path fill="none" d="M20.06,12.73c-0.76,1.6-0.08,3.52,1.52,4.28s3.52,0.08,4.28-1.52c0.21-0.44,0.31-0.92,0.31-1.4
			c0-0.47-0.11-0.93-0.32-1.35c-0.85,0.57-1.86,0.88-2.89,0.88C21.93,13.61,20.92,13.3,20.06,12.73z"/>
		<ellipse fill="none" cx="22.96" cy="11.24" rx="1.46" ry="0.37"/>
		<path d="M25.85,12.73c0.21,0.42,0.32,0.88,0.32,1.35c0.01,1.77-1.41,3.22-3.18,3.24s-3.22-1.41-3.24-3.18
			c0-0.48,0.1-0.96,0.31-1.4c-0.58-0.4-1.07-0.9-1.45-1.49c-0.56,0.84-0.86,1.83-0.86,2.84c0,2.88,2.33,5.21,5.21,5.21
			s5.21-2.33,5.21-5.21c0-1.01-0.3-2-0.86-2.84C26.93,11.83,26.43,12.34,25.85,12.73z"/>
		<path d="M24.42,11.24c0.63-0.32,1.13-0.84,1.43-1.48C25.01,9.19,24.02,8.88,23,8.87c-1.03,0-2.04,0.31-2.9,0.89
			c0.31,0.64,0.81,1.16,1.44,1.48c0.91-0.49,2.01-0.49,2.92,0H24.42z"/>
		<path d="M20.06,9.76c-0.2-0.43-0.31-0.89-0.31-1.36c0-1.77,1.44-3.21,3.21-3.21c1.77,0,3.21,1.44,3.21,3.21
			c0,0.47-0.11,0.94-0.32,1.36c0.58,0.39,1.08,0.89,1.46,1.48c0.56-0.84,0.86-1.83,0.86-2.84c0-2.88-2.33-5.21-5.21-5.21
			s-5.21,2.33-5.21,5.21c0,1.01,0.3,2,0.86,2.84C18.99,10.66,19.48,10.15,20.06,9.76z"/>
		<path d="M25.85,9.76c-0.3,0.64-0.8,1.16-1.43,1.48c0.63,0.32,1.13,0.85,1.43,1.49c0.58-0.39,1.08-0.9,1.46-1.49
			C26.93,10.65,26.43,10.15,25.85,9.76z"/>
		<path d="M20.06,12.73c0.3-0.64,0.81-1.16,1.44-1.49c-0.63-0.32-1.13-0.84-1.44-1.48c-0.58,0.39-1.07,0.9-1.45,1.48
			C18.99,11.83,19.48,12.33,20.06,12.73z"/>
		<line fill="none" stroke="#000000" stroke-width="2" stroke-miterlimit="10" x1="51.13" y1="8.87" x2="56.7" y2="8.87"/>
		<line fill="none" stroke="#000000" stroke-width="2" stroke-miterlimit="10" x1="53.92" y1="6.09" x2="53.92" y2="11.66"/>
		<line fill="none" stroke="#000000" stroke-width="2" stroke-miterlimit="10" x1="45.04" y1="2.78" x2="50.61" y2="2.78"/>
		<line fill="none" stroke="#000000" stroke-width="2" stroke-miterlimit="10" x1="47.82" y1="0" x2="47.82" y2="5.57"/>
		<line fill="none" stroke="#000000" stroke-width="2" stroke-miterlimit="10" x1="5.79" y1="2.78" x2="11.35" y2="2.78"/>
		<line fill="none" stroke="#000000" stroke-width="2" stroke-miterlimit="10" x1="8.57" y1="0" x2="8.57" y2="5.57"/>
		<line fill="none" stroke="#000000" stroke-width="2" stroke-miterlimit="10" x1="0" y1="8.57" x2="5.57" y2="8.57"/>
		<line fill="none" stroke="#000000" stroke-width="2" stroke-miterlimit="10" x1="2.78" y1="5.79" x2="2.78" y2="11.35"/>
		<path fill="none" stroke="#000000" stroke-width="2" stroke-miterlimit="10" d="M41.39,23.77c7.9,2.57,13.48,9.63,14.15,17.9v14
			H37.93c0,0-9.39-1-7.73-9.59l-5.78-6.36"/>
		<path fill="none" stroke="#000000" stroke-width="2" stroke-miterlimit="10" d="M47.82,31.69c0,0,4,2.54,4.18,10.31"/>
		<path fill="none" stroke="#000000" stroke-width="2" stroke-miterlimit="10" d="M29.33,45l-7.67-8.22
			c-1.23-1.32-0.82-3.72,0.9-5.33l0,0c1.73-1.61,4.15-1.85,5.38-0.54l12.11,12.64"/>
	</g>
</g>
</svg>
