<svg xmlns="http://www.w3.org/2000/svg" viewBox="0 0 410.61 102.2"><defs><style>.cls-1,.cls-2{fill:#fff;}.cls-2{fill-rule:evenodd;}</style></defs><title>dot com white</title><g id="Layer_2" data-name="Layer 2"><g id="Layer_1-2" data-name="Layer 1"><path class="cls-1" d="M336.6,100.16a2,2,0,0,1,.6-1.46,2,2,0,0,1,1.48-.58,2,2,0,0,1,1.46.58,2,2,0,0,1,.58,1.46,2,2,0,0,1-2,2,2,2,0,0,1-1.46-.6,1.91,1.91,0,0,1-.62-1.44"/><path class="cls-1" d="M295,75.94a19.15,19.15,0,0,0,2.11,9,15.58,15.58,0,0,0,6,6.32l.12.12a14.58,14.58,0,0,0,8.19,2.29,15.34,15.34,0,0,0,8.19-2.29A16.2,16.2,0,0,0,325.52,85a19.53,19.53,0,0,0,2.16-9,18.21,18.21,0,0,0-2.16-8.73,16.37,16.37,0,0,0-5.91-6.32,15.34,15.34,0,0,0-8.19-2.29,15.13,15.13,0,0,0-8.07,2.29,17.13,17.13,0,0,0-6,6.38A17.57,17.57,0,0,0,295,75.94m-8.79,0a26.62,26.62,0,0,1,3.31-13,24.66,24.66,0,0,1,9.22-9.52,23.57,23.57,0,0,1,12.64-3.49,23.87,23.87,0,0,1,12.47,3.49,26.13,26.13,0,0,1,9.33,9.52,27.52,27.52,0,0,1,3.38,13,26.83,26.83,0,0,1-3.38,13.13,25.12,25.12,0,0,1-9.15,9.64,23.58,23.58,0,0,1-12.65,3.49,23.88,23.88,0,0,1-12.64-3.43,25.66,25.66,0,0,1-9.16-9.7A26.49,26.49,0,0,1,286.25,75.94Z"/><path class="cls-1" d="M204.49,53.43A3.29,3.29,0,0,1,205.58,51a3.45,3.45,0,0,1,2.42-1h1.93a3.38,3.38,0,0,1,2.3.84,3.27,3.27,0,0,1,1.09,2.3v.61A22,22,0,0,1,219.37,51a25.46,25.46,0,0,1,7.14-1,22.24,22.24,0,0,1,8.23,1.57h-.12a4.59,4.59,0,0,1,2.06,1.39A3.32,3.32,0,0,1,237.4,55a7.45,7.45,0,0,1-.24,1.21l-1,2.42a3.62,3.62,0,0,1-1.09,1.57,2.58,2.58,0,0,1-1.69.61,9.75,9.75,0,0,1-3.51-1.33l.12.12a10.12,10.12,0,0,0-3.87-.61A17.69,17.69,0,0,0,220,60a12.82,12.82,0,0,0-4.78,3v.13a14.15,14.15,0,0,0-1.58,1.57v34a3.16,3.16,0,0,1-3.51,3.51h-2.42a3,3,0,0,1-2.29-1,3.46,3.46,0,0,1-1-2.48Z"/><path class="cls-1" d="M197.47,98.69a3.26,3.26,0,0,1-1.09,2.48,3.57,3.57,0,0,1-2.54,1h-1.7a3.06,3.06,0,0,1-3.38-3V97.84a25.14,25.14,0,0,1-7.51,3.21,32.91,32.91,0,0,1-8.47,1.15q-10.16,0-15.43-5.81t-5.26-17.06V53.43A3.29,3.29,0,0,1,153.18,51a3.46,3.46,0,0,1,2.42-1h2.18A3.3,3.3,0,0,1,160.26,51a3.49,3.49,0,0,1,1,2.42v25.9q0,7,2.84,10.41T173,93.13A22.84,22.84,0,0,0,180,92a22.11,22.11,0,0,0,6.36-3.21,24.47,24.47,0,0,0,2-1.57V53.43a3.43,3.43,0,0,1,1-2.6,3.59,3.59,0,0,1,2.54-.9h2.3a3.05,3.05,0,0,1,2.3,1,3.49,3.49,0,0,1,1,2.48Z"/><path class="cls-1" d="M108.75,96.65A3.3,3.3,0,0,1,107.48,94a3.14,3.14,0,0,1,.35-1.39l1.27-2a3.09,3.09,0,0,1,2.55-1.39,3.46,3.46,0,0,1,1.85.58,19,19,0,0,0,12.72,4.39,11.28,11.28,0,0,0,6.59-1.85,5.4,5.4,0,0,0,2.66-4.51,5.69,5.69,0,0,0-.46-2.37,5.59,5.59,0,0,0-1.62-1.91l.11.12a48.79,48.79,0,0,0-9.71-4.51q-8.1-2.77-11.8-6.42a12.26,12.26,0,0,1-1.62-15.61A15.61,15.61,0,0,1,116,52a18.64,18.64,0,0,1,9.25-2.08q9,0,15.15,3.93a3.1,3.1,0,0,1,1.62,2.89,3,3,0,0,1-.17,1.1,1.81,1.81,0,0,0-.18.52l-.81,1.51a3.31,3.31,0,0,1-3,1.73,3.4,3.4,0,0,1-1.85-.58A12.92,12.92,0,0,0,131.42,59a23.45,23.45,0,0,0-6.13-.81,10.07,10.07,0,0,0-5.84,1.56,4.69,4.69,0,0,0-2.25,4,4.83,4.83,0,0,0,2.08,3.93A29.51,29.51,0,0,0,127,71.21a68.19,68.19,0,0,1,10.06,4.28,15.29,15.29,0,0,1,4.85,4.28,11.54,11.54,0,0,1,2.55,7.74,12.69,12.69,0,0,1-2.43,7.41,16.23,16.23,0,0,1-6.71,5.43,22.27,22.27,0,0,1-9.13,1.85,30.71,30.71,0,0,1-9.31-1.33,28,28,0,0,1-8.16-4.22"/><path class="cls-1" d="M54.44,53.43A3.29,3.29,0,0,1,55.53,51a3.58,3.58,0,0,1,2.54-1h1.69a3.06,3.06,0,0,1,3.39,3v1.33a25.44,25.44,0,0,1,7.5-3.2,33,33,0,0,1,8.47-1.15q10.17,0,15.43,5.8T99.81,72.8V98.69a3.29,3.29,0,0,1-1.08,2.48,3.45,3.45,0,0,1-2.42,1H94.13a3.26,3.26,0,0,1-2.48-1.09,3.42,3.42,0,0,1-1-2.42V72.8q0-7-2.85-10.41T78.88,59A22,22,0,0,0,72,60.15a22.22,22.22,0,0,0-6.29,3.21,18.39,18.39,0,0,0-2.18,1.57V98.69A3.17,3.17,0,0,1,60,102.2H57.7a3.06,3.06,0,0,1-2.3-1,3.49,3.49,0,0,1-1-2.48Z"/><path class="cls-1" d="M37.25,53.43A3.33,3.33,0,0,1,38.34,51a3.48,3.48,0,0,1,2.42-1h2.18A3.29,3.29,0,0,1,45.42,51a3.45,3.45,0,0,1,1,2.42V98.69a3.17,3.17,0,0,1-3.51,3.51H40.52a3,3,0,0,1-2.3-1,3.5,3.5,0,0,1-1-2.48Z"/><path class="cls-1" d="M368.77,93.32a6.3,6.3,0,0,0,.7,3,5.27,5.27,0,0,0,2,2.1l0,0a4.82,4.82,0,0,0,2.72.76,5.08,5.08,0,0,0,2.72-.76,5.36,5.36,0,0,0,2-2.12,6.45,6.45,0,0,0,.72-3,6,6,0,0,0-.72-2.9,5.44,5.44,0,0,0-2-2.1,5.08,5.08,0,0,0-2.72-.76,5,5,0,0,0-2.68.76,5.68,5.68,0,0,0-2,2.12,5.8,5.8,0,0,0-.76,2.88m-2.92,0A8.84,8.84,0,0,1,367,89,8.15,8.15,0,0,1,370,85.84a7.85,7.85,0,0,1,4.2-1.16,8,8,0,0,1,4.14,1.16,8.7,8.7,0,0,1,3.1,3.16,9.09,9.09,0,0,1,1.12,4.32,8.88,8.88,0,0,1-1.12,4.36,8.36,8.36,0,0,1-3,3.2,8.24,8.24,0,0,1-8.4,0,8.51,8.51,0,0,1-3-3.22A8.74,8.74,0,0,1,365.85,93.32Z"/><path class="cls-1" d="M384.81,85.88a1.09,1.09,0,0,1,.36-.82,1.17,1.17,0,0,1,.84-.34h.56a1,1,0,0,1,1.12,1v.44a8.4,8.4,0,0,1,2.48-1.06,11.08,11.08,0,0,1,2.8-.38,6.39,6.39,0,0,1,5.32,2.16,8.66,8.66,0,0,1,2.58-1.64,7.77,7.77,0,0,1,3-.6,6.25,6.25,0,0,1,5,2,8.6,8.6,0,0,1,1.74,5.78v8.4a1.09,1.09,0,0,1-.36.82,1.13,1.13,0,0,1-.8.34h-.76a1,1,0,0,1-.78-.32,1.17,1.17,0,0,1-.3-.84v-8.4q0-4.84-3.88-4.84a5.75,5.75,0,0,0-4.2,1.92,11.67,11.67,0,0,1,.28,2.76v8.56a1.09,1.09,0,0,1-.36.82,1.13,1.13,0,0,1-.8.34h-.72a1.09,1.09,0,0,1-.82-.36,1.13,1.13,0,0,1-.34-.8V92.28a5.25,5.25,0,0,0-.94-3.44,3.62,3.62,0,0,0-2.94-1.12,7.36,7.36,0,0,0-2.28.38,7.29,7.29,0,0,0-2.08,1.06,5.67,5.67,0,0,0-.72.52v11.16a1,1,0,0,1-1.16,1.16h-.76a1,1,0,0,1-.76-.34,1.17,1.17,0,0,1-.32-.82Z"/><path class="cls-1" d="M347.89,93.2a8.85,8.85,0,0,1,1.18-4.5,8.41,8.41,0,0,1,3.26-3.22,8.64,8.64,0,0,1,4.4-1.16A7.73,7.73,0,0,1,363.05,87a1.45,1.45,0,0,1,.24.72,1,1,0,0,1-.12.44,1.5,1.5,0,0,1-.28.4l-.36.36a1,1,0,0,1-.8.36,1.15,1.15,0,0,1-.92-.44A5.35,5.35,0,0,0,359,87.62a6.37,6.37,0,0,0-2.26-.34,5.61,5.61,0,0,0-2.9.76,5.77,5.77,0,0,0-2.1,2.12,5.7,5.7,0,0,0-.8,3,6.23,6.23,0,0,0,.76,3,5.38,5.38,0,0,0,2.12,2.16,5.48,5.48,0,0,0,2.88.8,4.89,4.89,0,0,0,3.92-1.48,3.21,3.21,0,0,1,.6-.68,1.5,1.5,0,0,1,.4-.28,1,1,0,0,1,.44-.12.92.92,0,0,1,.76.36l.4.4a1.15,1.15,0,0,1,.36.84,1.14,1.14,0,0,1-.12.52l0,0a7.08,7.08,0,0,1-2.78,2.42,8.8,8.8,0,0,1-8.28-.28,9,9,0,0,1-3.26-3.18,8.61,8.61,0,0,1-1.2-4.52"/><path class="cls-1" d="M237.69,76.07a26.15,26.15,0,0,1,3.48-13.25,24.75,24.75,0,0,1,9.59-9.48,25.42,25.42,0,0,1,12.95-3.41q12,0,18.6,8a4.28,4.28,0,0,1,.71,2.12,3,3,0,0,1-.35,1.3,4.59,4.59,0,0,1-.83,1.18l-1.06,1.06a2.82,2.82,0,0,1-2.35,1.06,3.37,3.37,0,0,1-2.71-1.3,15.71,15.71,0,0,0-5.36-3.71,18.89,18.89,0,0,0-6.65-1,16.59,16.59,0,0,0-8.53,2.24A17.15,17.15,0,0,0,249,67.12,16.77,16.77,0,0,0,246.64,76a18.42,18.42,0,0,0,2.24,8.94,15.67,15.67,0,0,0,6.24,6.36,16,16,0,0,0,8.47,2.36q7.77,0,11.54-4.36a9.61,9.61,0,0,1,1.77-2,4.35,4.35,0,0,1,1.17-.82,2.91,2.91,0,0,1,1.3-.36,2.71,2.71,0,0,1,2.24,1.06l1.17,1.18a3.38,3.38,0,0,1,1.06,2.47,3.31,3.31,0,0,1-.35,1.53l-.12.12a20.72,20.72,0,0,1-8.18,7.12,25,25,0,0,1-11.48,2.65,25.58,25.58,0,0,1-12.89-3.47,26.28,26.28,0,0,1-9.6-9.36,25.41,25.41,0,0,1-3.53-13.3"/><path class="cls-1" d="M41.86,2.67A42,42,0,0,0,0,41a18.08,18.08,0,0,1,28-.52C27.67,39,22.42,10.91,41.86,2.67"/><path class="cls-1" d="M41.86,2.67h0c20,8.46,13.87,37.95,13.87,37.95a18,18,0,0,1,28,.36A42,42,0,0,0,41.86,2.67"/><path class="cls-1" d="M41.86,2.67C22.42,10.91,27.67,39,28,40.48l.09.08a18,18,0,0,1,27.68.06S61.81,11.13,41.86,2.67"/><path class="cls-2" d="M41.85,0a4.17,4.17,0,0,1,3.51,1.91,25.79,25.79,0,0,0-7,0A4.18,4.18,0,0,1,41.85,0"/></g></g></svg>