<?xml version="1.0" encoding="utf-8"?>
<!-- Generator: Adobe Illustrator 24.3.0, SVG Export Plug-In . SVG Version: 6.00 Build 0)  -->
<svg version="1.1" id="Layer_1" xmlns="http://www.w3.org/2000/svg" xmlns:xlink="http://www.w3.org/1999/xlink" x="0px" y="0px"
	 viewBox="0 0 147.1 71.2" enable-background="new 0 0 147.1 71.2" xml:space="preserve">
<g>
	<path fill="#FFFFFF" d="M141.4,70.5H6.3c-1.7,0-3-1.3-3-3V5.1c0-1.7,1.3-3,3-3h135.1c1.7,0,3,1.3,3,3v62.3
		C144.4,69.1,143.1,70.5,141.4,70.5z"/>
	<g>
		<path fill-rule="evenodd" clip-rule="evenodd" fill="#0D0F12" d="M29.4,33.5c0.1,0.2,0.1,0.5,0.1,0.8v3.6h-5.3
			c-0.8,0-1.4-0.1-1.8-0.5c-0.3,1.4-1.8,2.3-3.4,2.3c-2,0-3.6-1.5-3.6-3.5V35h1.4v1.1c0,1.4,0.8,2.3,2.3,2.3c1.1,0,2.1-0.7,2.1-1.6
			c0-0.5-0.5-0.9-0.9-0.9c-0.1,0-0.2,0-0.2,0v-1.2c0,0,0.2,0,0.6,0c1,0,1.8,0.5,2.3,1.4c0.2,0.5,0.6,0.6,1.2,0.6h4.1v-2.3
			c0-0.4-0.1-0.7-0.2-1l1.2-0.5C29.3,33.2,29.4,33.3,29.4,33.5 M28.2,39.9h1.2v-1.1h-1.2V39.9z M32.4,33L32.4,33
			c-0.5,0-1,0.1-1.5,0.2l0.3,1.2c0.4-0.1,0.7-0.2,1-0.2c0.5,0,0.8,0.1,1.1,0.4c0.2,0.3,0.3,0.8,0.3,1.4v0.6h-3.3v1.2h4.6v-2
			c0-0.9-0.2-1.7-0.7-2.2C34,33.3,33.3,33,32.4,33 M40.5,31.2h-1.2v1.1h1.2V31.2z M42.2,31.2H41v1.1h1.2V31.2z M53.2,39.8h1.2v-1.1
			h-1.2V39.8z M51.4,39.8h1.2v-1.1h-1.2V39.8z M41.4,37.9L41.4,37.9c-1,0-1.7-0.2-2.2-0.7c-0.5-0.4-0.8-1.1-0.8-1.9
			c0-0.7,0.2-1.3,0.6-1.7c0.4-0.4,1-0.6,1.7-0.6c0.8,0,1.3,0.2,1.7,0.6c0.4,0.4,0.6,1,0.6,1.8v1.3h10v-2.3c0-0.4-0.1-0.7-0.2-1
			L54,33c0.1,0.2,0.2,0.4,0.3,0.6c0.1,0.2,0.1,0.5,0.1,0.8V38h-13V37.9z M41.6,35.6L41.6,35.6c0-0.4,0-0.7-0.1-0.9s-0.1-0.3-0.3-0.4
			c-0.1-0.1-0.3-0.1-0.5-0.1c-0.3,0-0.5,0.1-0.7,0.3s-0.2,0.5-0.2,0.9c0,0.9,0.5,1.4,1.4,1.4h0.4C41.6,36.8,41.6,35.6,41.6,35.6z
			 M57.3,33L57.3,33c-0.5,0-1,0.1-1.5,0.2l0.3,1.2c0.4-0.1,0.7-0.2,1-0.2c0.5,0,0.8,0.1,1.1,0.4c0.2,0.3,0.3,0.8,0.3,1.4v0.6h-3.3
			v1.2H60v-2c0-0.9-0.2-1.7-0.7-2.2C58.8,33.3,58.2,33,57.3,33 M83.1,31.2h-1.2v1.1h1.2V31.2z M81.4,31.2h-1.2v1.1h1.2V31.2z
			 M95.6,31.2h-1.2v1.1h1.2V31.2z M96.4,37.9H61.2v-7.2h1.4v5.9h6.2v-3.5h1.4v1c0.3-0.4,0.6-0.7,0.9-0.9c0.4-0.2,0.8-0.3,1.3-0.3
			c0.8,0,1.4,0.2,1.8,0.7s0.6,1.1,0.6,2v1H81v-3.5h1.4v3.5h10.2c-0.2-0.2-0.4-0.4-0.5-0.7s-0.2-0.6-0.2-0.9c0-0.4,0.1-0.8,0.3-1.1
			c0.2-0.3,0.5-0.6,0.8-0.8c0.4-0.2,0.8-0.3,1.2-0.3c1.5,0,2.2,0.8,2.2,2.4C96.4,35.8,96.4,37.9,96.4,37.9 M73.5,36L73.5,36
			c0-0.6-0.1-1.1-0.3-1.4c-0.2-0.3-0.5-0.4-1-0.4c-0.7,0-1.2,0.2-1.5,0.6c-0.4,0.4-0.6,0.9-0.6,1.5v0.4h3.4V36z M95.1,35.3
			L95.1,35.3c0-0.4-0.1-0.7-0.2-0.8c-0.1-0.2-0.4-0.3-0.7-0.3c-0.3,0-0.5,0.1-0.7,0.3s-0.2,0.5-0.2,0.9s0.1,0.8,0.3,1
			c0.2,0.2,0.5,0.4,1,0.4h0.6v-1.5H95.1z M93.9,31.2h-1.2v1.1h1.2V31.2z M97.7,37.9h1.4v-7.2h-1.4V37.9z M17.5,41.9h1.3v-1.2h-1.3
			V41.9z M19.4,41.9h1.3v-1.2h-1.3V41.9z"/>
		<path fill-rule="evenodd" clip-rule="evenodd" fill="#0D0F12" d="M15.3,42.8H18c1.1,0,2,0.3,2.6,0.9c0.6,0.6,0.9,1.5,0.9,2.7
			c0,0.6-0.1,1.1-0.3,1.6c-0.2,0.5-0.4,0.8-0.7,1.1c-0.3,0.3-0.7,0.5-1.2,0.7s-1,0.2-1.6,0.2h-2.4C15.3,50,15.3,42.8,15.3,42.8z
			 M17.8,48.7L17.8,48.7c0.4,0,0.7-0.1,1-0.2c0.3-0.1,0.5-0.3,0.7-0.5s0.3-0.5,0.4-0.7s0.1-0.6,0.1-1s0-0.7-0.1-1s-0.2-0.5-0.3-0.7
			c-0.2-0.2-0.4-0.3-0.6-0.5c-0.2-0.1-0.5-0.2-0.9-0.2h-1.2v4.7h0.9V48.7z"/>
		<path fill-rule="evenodd" clip-rule="evenodd" fill="#0D0F12" d="M22.6,42.8h1.5v4.3c0,0.6,0.1,1.1,0.3,1.4
			c0.2,0.3,0.6,0.4,1.1,0.4s0.9-0.2,1.1-0.4c0.2-0.3,0.3-0.8,0.3-1.4v-4.3h1.5v4.3c0,0.5-0.1,1-0.2,1.4s-0.3,0.7-0.6,1
			c-0.3,0.3-0.6,0.4-0.9,0.6c-0.3,0.1-0.7,0.2-1.2,0.2h-0.1c-0.4,0-0.8-0.1-1.2-0.2c-0.4-0.1-0.7-0.3-0.9-0.6
			c-0.3-0.3-0.4-0.6-0.6-1c-0.1-0.4-0.2-0.9-0.2-1.4v-4.3H22.6z"/>
		<path fill-rule="evenodd" clip-rule="evenodd" fill="#0D0F12" d="M29.8,42.8h2.6c0.5,0,1,0.1,1.3,0.2c0.3,0.1,0.6,0.2,0.8,0.4
			s0.3,0.4,0.4,0.6c0.1,0.2,0.1,0.5,0.1,0.8s-0.1,0.5-0.2,0.8c-0.1,0.3-0.4,0.5-0.7,0.6c0.2,0.1,0.4,0.2,0.5,0.4
			c0.1,0.1,0.2,0.3,0.3,0.4c0.1,0.1,0.1,0.3,0.2,0.4c0,0.1,0,0.3,0,0.4c0,0.3,0,0.6-0.1,0.9c-0.1,0.3-0.2,0.5-0.5,0.7
			c-0.2,0.2-0.5,0.4-0.8,0.5s-0.8,0.2-1.3,0.2h-2.8v-7.3H29.8z M32.5,45.6L32.5,45.6c0.4,0,0.7-0.1,0.8-0.2c0.1-0.1,0.2-0.4,0.2-0.6
			c0-0.3-0.1-0.5-0.3-0.6s-0.5-0.2-1-0.2h-1.1v1.7h1.4V45.6z M32.5,48.8L32.5,48.8c0.2,0,0.5,0,0.6-0.1c0.2,0,0.3-0.1,0.4-0.2
			c0.1-0.1,0.2-0.2,0.2-0.3s0.1-0.3,0.1-0.4c0-0.3-0.1-0.5-0.3-0.7s-0.5-0.2-0.9-0.2h-1.4v2h1.3V48.8z"/>
		<path fill-rule="evenodd" clip-rule="evenodd" fill="#0D0F12" d="M38.3,42.8h1.4l2.7,7.2h-1.6l-0.6-1.7h-2.5L37.1,50h-1.6
			L38.3,42.8z M39.8,47.1L39.8,47.1L39,44.5l-0.9,2.6H39.8z"/>
		<rect x="43.5" y="42.8" fill-rule="evenodd" clip-rule="evenodd" fill="#0D0F12" width="1.5" height="7.2"/>
		<polygon fill-rule="evenodd" clip-rule="evenodd" fill="#0D0F12" points="48.8,42.8 53.7,42.8 53.7,44.1 50.3,44.1 50.3,45.6 
			53.5,45.6 53.5,46.9 50.3,46.9 50.3,48.7 53.9,48.7 53.7,50 48.8,50 		"/>
		<path fill-rule="evenodd" clip-rule="evenodd" fill="#0D0F12" d="M61,47.5c0,0.4-0.1,0.7-0.3,1.1c-0.1,0.3-0.3,0.6-0.6,0.8
			s-0.6,0.4-0.9,0.6c-0.4,0.1-0.8,0.2-1.2,0.2h-0.1l0,0c-0.5,0-1-0.1-1.4-0.3s-0.8-0.4-1-0.8c-0.3-0.3-0.5-0.7-0.6-1.2
			s-0.2-1-0.2-1.6s0.1-1.1,0.2-1.6c0.2-0.5,0.4-0.9,0.7-1.2s0.6-0.6,1.1-0.8c0.4-0.2,0.9-0.3,1.4-0.3s0.9,0.1,1.2,0.2
			c0.3,0.1,0.6,0.3,0.9,0.5c0.2,0.2,0.4,0.5,0.6,0.8c0.1,0.3,0.2,0.6,0.3,1l-1.5,0.2c-0.1-0.4-0.2-0.8-0.4-1s-0.5-0.4-1-0.4
			c-0.6,0-1,0.2-1.3,0.7c-0.3,0.4-0.5,1-0.5,1.8s0.2,1.4,0.5,1.8c0.3,0.4,0.8,0.6,1.3,0.6s0.8-0.1,1-0.4c0.2-0.2,0.4-0.6,0.4-1H61
			V47.5z"/>
		<path fill-rule="evenodd" clip-rule="evenodd" fill="#0D0F12" d="M65.2,50.2h0.1l0,0c0.5,0,1-0.1,1.4-0.3s0.8-0.4,1.1-0.8
			c0.3-0.3,0.5-0.7,0.7-1.2c0.1-0.5,0.2-1,0.2-1.6s-0.1-1.1-0.2-1.6c-0.2-0.5-0.4-0.9-0.7-1.2c-0.3-0.3-0.7-0.6-1.1-0.8
			s-0.9-0.3-1.4-0.3s-1,0.1-1.4,0.3s-0.8,0.4-1.1,0.8c-0.3,0.3-0.5,0.7-0.7,1.2s-0.2,1-0.2,1.6s0.1,1.1,0.2,1.6
			c0.2,0.5,0.4,0.9,0.7,1.2s0.7,0.6,1.1,0.8C64.2,50.1,64.7,50.2,65.2,50.2L65.2,50.2z M65.3,48.9L65.3,48.9c0.6,0,1.1-0.2,1.4-0.6
			c0.3-0.4,0.5-1,0.5-1.8s-0.2-1.4-0.5-1.8c-0.3-0.4-0.8-0.7-1.4-0.7s-1.1,0.2-1.4,0.7c-0.3,0.4-0.5,1-0.5,1.8s0.2,1.4,0.5,1.8
			C64.2,48.7,64.6,48.9,65.3,48.9"/>
		<polygon fill-rule="evenodd" clip-rule="evenodd" fill="#0D0F12" points="69.9,42.8 71.3,42.8 74.2,47.5 74.2,42.8 75.7,42.8 
			75.7,50 74.4,50 71.4,45.3 71.4,50 69.9,50 		"/>
		<path fill-rule="evenodd" clip-rule="evenodd" fill="#0D0F12" d="M80.3,50.2h0.1l0,0c0.5,0,1-0.1,1.4-0.3s0.8-0.4,1.1-0.8
			c0.3-0.3,0.5-0.7,0.7-1.2c0.1-0.5,0.2-1,0.2-1.6s-0.1-1.1-0.2-1.6c-0.2-0.5-0.4-0.9-0.7-1.2c-0.3-0.3-0.7-0.6-1.1-0.8
			s-0.9-0.3-1.4-0.3s-1,0.1-1.4,0.3s-0.8,0.4-1.1,0.8c-0.3,0.3-0.5,0.7-0.7,1.2s-0.2,1-0.2,1.6s0.1,1.1,0.2,1.6
			c0.2,0.5,0.4,0.9,0.7,1.2c0.3,0.3,0.7,0.6,1.1,0.8C79.3,50.1,79.8,50.2,80.3,50.2L80.3,50.2z M80.3,48.9L80.3,48.9
			c0.6,0,1.1-0.2,1.4-0.6c0.3-0.4,0.5-1,0.5-1.8s-0.2-1.4-0.5-1.8c-0.3-0.4-0.8-0.7-1.4-0.7s-1.1,0.2-1.4,0.7
			c-0.3,0.4-0.5,1-0.5,1.8s0.2,1.4,0.5,1.8C79.2,48.7,79.7,48.9,80.3,48.9"/>
		<polygon fill-rule="evenodd" clip-rule="evenodd" fill="#0D0F12" points="85,42.8 86.8,42.8 88.6,48.2 90.5,42.8 92.2,42.8 
			92.2,50 90.8,50 90.8,45.2 89.2,50 88,50 86.4,45.2 86.4,50 85,50 		"/>
		<polygon fill-rule="evenodd" clip-rule="evenodd" fill="#0D0F12" points="95.6,47.1 93.1,42.8 94.7,42.8 96.3,45.7 97.9,42.8 
			99.5,42.8 97.1,47.1 97.1,50 95.6,50 		"/>
		<path fill-rule="evenodd" clip-rule="evenodd" fill="#03623A" d="M132.4,22.4V50h-15.7c0.3-1.6,1.2-5.8,5-9.8c3.6-3.7,7-5.3,7-8.6
			c0-4.5-5.6-4.5-5.8-6.2c-0.2-1.8,4.3-1.7,4.3-3C127.2,22.4,132.4,22.4,132.4,22.4z"/>
		<path fill-rule="evenodd" clip-rule="evenodd" fill="#A31E23" d="M123.7,22.4h-18.8v21.4c0.8-1.1,3.1-4,8.1-7.1c4.9-3,9-4.3,8.9-7
			c-0.1-2.2-3.4-2.2-3.4-4C118.4,23.4,123.5,23.5,123.7,22.4"/>
	</g>
</g>
</svg>
