<?xml version="1.0" encoding="utf-8"?>
<!-- Generator: Adobe Illustrator 24.3.0, SVG Export Plug-In . SVG Version: 6.00 Build 0)  -->
<svg version="1.1" id="Layer_1" xmlns="http://www.w3.org/2000/svg" xmlns:xlink="http://www.w3.org/1999/xlink" x="0px" y="0px"
	 viewBox="0 0 84.52 84.52" enable-background="new 0 0 84.52 84.52" xml:space="preserve">
<g id="Layer_2_1_">
	<g id="Layer_2-2">
		<circle fill="#0e4981" cx="42.26" cy="42.26" r="42.26"/>
		<path fill="none" stroke="#FFFFFF" stroke-miterlimit="10" d="M62.13,45v7.84l-6.08,3.88L50,52.88V45
			c2.18-0.34,4.26-1.16,6.08-2.41C57.89,43.83,59.96,44.66,62.13,45z"/>
		<path fill="none" stroke="#FFFFFF" stroke-miterlimit="10" d="M54.62,40.61V27.39c0-1.98-1.61-3.59-3.59-3.59
			c-0.01,0-0.02,0-0.03,0H28.9c-1.98,0-3.59,1.61-3.59,3.59l0,0v28.17c0,1.98,1.61,3.59,3.59,3.59l0,0H51
			c0.94,0.01,1.85-0.35,2.53-1"/>
		<path fill="none" stroke="#FFFFFF" stroke-miterlimit="10" d="M51.38,42V28.16c-0.01-0.24-0.21-0.44-0.45-0.44H29
			c-0.24,0-0.44,0.2-0.44,0.44c0,0,0,0,0,0v27.67c0,0.24,0.2,0.44,0.44,0.45h21.7"/>
		<rect x="36.4" y="33.4" fill="none" width="1.74" height="1.64"/>
		<rect x="39.14" y="33.4" fill="none" width="1.64" height="1.64"/>
		<rect x="39.14" y="30.66" fill="none" width="1.64" height="1.74"/>
		<rect x="41.78" y="33.4" fill="none" width="1.74" height="1.64"/>
		<rect x="39.14" y="36.04" fill="none" width="1.64" height="1.74"/>
		<polygon fill="#FFFFFF" points="39.14,30.66 40.78,30.66 40.78,32.4 41.78,32.4 41.78,29.66 38.14,29.66 38.14,32.4 39.14,32.4 		
			"/>
		<polygon fill="#FFFFFF" points="40.78,37.78 39.14,37.78 39.14,36.04 38.14,36.04 38.14,38.78 41.78,38.78 41.78,36.04 
			40.78,36.04 		"/>
		<polygon fill="#FFFFFF" points="44.52,32.4 41.78,32.4 41.78,33.4 43.52,33.4 43.52,35.04 41.78,35.04 41.78,36.04 44.52,36.04 		
			"/>
		<polygon fill="#FFFFFF" points="36.4,35.04 36.4,33.4 38.14,33.4 38.14,32.4 35.4,32.4 35.4,36.04 38.14,36.04 38.14,35.04 		"/>
		<rect x="38.14" y="32.4" fill="#FFFFFF" width="1" height="1"/>
		<rect x="40.78" y="35.04" fill="#FFFFFF" width="1" height="1"/>
		<rect x="40.78" y="32.4" fill="#FFFFFF" width="1" height="1"/>
		<rect x="38.14" y="35.04" fill="#FFFFFF" width="1" height="1"/>
		<line fill="none" stroke="#FFFFFF" stroke-miterlimit="10" x1="31.42" y1="41.26" x2="34.25" y2="41.26"/>
		<line fill="none" stroke="#FFFFFF" stroke-miterlimit="10" x1="31.42" y1="45.28" x2="34.25" y2="45.28"/>
		<line fill="none" stroke="#FFFFFF" stroke-miterlimit="10" x1="31.42" y1="49.29" x2="34.25" y2="49.29"/>
		<line fill="none" stroke="#FFFFFF" stroke-miterlimit="10" x1="31.42" y1="53.3" x2="34.25" y2="53.3"/>
		<line fill="none" stroke="#FFFFFF" stroke-miterlimit="10" x1="35.4" y1="41.26" x2="45.06" y2="41.26"/>
		<line fill="none" stroke="#FFFFFF" stroke-miterlimit="10" x1="35.4" y1="45.28" x2="47.02" y2="45.28"/>
		<line fill="none" stroke="#FFFFFF" stroke-miterlimit="10" x1="35.4" y1="49.29" x2="47.02" y2="49.29"/>
		<line fill="none" stroke="#FFFFFF" stroke-miterlimit="10" x1="35.4" y1="53.3" x2="47.02" y2="53.3"/>
		<rect x="33.23" y="23.8" fill="none" stroke="#FFFFFF" stroke-miterlimit="10" width="13.79" height="3.91"/>
		<path fill="none" stroke="#FFFFFF" stroke-miterlimit="10" d="M38,23.8c0.23-1.08,1.3-1.77,2.38-1.53
			c0.77,0.17,1.37,0.77,1.53,1.53"/>
		<path fill="none" stroke="#FFFFFF" stroke-miterlimit="10" d="M56.05,39.7c-2.58,1.76-5.52,2.93-8.61,3.41V54.2l8.61,5.5l8.61-5.5
			V43.11C61.57,42.63,58.63,41.46,56.05,39.7z M62.13,52.88l-6.08,3.88L50,52.88V45c2.18-0.34,4.26-1.16,6.08-2.41
			c1.81,1.24,3.88,2.07,6.05,2.41L62.13,52.88z"/>
		<polyline fill="none" stroke="#FFFFFF" stroke-miterlimit="10" points="52.99,51 54.91,52.92 60.13,47.7 		"/>
	</g>
</g>
</svg>
