<?xml version="1.0" encoding="utf-8"?>
<!-- Generator: Adobe Illustrator 24.3.0, SVG Export Plug-In . SVG Version: 6.00 Build 0)  -->
<svg version="1.1" id="Layer_1" xmlns="http://www.w3.org/2000/svg" xmlns:xlink="http://www.w3.org/1999/xlink" x="0px" y="0px"
	 viewBox="0 0 40 40" enable-background="new 0 0 40 40" xml:space="preserve">
<g id="Layer_2_1_">
	<g id="Layer_1-2">
		<circle fill="#DD2A7B" cx="20" cy="20" r="20"/>
		<path fill="#FFFFFF" d="M25.06,15.87c0,0.51-0.42,0.93-0.93,0.93s-0.93-0.42-0.93-0.93c0-0.51,0.42-0.93,0.93-0.93
			S25.06,15.36,25.06,15.87C25.06,15.87,25.06,15.87,25.06,15.87z"/>
		<path fill="#FFFFFF" d="M20,16c-2.21,0-4,1.79-4,4s1.79,4,4,4s4-1.79,4-4S22.21,16,20,16z M20,22.55c-1.42,0-2.58-1.16-2.58-2.58
			c0-1.42,1.16-2.58,2.58-2.58c1.42,0,2.58,1.16,2.58,2.58c0,0.01,0,0.02,0,0.03c-0.01,1.42-1.16,2.57-2.58,2.58V22.55z"/>
		<path fill="#FFFFFF" d="M27.69,16.81c-0.01-0.64-0.14-1.28-0.36-1.88c-0.19-0.52-0.5-0.98-0.89-1.37
			c-0.39-0.39-0.86-0.69-1.37-0.89c-0.6-0.22-1.24-0.35-1.88-0.36c-0.82,0-1.09-0.05-3.19-0.05s-2.37,0-3.19,0.05
			c-0.64,0.01-1.28,0.14-1.88,0.36c-1.04,0.4-1.86,1.22-2.26,2.26c-0.22,0.6-0.35,1.24-0.36,1.88c0,0.82-0.05,1.09-0.05,3.19
			s0,2.37,0.05,3.19c0.01,0.64,0.14,1.28,0.36,1.88c0.4,1.04,1.22,1.86,2.26,2.26c0.6,0.22,1.24,0.35,1.88,0.36
			c0.82,0,1.09,0,3.19,0s2.37,0,3.19,0c0.64-0.01,1.28-0.14,1.88-0.36c1.04-0.4,1.86-1.22,2.26-2.26c0.22-0.6,0.35-1.24,0.36-1.88
			c0-0.82,0-1.09,0-3.19S27.73,17.63,27.69,16.81z M26.3,23.13c-0.01,0.49-0.11,0.98-0.3,1.43c-0.26,0.66-0.78,1.18-1.44,1.44
			c-0.46,0.17-0.94,0.26-1.43,0.27c-0.82,0-1.06,0-3.13,0s-2.31,0-3.12,0c-0.49-0.01-0.98-0.1-1.44-0.27
			c-0.66-0.26-1.18-0.78-1.44-1.44c-0.17-0.46-0.26-0.94-0.27-1.43c0-0.82,0-1.06,0-3.13s0-2.31,0-3.13
			c0.01-0.49,0.1-0.97,0.27-1.43c0.12-0.34,0.32-0.64,0.58-0.89c0.25-0.26,0.55-0.46,0.89-0.58c0.46-0.18,0.95-0.27,1.44-0.27
			c0.81,0,1.06,0,3.12,0s2.31,0,3.13,0c0.49,0,0.97,0.09,1.43,0.27c0.65,0.27,1.16,0.81,1.41,1.47c0.18,0.46,0.27,0.94,0.27,1.43
			c0,0.82,0,1.06,0,3.13S26.34,22.31,26.3,23.13z"/>
	</g>
</g>
</svg>
