<?xml version="1.0" encoding="utf-8"?>
<!-- Generator: Adobe Illustrator 24.3.0, SVG Export Plug-In . SVG Version: 6.00 Build 0)  -->
<svg version="1.1" id="Layer_1" xmlns="http://www.w3.org/2000/svg" xmlns:xlink="http://www.w3.org/1999/xlink" x="0px" y="0px"
	 viewBox="0 0 147.1 71.2" enable-background="new 0 0 147.1 71.2" xml:space="preserve">
<g>
	<path fill="#FFFFFF" d="M141.9,70.1H5.2c-1.7,0-3-1.3-3-3v-63c0-1.7,1.3-3,3-3h136.7c1.7,0,3,1.3,3,3v63.1
		C144.9,68.8,143.6,70.1,141.9,70.1z"/>
	<g>
		<path fill="#0A0A0A" d="M113.3,17.5c6.5,0,12.6,1.7,18.3,4.9c0.3,0.2,0.4,0.4,0.4,0.7c-0.1,8.2-2.6,15.7-7.6,22.2
			c-2.9,3.8-6.5,7-10.6,9.4c-0.4,0.2-0.7,0.3-1.1,0c-9.2-5.5-15-13.5-17.4-23.9c-0.6-2.5-0.8-5.1-0.8-7.7c0-0.4,0.1-0.6,0.5-0.8
			c3.9-2.2,8-3.7,12.4-4.4C109.3,17.7,111.3,17.5,113.3,17.5z M126,29c1.7,0.7,3.1,1.7,4.4,3c0.7-2.9,1.1-5.8,1.1-8.7
			c0-0.2-0.1-0.4-0.3-0.5c-4.6-2.6-9.6-4.2-14.9-4.6c-3.2-0.3-6.3-0.1-9.5,0.5c-4,0.7-7.8,2.1-11.3,4.1c-0.2,0.1-0.3,0.3-0.3,0.6
			c0,2.1,0.2,4.2,0.6,6.2c0.7,3.9,2,7.6,4,11c3.2,5.7,7.6,10.3,13.3,13.6c0.3,0.2,0.5,0.2,0.7,0c1.4-0.8,2.7-1.7,3.9-2.7
			c1.6-1.2,3-2.6,4.4-4c0.3-0.3,0.4-0.5,0.1-0.9c-0.3-0.5-0.7-1-1-1.4c-0.7-0.8-1.5-1.5-2.4-2.2c2.2-0.2,4,0.3,5.6,1.8
			c0.1-0.1,0.1-0.1,0.2-0.2c0.4-0.5,0.4-0.5-0.2-0.9c-0.4-0.3-0.9-0.5-1.4-0.8c0.7,0,1.4,0,2,0s1-0.1,1.3-0.7
			c0.1-0.3,0.3-0.5,0.4-0.7c0.6-1.1,1.4-2.3,1.8-3.5c0.5-1.6,0.3-3.2-0.2-4.8C127.7,31.6,126.8,30.3,126,29
			C125.9,29,125.9,29,126,29z"/>
		<path fill="#0A0A0A" d="M77.1,34.1c-1.4,0-2.8,0-4.2,0c-0.6,0-1.1-0.2-1.7-0.2c-0.5,0-1.1,0.2-1.6,0.2c-1.5,0-3,0-4.5,0
			c-0.4,0-0.8-0.1-1.2-0.2c-0.1,0-0.2-0.1-0.3,0c-0.4,0.3-0.9,0.2-1.3,0.2c-1.7,0-3.4,0-5.1,0c-0.5,0-0.9,0-1.3-0.4
			c-0.1-0.2-0.2,0-0.4,0c-0.4,0.1-0.9,0.2-1.3,0c-0.5-0.2-0.9-0.5-1-1c-0.1-0.6,0.1-1,0.6-1.4c0.4-0.3,0.9-0.5,1.4-0.7
			c0.3-0.1,0.5-0.1,0.6-0.5c0.1-0.3,0.5-0.1,0.8-0.1s0.2,0.2,0.2,0.4c0,0.7,0,1.4,0,2.1c0,0.4,0.2,0.7,0.6,0.6c1.6,0,3.2,0,4.8,0
			c0.6,0,0.7-0.1,0.7-0.7c0-0.4,0-0.7,0-1.1c-0.1-0.5,0.1-0.7,0.6-0.6c0.4,0,0.6,0.1,0.5,0.5c0,0.5,0,0.9,0,1.4
			c0,0.3,0.1,0.4,0.4,0.5c1.2,0.1,2.3,0,3.5,0c0.6,0,1.3,0,1.9,0c0.4,0,0.6-0.2,0.6-0.6c0-0.5,0-1,0-1.5s0.4-0.3,0.6-0.3
			s0.5-0.1,0.5,0.3c0,0.5,0,1.1,0,1.6c0,0.3,0.1,0.4,0.4,0.5c0.4,0,0.9,0.1,1.3,0.1c1.4,0,2.9,0,4.3,0c0.3,0,0.4-0.1,0.3-0.4
			c-0.1-0.2-0.1-0.4-0.1-0.6c0.1-0.7,0.6-1.3,0.7-1.9c0-0.2,0.2-0.2,0.4-0.2c0.9,0.2,1.7,0.4,2.4,0.9c0.6,0.4,0.9,1,0.9,1.7
			c0,0.3,0,0.7,0,1s-0.1,0.4-0.4,0.4C80.3,34.1,78.7,34.1,77.1,34.1z M55.7,32c-0.1-0.2,0.2-0.6-0.2-0.6s-0.9,0.2-1.1,0.6
			c-0.2,0.3,0,0.7,0.4,0.8C55.4,33,55.7,32.7,55.7,32z M79.8,32.2c0-0.2,0-0.4-0.1-0.6s-0.2-0.3-0.4-0.4c-0.3,0-0.4,0.2-0.4,0.4
			c-0.2,0.5-0.1,0.9,0.1,1.3c0.1,0.2,0.2,0.2,0.4,0.2c0.2,0,0.2-0.1,0.3-0.3C79.7,32.6,79.8,32.4,79.8,32.2z M80.8,31.7
			c0.1,0.4,0,0.8-0.1,1.1c0,0.1-0.1,0.3,0.1,0.2c0.1,0,0.4,0.1,0.4-0.2C81.2,32.5,81.2,32,80.8,31.7z"/>
		<path fill="#0A0A0A" d="M31.4,31.9c0,0.1,0,0.2,0,0.3c0,0.9,0,0.9,0.9,0.9c0.1,0,0.2,0,0.4,0c1,0.1,1.8,0,2-1.2
			c0.1-0.6,0.6-1.1,1.3-1.2c0.8-0.2,1.5,0.1,1.9,0.7c0.4,0.6,0.4,1.5,0,2S36.7,34.2,36,34c-0.3-0.1-0.6-0.3-0.8-0.4
			c-0.2-0.1-0.5,0.3-0.8,0.3c-1,0.1-2,0.2-3-0.1c-0.1,0-0.2-0.1-0.3-0.1c-1.2,0.5-2.5,0.3-3.7,0.2c-0.3,0-0.3,0-0.4,0.2
			c-0.3,1-1.3,1.6-2.4,1.6c-1.2,0-2.1-0.6-2.4-1.5c-0.2-0.8-0.1-1.5,0.3-2.3c0.1-0.2,0.2-0.2,0.4-0.1c0.2,0.2,0.7,0.1,0.6,0.6
			c-0.1,0.4-0.2,0.7-0.2,1.1c0.1,0.7,0.6,1.2,1.2,1.2c0.9,0,1.4-0.3,1.5-1c0.1-0.6,0-1.1-0.2-1.7c-0.1-0.3,0-0.4,0.3-0.4
			c0.8-0.2,0.7-0.2,0.9,0.5c0.2,0.8,0.2,0.9,1,0.9c0.6,0,1.2,0,1.8,0c0.4,0,0.6-0.2,0.5-0.6c0-0.5,0-1,0-1.4c0-0.3,0.1-0.4,0.4-0.4
			c0.7,0,0.7,0,0.7,0.7C31.4,31.5,31.4,31.7,31.4,31.9z M36.2,33.1c0.6,0,0.9-0.2,0.9-0.7s-0.4-0.9-0.8-1c-0.4,0-1,0.7-0.9,1.2
			C35.5,33.2,35.9,33.1,36.2,33.1z"/>
		<path fill="#0A0A0A" d="M48.4,31.1c0,0.8,0,1.7,0,2.5c0,0.2,0,0.4-0.3,0.4c-1.2,0-2.4,0.1-3.6-0.1c-0.5-0.1-0.9-0.1-1.5,0
			c-1.1,0.2-2.2,0.2-3.3,0c-0.5-0.1-0.8-0.4-0.8-0.9c-0.1-1.5,0-3.1,0-4.6c0-0.2,0.1-0.2,0.2-0.2c0.1,0,0.3,0,0.4,0
			c0.3,0,0.5,0.1,0.5,0.4c0,1.2,0,2.4,0,3.7c0,0.7,0.1,0.8,0.8,0.8c0.5,0,1,0,1.5,0c0.4,0,0.6-0.2,0.6-0.6c0-0.5,0-1,0-1.5
			c0-0.2,0.1-0.3,0.3-0.3c0.8,0,0.8,0,0.8,0.7c0,0.4,0,0.8,0,1.2c0,0.3,0.1,0.4,0.3,0.4c0.9,0.1,1.7,0,2.6,0.1
			c0.3,0,0.2-0.3,0.2-0.4c0-1.3,0-2.7,0-4c0-0.5,0.2-0.5,0.5-0.5s0.6-0.1,0.6,0.5C48.3,29.5,48.4,30.3,48.4,31.1z"/>
		<path fill="#0A0A0A" d="M56.2,39c0.6-0.2,0.7,0.2,0.9,0.6c0.6,1.6,1.2,3.2,1.9,4.8c0.1,0.4,0.1,0.5-0.3,0.5h-0.1
			c-0.6,0.1-1-0.1-1.1-0.7c-0.1-0.5-0.4-0.7-0.9-0.6c-0.3,0-0.6,0-0.9,0c-0.6-0.1-0.9,0.2-1.1,0.8c0,0.2-0.1,0.5-0.3,0.6
			c-0.3,0.1-0.7,0-1,0c-0.2,0-0.1-0.2-0.1-0.3c0.7-1.8,1.4-3.5,2.1-5.3C55.5,38.7,55.9,39,56.2,39z M56.1,40.2
			c-0.3,0.7-0.5,1.3-0.7,1.9c-0.1,0.2-0.2,0.3,0.1,0.4c0.4,0,0.8,0,1.3,0C56.6,41.7,56.4,41,56.1,40.2z"/>
		<path fill="#0A0A0A" d="M69.1,40.9c0.5-0.3,0.9-0.6,1.4-0.5c0.8,0,1.3,0.5,1.4,1.3c0.1,1,0,1.9,0,2.9c0,0.2-0.1,0.3-0.3,0.3
			c-0.2,0-0.3,0-0.5,0c-0.3,0-0.4-0.1-0.4-0.4c0-0.7,0-1.5,0-2.2c0-0.4,0-0.8-0.6-0.9c-0.5-0.1-0.9,0.2-1,0.8C69,43,69,43.7,69,44.5
			c0,0.5-0.3,0.4-0.6,0.4c-0.3,0-0.6,0.1-0.6-0.4c0-1.8,0-3.6,0-5.5c0-0.4,0.1-0.4,0.4-0.4c0.7,0,0.7,0,0.7,0.7
			C69.1,39.8,69.1,40.3,69.1,40.9z"/>
		<path fill="#0A0A0A" d="M86.2,40.5c1.2-0.1,1.2-0.1,1.6,1c0.2,0.6,0.4,1.2,0.6,1.8c0,0,0,0,0.1,0.1c0.3-0.9,0.6-1.7,0.8-2.5
			c0.1-0.3,1-0.5,1.2-0.3c0.1,0.1,0,0.2,0,0.3c-0.6,1.5-1.2,3.1-1.8,4.6c-0.4,1-0.8,1.2-1.9,1.2c-0.4,0-0.4-0.3-0.4-0.6
			s0.1-0.4,0.4-0.4c0.8,0,1.1-0.3,0.8-1.1C87.2,43.2,86.7,41.9,86.2,40.5z"/>
		<path fill="#0A0A0A" d="M75,40.4c1.3,0,2.2,0.9,2.2,2.3c0,1.3-0.9,2.2-2.3,2.2c-1.3,0-2.2-0.9-2.2-2.2
			C72.7,41.3,73.6,40.4,75,40.4z M73.9,42.6c0,0.2,0,0.4,0.1,0.7c0.2,0.6,0.8,0.8,1.3,0.5s0.6-0.8,0.6-1.4c0-0.5-0.2-0.9-0.7-1.1
			C74.5,41.1,73.9,41.6,73.9,42.6z"/>
		<path fill="#0A0A0A" d="M50.3,43.6c0.1,1,0,1.1-0.9,1.2c-0.8,0.1-1.6,0.1-2.3-0.6c-0.6-0.7-0.7-2.1-0.1-3c0.5-0.7,1.5-1,2.4-0.7
			c0.7,0.2,1.1,0.8,1.2,1.5c0.2,1,0.2,1-0.8,1c-0.5,0-1.1,0-1.6,0c-0.4,0-0.4,0.2-0.2,0.4c0.2,0.5,0.9,0.7,1.5,0.5
			C49.7,43.9,50,43.7,50.3,43.6z M48.6,42.1c0.1,0,0.2,0,0.4,0s0.5,0.1,0.5-0.1c0-0.2-0.1-0.5-0.3-0.6c-0.4-0.3-1-0.2-1.3,0.2
			c-0.1,0.1-0.2,0.3-0.1,0.5c0.1,0.2,0.3,0.1,0.4,0.1C48.3,42.2,48.5,42.1,48.6,42.1z"/>
		<path fill="#0A0A0A" d="M17.8,41c0.3-0.3,0.6-0.5,1-0.6c1.1-0.1,1.8,0.4,1.8,1.6c0,0.8,0,1.6,0,2.5c0,0.3-0.1,0.4-0.4,0.4
			c-0.1,0-0.3,0-0.4,0c-0.3,0-0.4-0.1-0.4-0.4c0-0.8,0.1-1.7,0-2.5c0-0.3-0.2-0.5-0.4-0.6c-0.3-0.1-0.6,0-0.8,0.3
			c-0.2,0.3-0.3,0.6-0.3,0.9c0,0.6,0,1.2,0,1.9c0,0.4-0.1,0.5-0.5,0.5c-0.8,0-0.7,0.1-0.7-0.8c0-1,0-2.1,0-3.1
			c0-0.2-0.1-0.6,0.3-0.5C17.3,40.5,17.8,40.2,17.8,41z"/>
		<path fill="#0A0A0A" d="M62.5,44.3c-0.5,0.4-1,0.6-1.5,0.6c-0.8-0.1-1.3-0.6-1.3-1.5s0-1.7,0-2.6c0-0.2,0.1-0.3,0.3-0.3
			c0.1,0,0.1,0,0.2,0c0.7,0,0.7,0,0.7,0.7s0,1.4,0,2.1c0,0.3,0.1,0.6,0.5,0.6c0.4,0.1,0.6,0,0.8-0.3s0.2-0.5,0.2-0.8
			c0-0.6,0-1.2,0-1.9c0-0.3,0-0.4,0.4-0.4c0.8,0,0.8,0,0.8,0.8c0,1,0,2,0,2.9c0,0.2,0.1,0.6-0.4,0.6C63,44.8,62.4,45.1,62.5,44.3z"
			/>
		<path fill="#0A0A0A" d="M33.8,41.7c0-0.3,0-0.5-0.1-0.7c0-0.2,0.1-0.3,0.3-0.4c0.6-0.2,1.2-0.3,1.8-0.2c0.8,0.1,1.2,0.6,1.3,1.4
			c0.1,0.9,0,1.8,0.1,2.7c0,0.1,0,0.2-0.1,0.2c-0.3,0.2-0.9-0.1-1-0.5c-0.4,0.3-0.7,0.5-1.2,0.5c-0.8,0-1.5-0.4-1.6-1.1
			c-0.1-0.9,0.4-1.5,1.4-1.6c0.3,0,0.7-0.1,1,0c0.4,0,0.4-0.2,0.3-0.5c-0.1-0.2-0.3-0.3-0.5-0.4C34.9,41.2,34.4,41.4,33.8,41.7z
			 M35,44c0.6,0,1-0.4,1.1-0.9c0-0.1,0-0.2-0.1-0.2c-0.3,0-0.7,0-1,0.1s-0.5,0.3-0.4,0.7C34.5,43.9,34.8,44,35,44z"/>
		<path fill="#0A0A0A" d="M39.3,40.9c0.3-0.3,0.6-0.5,1-0.5c1.2-0.1,1.8,0.4,1.8,1.6c0,0.8,0,1.6,0,2.5c0,0.3-0.1,0.3-0.3,0.3
			c-0.8,0-0.8,0-0.8-0.8c0-0.6,0-1.2,0-1.8c0-0.4,0-0.8-0.6-0.9c-0.5-0.1-0.8,0.2-1,0.8c-0.2,0.7-0.1,1.5-0.1,2.3
			c0,0.6-0.3,0.5-0.6,0.5c-0.4,0-0.5,0-0.5-0.5c0-1.1,0-2.1,0-3.2c0-0.7,0-0.7,0.7-0.7C39.1,40.5,39.4,40.5,39.3,40.9z"/>
		<path fill="#0A0A0A" d="M28.2,44.3c-0.4,0.4-0.8,0.6-1.3,0.6c-0.9,0-1.5-0.5-1.5-1.5c0-0.8,0-1.6,0-2.5c0-0.4,0.1-0.5,0.5-0.4
			c0.1,0,0.2,0,0.3,0c0.3-0.1,0.4,0.1,0.4,0.4c0,0.7,0,1.4,0,2.1c0,0.7,0.2,1,0.6,1c0.5,0,0.8-0.3,0.9-0.9c0.2-0.7,0.1-1.5,0.1-2.2
			c0-0.3,0.1-0.4,0.4-0.4c0.2,0,0.3,0,0.5,0s0.3,0.1,0.3,0.3c0,1.2,0,2.5,0,3.7c0,0.3-0.1,0.4-0.4,0.3C28.6,44.7,28.1,45,28.2,44.3z
			"/>
		<path fill="#0A0A0A" d="M22.7,44.9c-0.2,0-0.4,0-0.7-0.1c-0.6-0.1-0.7-0.4-0.5-0.9c0.1-0.2,0.2-0.1,0.3-0.1c0.3,0.1,0.6,0.2,1,0.2
			c0.2,0,0.5-0.1,0.5-0.4c0.1-0.3-0.2-0.4-0.4-0.5C22.8,43,22.6,43,22.5,43c-0.8-0.2-1.1-0.6-1.1-1.3s0.5-1.1,1.2-1.2
			c0.4-0.1,0.9-0.1,1.3,0s0.6,0.5,0.4,0.9c-0.1,0.1-0.2,0.1-0.3,0c-0.3-0.1-0.6-0.1-0.9-0.1c-0.2,0-0.4,0.1-0.4,0.3
			c0,0.3,0.2,0.4,0.4,0.4c0.2,0.1,0.4,0.1,0.5,0.2c0.8,0.3,1.1,0.7,1,1.4c-0.1,0.6-0.5,1.1-1.2,1.2C23.1,44.8,22.9,44.8,22.7,44.9z"
			/>
		<path fill="#0A0A0A" d="M65.1,42.5c0-0.2,0-0.4,0-0.6c0-0.4,0.1-0.8-0.6-0.7c-0.4,0.1-0.2-0.2-0.2-0.4s-0.1-0.4,0.3-0.4
			c0.4,0.1,0.6-0.1,0.5-0.5c0-0.3,0.8-0.8,1.1-0.7c0.2,0.1,0.1,0.3,0.1,0.4c0,0.7,0,0.7,0.7,0.7c0.4,0,0.3,0.3,0.3,0.5
			s0,0.4-0.3,0.4c-0.7,0-0.7,0-0.7,0.7c0,0.4,0,0.9,0,1.3c0,0.5,0.2,0.7,0.7,0.6c0.2,0,0.4-0.1,0.4,0.2c0,0.2,0.2,0.6-0.3,0.7
			c-0.3,0-0.6,0.1-0.9,0c-0.5-0.1-0.9-0.4-0.9-0.9C65.1,43.4,65.1,43,65.1,42.5L65.1,42.5z"/>
		<path fill="#0A0A0A" d="M83.8,42.6c0-0.2,0-0.4,0-0.6c0-0.5,0-0.8-0.6-0.7c-0.3,0-0.2-0.3-0.2-0.4c0-0.2-0.1-0.4,0.2-0.4
			c0.5,0.1,0.7-0.1,0.6-0.6s0.4-0.4,0.6-0.4c0.6-0.2,0.6-0.2,0.6,0.4c0,0.5,0.1,0.7,0.6,0.6c0.4-0.1,0.3,0.2,0.3,0.4
			s0.1,0.5-0.3,0.4C85.1,41.2,85,41.5,85,42s0,0.9,0,1.4c0,0.4,0.2,0.7,0.6,0.6c0.3-0.1,0.4,0,0.4,0.3c0,0.2,0.2,0.5-0.3,0.6
			c-1.3,0.2-1.9-0.3-1.9-1.6C83.8,43,83.8,42.8,83.8,42.6z"/>
		<path fill="#0A0A0A" d="M45.2,40.4c0.1,0,0.3,0,0.4,0c0.5,0.1,0.7,0.5,0.4,0.9c-0.1,0.1-0.2,0.1-0.3,0c-0.5-0.1-1-0.1-1.4,0.4
			c-0.3,0.5-0.3,1.4,0,1.8c0.4,0.5,0.9,0.4,1.4,0.3c0.1,0,0.3-0.2,0.3,0.1s0.3,0.7-0.1,0.9c-1,0.4-2.2,0-2.7-0.8
			c-0.6-0.9-0.4-2.3,0.3-3C44,40.5,44.5,40.3,45.2,40.4z"/>
		<path fill="#0A0A0A" d="M15.6,41.9c0,0.8,0,1.6,0,2.5c0,0.3-0.1,0.5-0.4,0.4c-0.1,0-0.2,0-0.4,0c-0.4,0-0.5-0.1-0.5-0.5
			c0-1.6,0-3.3,0-4.9c0-0.4,0.1-0.5,0.5-0.5c0.7,0,0.7,0,0.7,0.7C15.6,40.4,15.6,41.2,15.6,41.9z"/>
		<path fill="#0A0A0A" d="M50.5,31.1c0,0.9,0,1.7,0,2.6c0,0.5-0.3,0.4-0.6,0.4s-0.6,0.1-0.6-0.4c0-1.7,0-3.4,0-5.1
			c0-0.3,0.1-0.4,0.4-0.4c0.7,0,0.7,0,0.7,0.7C50.5,29.6,50.5,30.4,50.5,31.1z"/>
		<path fill="#0A0A0A" d="M31.5,41.1c0.2-0.2,0.3-0.4,0.5-0.5c0.3-0.2,0.7-0.3,0.9-0.1s0.1,0.6,0.1,1c0,0.2-0.2,0.1-0.3,0.1
			c-0.7,0-0.8,0.1-1,0.8s-0.1,1.4-0.1,2.1c0,0.6-0.4,0.4-0.7,0.4c-0.3,0-0.5,0-0.5-0.4c0-1.1,0-2.3,0-3.4c0-0.2-0.1-0.6,0.4-0.5
			C31.1,40.7,31.6,40.4,31.5,41.1C31.5,41,31.5,41,31.5,41.1z"/>
		<path fill="#0A0A0A" d="M79.1,41c0.3-0.4,0.6-0.7,1.1-0.7c0.2,0,0.4,0,0.4,0.3c0,0.2,0,0.3,0,0.5c0,0.3-0.1,0.3-0.3,0.3
			c-0.7,0-0.8,0.2-1,0.8c-0.2,0.7-0.1,1.4-0.1,2.1c0,0.3-0.1,0.4-0.4,0.4c-0.7,0-0.7,0-0.7-0.7c0-1,0-2.1,0-3.1
			c0-0.3-0.1-0.5,0.4-0.5c0.3,0,0.8-0.2,0.7,0.5C79,41,79.1,41,79.1,41z"/>
		<path fill="#0A0A0A" d="M82.4,42.7c0,0.6,0,1.2,0,1.8c0,0.3-0.1,0.4-0.4,0.4c-0.2,0-0.3,0-0.5,0s-0.3-0.1-0.3-0.3
			c0-1.2,0-2.5,0-3.7c0-0.3,0.1-0.3,0.3-0.3c0,0,0,0,0.1,0c0.8,0,0.8,0,0.8,0.7C82.4,41.7,82.4,42.2,82.4,42.7z"/>
		<path fill="#0A0A0A" d="M63.4,30.3c-0.2,0-0.4,0-0.7,0c-0.2,0-0.4,0.1-0.4-0.2c0-0.2-0.2-0.5,0.2-0.5c0.2,0,0.1-0.1,0.1-0.2
			c-0.1-0.7,0.2-1.1,1-1.1c0.1,0,0.3,0,0.4,0c0.2,0,0.4,0,0.3,0.3c0,0.2,0,0.5-0.4,0.4c-0.2,0-0.5-0.1-0.5,0.2
			c0,0.3,0.2,0.4,0.5,0.4c0.2,0,0.5,0,0.5,0.4c0,0.3-0.1,0.4-0.3,0.4C63.9,30.3,63.6,30.3,63.4,30.3L63.4,30.3z"/>
		<path fill="#0A0A0A" d="M39.4,27.7c-0.1,0-0.2,0-0.3,0s-0.4,0.1-0.4-0.1s-0.1-0.4,0.2-0.4c0.2,0,0.1-0.2,0-0.3
			c0-0.3,0.1-0.5,0.3-0.7c0.3-0.2,0.6-0.2,0.9-0.1c0.2,0,0.1,0.2,0.1,0.3c0,0.1-0.1,0.3-0.2,0.3c-0.2,0-0.4,0-0.4,0.2
			s0.2,0.3,0.4,0.3c0.3,0,0.3,0.1,0.3,0.4s-0.2,0.2-0.3,0.2C39.8,27.7,39.6,27.7,39.4,27.7z"/>
		<path fill="#0A0A0A" d="M81.8,38.6c0.6-0.2,0.5,0.2,0.5,0.6c0.1,0.6-0.2,0.5-0.6,0.5c-0.6,0.1-0.5-0.2-0.5-0.6
			C81.1,38.6,81.4,38.6,81.8,38.6z"/>
		<path fill="#0A0A0A" d="M70.3,35.7c-0.3,0-0.5-0.2-0.5-0.6c0-0.3,0.2-0.5,0.6-0.5c0.3,0,0.5,0.2,0.5,0.5
			C70.9,35.5,70.7,35.7,70.3,35.7z"/>
		<path fill="#0A0A0A" d="M31.9,35.2c0,0.3-0.2,0.5-0.6,0.5c-0.3,0-0.5-0.2-0.5-0.5s0.2-0.6,0.5-0.6C31.7,34.6,31.9,34.8,31.9,35.2z
			"/>
		<path fill="#0A0A0A" d="M44.7,29.2c-0.1,0.3-0.2,0.5-0.6,0.5c-0.3,0-0.5-0.2-0.5-0.5s0.2-0.6,0.5-0.6S44.6,28.9,44.7,29.2z"/>
		<path fill="#0A0A0A" d="M30.2,34.6c0.3,0.1,0.5,0.2,0.5,0.5s-0.2,0.6-0.5,0.6s-0.6-0.2-0.5-0.6C29.6,34.8,29.9,34.6,30.2,34.6z"/>
		<path fill="#0A0A0A" d="M54.9,28.4c0.3,0.1,0.6,0.2,0.6,0.6c0,0.3-0.2,0.5-0.6,0.5c-0.3,0-0.5-0.2-0.5-0.5S54.6,28.5,54.9,28.4z"
			/>
		<path fill="#0A0A0A" d="M72.1,35.2c0,0.3-0.2,0.5-0.5,0.5S71,35.5,71,35.2c0-0.4,0.2-0.5,0.6-0.5C71.9,34.6,72,34.8,72.1,35.2z"/>
		<path fill="#0A0A0A" d="M56.7,29c-0.1,0.3-0.2,0.6-0.6,0.6c-0.3,0-0.5-0.2-0.5-0.6c0-0.3,0.2-0.5,0.5-0.5
			C56.5,28.4,56.7,28.7,56.7,29z"/>
		<path fill="#0A0A0A" d="M42.9,28.7c0.3,0.1,0.6,0.2,0.6,0.6c0,0.3-0.2,0.5-0.5,0.5c-0.4,0-0.5-0.2-0.6-0.5
			C42.4,28.9,42.6,28.7,42.9,28.7z"/>
		<path fill="#0A0A0A" d="M24.5,30.6c-0.3,0-0.5-0.2-0.5-0.5s0.2-0.5,0.5-0.5s0.5,0.2,0.5,0.5C25,30.3,24.9,30.6,24.5,30.6z"/>
		<path fill="#379346" d="M104.2,29.7c0-3.1,0.4-6.2,1.2-9.2c0.1-0.5,0.3-0.7,0.9-0.8c5-1,10-0.9,15,0.2c3.1,0.7,6,1.8,8.8,3.4
			c0.3,0.2,0.4,0.3,0.4,0.7c-0.1,1.9-0.3,3.8-0.6,5.7c-0.1,0.3-0.1,0.4-0.4,0.2c-3.5-2.7-7.5-3.7-11.8-3.5c-2.7,0.1-5.2,0.8-7.4,2.4
			c-1.3,1-2.4,2.2-3.3,3.6c-0.6,0.9-1.3,1.6-2.1,2.3c-0.1,0.1-0.1,0.2-0.2,0.2s-0.1-0.2-0.1-0.3C104.3,32.9,104.2,31.3,104.2,29.7z"
			/>
		<path fill="#CF202E" d="M110.7,51.8c-0.7-0.3-1.2-0.9-1.8-1.4c-5.4-4.5-9.2-10.1-11.4-16.8c-1-3.2-1.5-6.5-1.6-9.8
			c0-0.3,0.1-0.4,0.3-0.6c2.5-1.4,5.1-2.4,7.8-3.2c0.3-0.1,0.4,0,0.3,0.3c-1,3.7-1.4,7.4-1.2,11.2c0.1,1.3,0.2,2.7,0.5,4
			c0.1,0.3,0,0.5-0.2,0.8c-1.4,1.9-0.8,4.7,1,5.8l0,0c0.9,0.1,1.2,0.9,1.5,1.6c0.9,2.2,2.1,4.3,3.4,6.3
			C109.9,50.7,110.4,51.2,110.7,51.8z"/>
		<path fill="#0A0A0A" d="M107.5,40.8c3,0,5.8,0.6,8.3,2.4c1.8,1.3,2.9,3.1,3.3,5.2c0.1,0.3,0,0.6-0.3,0.8c-1.6,1.4-3.3,2.7-5.1,3.8
			c-0.3,0.2-0.4,0.1-0.6-0.1c-3.1-3.5-5.4-7.4-7-11.8c-0.1-0.3-0.1-0.4,0.3-0.4C106.8,40.9,107.2,40.8,107.5,40.8z"/>
		<path fill="#0A0A0A" d="M116.9,32.9c0.4,0.6,0.7,1.3,0.5,2c-0.3,1.3-1.5,2.1-3,1.9c-1.2-0.2-2.1-1.3-2.1-2.5
			c0-0.3,0.4-0.6,0.1-0.8c-0.2-0.1-0.6-0.1-0.9-0.1c-0.1,0-0.2-0.1-0.4-0.1c-0.2,0-0.5,0-0.5-0.3c0-0.2,0.3-0.3,0.5-0.4
			c1.1-0.5,2.2-0.7,3.4-0.8c1.5-0.1,3-0.1,4.5,0.3c0.3,0.1,0.8,0.1,0.8,0.5c0,0.3-0.5,0.2-0.8,0.2C118.4,32.8,117.7,32.8,116.9,32.9
			z M114.9,33.7c0.3,0,0.5,0,0.8-0.1c0.2-0.1,0.3-0.2,0.3-0.4s-0.1-0.3-0.3-0.4c-0.6-0.3-1.2-0.3-1.7,0c-0.3,0.2-0.3,0.4,0,0.6
			C114.3,33.7,114.6,33.7,114.9,33.7z"/>
		<path fill="#0A0A0A" d="M105.7,39.5c0.6-0.8,1.8-1.2,2.6-0.9c0.1,0.1,0.3,0.1,0.4,0.2c0.1,0.1,0.2,0.2,0.2,0.3
			c-0.1,0.1-0.2,0.1-0.3,0.1c-0.6,0.1-1.3-0.2-1.9,0C106.3,39.4,106.1,39.6,105.7,39.5z"/>
		<path fill="#0A0A0A" d="M106.7,36.6c0.3-0.7,0.8-1,1.4-0.9c0.4,0,0.4,0.2,0.3,0.5s-0.4,0.4-0.7,0.5
			C107.3,36.6,107,36.6,106.7,36.6z"/>
		<path fill="#0A0A0A" d="M125.9,29C125.9,29,125.8,29,125.9,29C125.8,28.9,125.9,29,125.9,29L125.9,29z"/>
	</g>
</g>
</svg>
