<?xml version="1.0" encoding="utf-8"?>
<!-- Generator: Adobe Illustrator 24.0.1, SVG Export Plug-In . SVG Version: 6.00 Build 0)  -->
<svg version="1.1" id="Layer_1" xmlns="http://www.w3.org/2000/svg" xmlns:xlink="http://www.w3.org/1999/xlink" x="0px" y="0px"
	 viewBox="0 0 530 140" enable-background="new 0 0 530 140" xml:space="preserve">
<g>
	<path fill="#878C90" d="M474.64,127.52c0,1.42,0.3,2.71,0.91,3.86c0.6,1.16,1.46,2.07,2.57,2.72l0.05,0.05
		c1,0.66,2.18,0.99,3.53,0.99c1.28,0,2.46-0.33,3.53-0.99c1.07-0.66,1.92-1.57,2.54-2.75c0.62-1.21,0.93-2.51,0.93-3.89
		c0-1.35-0.31-2.6-0.93-3.76c-0.62-1.16-1.47-2.07-2.54-2.72c-1.07-0.66-2.25-0.99-3.53-0.99c-1.24,0-2.4,0.33-3.47,0.99
		c-1.07,0.66-1.94,1.57-2.59,2.75C474.96,124.96,474.64,126.21,474.64,127.52 M470.85,127.52c0-2.01,0.48-3.87,1.43-5.6
		c0.95-1.73,2.27-3.09,3.97-4.1c1.62-1,3.44-1.5,5.45-1.5c1.9,0,3.69,0.5,5.37,1.5c1.68,1,3.02,2.37,4.02,4.1
		c0.97,1.83,1.45,3.7,1.45,5.6c0,2.01-0.48,3.89-1.45,5.65c-0.97,1.76-2.28,3.15-3.94,4.15c-1.63,1-3.44,1.5-5.45,1.5
		c-2.01,0-3.82-0.49-5.45-1.48c-1.63-0.99-2.94-2.38-3.94-4.18C471.33,131.45,470.85,129.56,470.85,127.52z"/>
	<path fill="#878C90" d="M495.44,117.88c0-0.41,0.16-0.77,0.47-1.06c0.31-0.29,0.67-0.44,1.09-0.44h0.73c0.86,0,1.35,0.43,1.45,1.3
		v0.57c0.9-0.59,1.97-1.05,3.22-1.37c1.24-0.33,2.46-0.49,3.63-0.49c3.11,0,5.41,0.93,6.9,2.8c0.97-0.9,2.08-1.61,3.35-2.13
		c1.26-0.52,2.55-0.78,3.86-0.78c2.84,0,5.01,0.87,6.51,2.62c1.5,1.75,2.26,4.24,2.26,7.49v10.89c0,0.41-0.16,0.77-0.47,1.06
		c-0.31,0.29-0.66,0.44-1.04,0.44h-0.99c-0.41,0-0.75-0.14-1.01-0.41c-0.26-0.28-0.39-0.64-0.39-1.09v-10.89
		c0-4.18-1.68-6.28-5.03-6.28c-2.01,0-3.82,0.83-5.45,2.49c0.24,1,0.36,2.2,0.36,3.58v11.1c0,0.41-0.16,0.77-0.47,1.06
		c-0.31,0.29-0.66,0.44-1.04,0.44h-0.93c-0.41,0-0.77-0.16-1.06-0.47c-0.29-0.31-0.44-0.66-0.44-1.04v-11.1
		c0-2.01-0.41-3.49-1.22-4.46c-0.81-0.97-2.08-1.45-3.81-1.45c-0.97,0-1.95,0.16-2.96,0.49c-1,0.33-1.9,0.79-2.7,1.37
		c-0.14,0.07-0.45,0.29-0.93,0.67v14.47c0,0.48-0.13,0.86-0.39,1.11c-0.26,0.26-0.63,0.39-1.12,0.39h-0.99
		c-0.38,0-0.71-0.15-0.99-0.44c-0.28-0.29-0.41-0.65-0.41-1.06V117.88z"/>
	<path fill="#878C90" d="M447.56,127.37c0-2.11,0.51-4.05,1.53-5.84c1.02-1.78,2.43-3.17,4.23-4.18c1.73-1,3.63-1.5,5.71-1.5
		c3.53,0,6.26,1.18,8.19,3.53c0.21,0.35,0.31,0.66,0.31,0.93c0,0.17-0.05,0.36-0.16,0.57c-0.1,0.21-0.22,0.38-0.36,0.52l-0.47,0.47
		c-0.24,0.31-0.59,0.47-1.04,0.47c-0.48,0-0.88-0.19-1.19-0.57c-0.8-0.8-1.58-1.34-2.36-1.63c-0.78-0.29-1.75-0.44-2.93-0.44
		c-1.38,0-2.64,0.33-3.76,0.99c-1.12,0.66-2.03,1.57-2.72,2.75c-0.69,1.14-1.04,2.44-1.04,3.89c0,1.42,0.33,2.73,0.99,3.94
		c0.66,1.21,1.57,2.14,2.75,2.8c1.14,0.69,2.39,1.04,3.73,1.04c2.28,0,3.98-0.64,5.08-1.92c0.17-0.28,0.43-0.57,0.78-0.88
		c0.14-0.14,0.31-0.26,0.52-0.36c0.21-0.1,0.4-0.16,0.57-0.16c0.41,0,0.74,0.16,0.99,0.47l0.52,0.52c0.31,0.31,0.47,0.67,0.47,1.09
		c0,0.24-0.05,0.47-0.16,0.67l-0.05,0.05c-0.86,1.31-2.07,2.36-3.6,3.14c-1.54,0.78-3.22,1.17-5.06,1.17c-2.01,0-3.9-0.51-5.68-1.53
		c-1.78-1.02-3.19-2.39-4.23-4.12C448.08,131.5,447.56,129.55,447.56,127.37"/>
	<path fill="#878C90" d="M437.66,136.39c0-0.76,0.26-1.39,0.78-1.89c0.52-0.5,1.16-0.75,1.92-0.75c0.76,0,1.39,0.25,1.89,0.75
		c0.5,0.5,0.75,1.13,0.75,1.89c0,0.73-0.26,1.35-0.78,1.87c-0.52,0.52-1.14,0.78-1.87,0.78c-0.73,0-1.36-0.26-1.89-0.78
		C437.92,137.74,437.66,137.12,437.66,136.39"/>
	<g>
		<path fill="#878C90" d="M383.89,104.99c0,4.27,0.91,8.15,2.73,11.63c1.82,3.49,4.4,6.22,7.73,8.2l0.16,0.16
			c3.02,1.98,6.56,2.97,10.62,2.97c3.85,0,7.39-0.99,10.62-2.97c3.23-1.98,5.78-4.74,7.65-8.28c1.87-3.64,2.81-7.55,2.81-11.71
			c0-4.06-0.94-7.83-2.81-11.32c-1.87-3.49-4.42-6.22-7.65-8.2c-3.23-1.98-6.77-2.97-10.62-2.97c-3.75,0-7.24,0.99-10.46,2.97
			c-3.23,1.98-5.83,4.74-7.81,8.28C384.88,97.29,383.89,101.03,383.89,104.99 M372.49,104.99c0-6.04,1.43-11.66,4.29-16.87
			c2.86-5.21,6.85-9.32,11.95-12.34c4.89-3.02,10.36-4.53,16.4-4.53c5.73,0,11.11,1.51,16.16,4.53c5.05,3.02,9.08,7.13,12.1,12.34
			c2.92,5.52,4.37,11.14,4.37,16.87c0,6.04-1.46,11.71-4.37,17.02c-2.91,5.31-6.87,9.47-11.87,12.49
			c-4.89,3.02-10.36,4.53-16.4,4.53c-6.04,0-11.5-1.48-16.4-4.45c-4.89-2.97-8.85-7.16-11.87-12.57
			C373.94,116.81,372.49,111.13,372.49,104.99z"/>
		<path fill="#134980" d="M266.46,75.8c0-1.26,0.47-2.33,1.41-3.22c0.94-0.89,1.99-1.33,3.14-1.33h2.51c1.15,0,2.14,0.37,2.98,1.1
			c0.84,0.73,1.31,1.73,1.41,2.98v0.78c2.2-1.46,4.81-2.64,7.85-3.53c3.03-0.89,6.12-1.33,9.26-1.33c3.66,0,7.22,0.68,10.67,2.04
			h-0.16c1.15,0.42,2.04,1.02,2.67,1.8c0.63,0.78,0.94,1.7,0.94,2.75c0,0.21-0.1,0.73-0.31,1.57l-1.26,3.14
			c-0.31,0.84-0.78,1.52-1.41,2.04c-0.63,0.52-1.36,0.78-2.2,0.78c-0.84,0-2.35-0.58-4.55-1.73l0.16,0.16
			c-1.26-0.52-2.93-0.78-5.02-0.78c-2.82,0-5.47,0.44-7.92,1.33s-4.52,2.17-6.2,3.84v0.16c-1.05,0.94-1.73,1.62-2.04,2.04v44.09
			c0,1.46-0.39,2.59-1.18,3.37c-0.78,0.78-1.91,1.18-3.37,1.18h-3.14c-1.15,0-2.14-0.44-2.98-1.33c-0.84-0.89-1.26-1.96-1.26-3.22
			V75.8z"/>
		<path fill="#134980" d="M257.36,134.49c0,1.26-0.47,2.33-1.41,3.22c-0.94,0.89-2.04,1.33-3.3,1.33h-2.2
			c-2.62,0-4.08-1.31-4.39-3.92v-1.73c-2.72,1.78-5.96,3.16-9.73,4.16c-3.77,0.99-7.43,1.49-10.98,1.49
			c-8.79,0-15.46-2.51-20.01-7.53c-4.55-5.02-6.83-12.4-6.83-22.12V75.8c0-1.26,0.47-2.33,1.41-3.22c0.94-0.89,1.99-1.33,3.14-1.33
			h2.82c1.26,0,2.33,0.47,3.22,1.41c0.89,0.94,1.33,1.99,1.33,3.14v33.58c0,6.07,1.23,10.57,3.69,13.49
			c2.46,2.93,6.3,4.39,11.53,4.39c2.93,0,5.94-0.5,9.02-1.49c3.09-0.99,5.83-2.38,8.24-4.16c1.46-1.05,2.35-1.73,2.67-2.04V75.8
			c0-1.46,0.42-2.59,1.26-3.37c0.84-0.78,1.94-1.18,3.3-1.18h2.98c1.15,0,2.14,0.44,2.98,1.33c0.84,0.89,1.26,1.96,1.26,3.22V134.49
			z"/>
		<path fill="#134980" d="M142.33,131.84c-1.1-0.9-1.65-2.05-1.65-3.45c0-0.6,0.15-1.2,0.45-1.8l1.65-2.55c0.9-1.2,2-1.8,3.3-1.8
			c0.8,0,1.6,0.25,2.4,0.75c4.5,3.8,10,5.7,16.5,5.7c3.4,0,6.25-0.8,8.55-2.4c2.3-1.6,3.45-3.55,3.45-5.85c0-1.2-0.2-2.22-0.6-3.07
			c-0.4-0.85-1.1-1.67-2.1-2.47l0.15,0.15c-2.3-1.6-6.5-3.55-12.6-5.85c-7-2.4-12.1-5.17-15.3-8.32c-3.2-3.15-4.8-7.02-4.8-11.62
			c0-3,0.9-5.87,2.7-8.62c1.8-2.75,4.25-4.97,7.35-6.67c3.2-1.8,7.2-2.7,12-2.7c7.8,0,14.35,1.7,19.64,5.1
			c1.4,0.8,2.1,2.05,2.1,3.75c0,0.6-0.07,1.07-0.22,1.42c-0.15,0.35-0.22,0.57-0.22,0.67l-1.05,1.95c-0.9,1.5-2.2,2.25-3.9,2.25
			c-0.8,0-1.6-0.25-2.4-0.75c-1.4-1.1-3.4-2-6-2.7c-2.6-0.7-5.25-1.05-7.95-1.05c-3.1,0-5.62,0.67-7.57,2.02
			c-1.95,1.35-2.92,3.07-2.92,5.17c0,2,0.9,3.7,2.7,5.1c1.8,1.4,5.15,2.95,10.05,4.65c6.1,2.2,10.45,4.05,13.05,5.55
			c2.6,1.5,4.7,3.35,6.3,5.55c2.2,2.6,3.3,5.95,3.3,10.05c0,3.4-1.05,6.6-3.15,9.6c-2.1,3-5,5.35-8.7,7.05
			c-3.6,1.6-7.55,2.4-11.85,2.4c-4.4,0-8.42-0.57-12.07-1.72C149.25,136.16,145.73,134.34,142.33,131.84"/>
		<path fill="#134980" d="M71.9,75.8c0-1.26,0.47-2.33,1.41-3.22c0.94-0.89,2.04-1.33,3.3-1.33h2.2c2.62,0,4.08,1.31,4.39,3.92v1.73
			c2.72-1.78,5.96-3.16,9.73-4.16c3.77-0.99,7.43-1.49,10.98-1.49c8.79,0,15.46,2.51,20.01,7.53c4.55,5.02,6.83,12.4,6.83,22.12
			v33.58c0,1.26-0.47,2.33-1.41,3.22c-0.94,0.89-1.99,1.33-3.14,1.33h-2.82c-1.26,0-2.33-0.47-3.22-1.41
			c-0.89-0.94-1.33-1.99-1.33-3.14v-33.58c0-6.07-1.23-10.57-3.69-13.49c-2.46-2.93-6.3-4.39-11.53-4.39c-2.93,0-5.91,0.5-8.94,1.49
			c-3.03,0.99-5.75,2.38-8.16,4.16c-0.42,0.21-1.36,0.89-2.82,2.04v43.78c0,1.46-0.39,2.59-1.18,3.37
			c-0.78,0.78-1.91,1.18-3.37,1.18h-2.98c-1.15,0-2.14-0.44-2.98-1.33c-0.84-0.89-1.26-1.96-1.26-3.22V75.8z"/>
		<path fill="#134980" d="M49.62,75.8c0-1.26,0.47-2.33,1.41-3.22c0.94-0.89,1.99-1.33,3.14-1.33h2.82c1.26,0,2.33,0.47,3.22,1.41
			c0.89,0.94,1.33,1.99,1.33,3.14v58.68c0,1.46-0.39,2.59-1.18,3.37c-0.78,0.78-1.91,1.18-3.37,1.18h-3.14
			c-1.15,0-2.14-0.44-2.98-1.33c-0.84-0.89-1.26-1.96-1.26-3.22V75.8z"/>
		<path fill="#878C90" d="M309.52,105.15c0-6.21,1.5-11.93,4.5-17.17c3-5.24,7.15-9.34,12.44-12.29c5.09-2.95,10.69-4.43,16.79-4.43
			c10.38,0,18.42,3.46,24.12,10.38c0.61,1.02,0.92,1.93,0.92,2.75c0,0.51-0.15,1.07-0.46,1.68c-0.3,0.61-0.66,1.12-1.07,1.53
			l-1.37,1.37c-0.71,0.92-1.73,1.37-3.05,1.37c-1.42,0-2.6-0.56-3.51-1.68c-2.34-2.34-4.66-3.94-6.95-4.81
			c-2.29-0.87-5.16-1.3-8.62-1.3c-4.07,0-7.76,0.97-11.07,2.9c-3.31,1.93-5.98,4.63-8.01,8.09c-2.04,3.36-3.05,7.17-3.05,11.45
			c0,4.17,0.97,8.04,2.9,11.6c1.93,3.56,4.63,6.31,8.09,8.24c3.36,2.04,7.02,3.05,10.99,3.05c6.72,0,11.7-1.88,14.96-5.65
			c0.51-0.81,1.27-1.68,2.29-2.6c0.41-0.41,0.92-0.76,1.53-1.07c0.61-0.31,1.17-0.46,1.68-0.46c1.22,0,2.19,0.46,2.9,1.37l1.53,1.53
			c0.92,0.92,1.37,1.98,1.37,3.21c0,0.71-0.15,1.37-0.46,1.98l-0.15,0.15c-2.54,3.87-6.08,6.95-10.61,9.24
			c-4.53,2.29-9.49,3.43-14.88,3.43c-5.9,0-11.47-1.5-16.72-4.5c-5.24-3-9.39-7.05-12.44-12.14
			C311.05,117.31,309.52,111.56,309.52,105.15"/>
		<path fill="#2C71AE" d="M55.59,9.97c-28.49,0-51.84,21.85-54.28,49.7c4.33-5.39,10.89-8.92,18.31-8.92
			c7.17,0,13.59,3.2,17.95,8.25C37.19,57.12,30.38,20.67,55.59,9.97"/>
		<path fill="#2C71AE" d="M55.59,9.97L55.59,9.97c25.88,10.98,17.98,49.21,17.98,49.21c4.29-5.19,10.76-8.43,17.98-8.43
			c7.45,0,13.99,3.51,18.31,8.89C107.4,31.81,84.06,9.97,55.59,9.97"/>
		<path fill="#134980" d="M55.59,9.97C30.38,20.67,37.19,57.12,37.57,59c0.03,0.04,0.08,0.06,0.11,0.1
			c4.22-5.11,10.69-8.35,17.91-8.35c7.22,0,13.69,3.24,17.98,8.43C73.57,59.19,81.46,20.95,55.59,9.97"/>
		<path fill-rule="evenodd" clip-rule="evenodd" fill="#2C71AE" d="M55.58,6.51c1.91,0,3.59,0.99,4.55,2.48
			c-1.49-0.2-3.01-0.31-4.55-0.31c-1.54,0-3.06,0.11-4.55,0.31C51.99,7.5,53.67,6.51,55.58,6.51"/>
	</g>
</g>
</svg>
