<?xml version="1.0" encoding="utf-8"?>
<!-- Generator: Adobe Illustrator 24.3.0, SVG Export Plug-In . SVG Version: 6.00 Build 0)  -->
<svg version="1.1" id="Layer_1" xmlns="http://www.w3.org/2000/svg" xmlns:xlink="http://www.w3.org/1999/xlink" x="0px" y="0px"
	 viewBox="0 0 40 40" enable-background="new 0 0 40 40" xml:space="preserve">
<g id="Layer_2_1_">
	<g id="Layer_1-2">
		<circle fill="#2371AF" cx="20" cy="20" r="20"/>
		<path fill="#FFFFFF" d="M25.49,14.51c-3.04-3.02-7.95-3.01-10.97,0.03s-3.01,7.95,0.03,10.97c3.03,3.01,7.92,3.01,10.95,0
			c3.04-3.03,3.04-7.95,0.01-10.99C25.5,14.52,25.49,14.51,25.49,14.51z M25.16,24.38c-0.36-0.32-0.75-0.61-1.16-0.86
			c0.28-0.98,0.43-1.98,0.47-3h2.28c-0.1,1.43-0.65,2.8-1.59,3.89V24.38z M13.25,20.49h2.28c0.04,1.02,0.19,2.02,0.47,3
			c-0.41,0.25-0.8,0.54-1.16,0.86C13.91,23.27,13.35,21.91,13.25,20.49z M14.84,15.62c0.36,0.32,0.75,0.61,1.16,0.86
			c-0.28,0.98-0.43,1.98-0.47,3h-2.28C13.35,18.06,13.91,16.7,14.84,15.62z M19.51,16.62c-0.8-0.07-1.58-0.28-2.31-0.62
			c0.42-1.08,1.19-2.38,2.31-2.7V16.62z M19.51,17.62v1.94h-3c0.03-0.87,0.15-1.73,0.37-2.57c0.84,0.35,1.73,0.54,2.63,0.58V17.62z
			 M19.51,20.54v1.94c-0.9,0.06-1.79,0.27-2.62,0.63c-0.22-0.84-0.34-1.7-0.37-2.57H19.51z M19.51,23.47v3.23
			c-1.12-0.32-1.89-1.62-2.31-2.7c0.73-0.32,1.51-0.52,2.31-0.58V23.47z M20.51,23.47c0.79,0.05,1.56,0.23,2.29,0.53
			c-0.42,1.08-1.19,2.38-2.31,2.7L20.51,23.47z M20.51,22.47v-1.98h3c-0.03,0.87-0.15,1.73-0.37,2.57
			c-0.83-0.36-1.72-0.57-2.62-0.63L20.51,22.47z M20.51,19.55v-1.98c0.9-0.06,1.79-0.27,2.62-0.63c0.22,0.84,0.34,1.7,0.37,2.57
			L20.51,19.55z M20.51,16.62V13.3c1.12,0.32,1.89,1.62,2.31,2.7c-0.74,0.33-1.53,0.52-2.33,0.58L20.51,16.62z M22.74,13.83
			c0.64,0.28,1.23,0.66,1.75,1.12c-0.25,0.23-0.52,0.43-0.8,0.61c-0.24-0.63-0.57-1.23-0.97-1.77L22.74,13.83z M16.35,15.56
			c-0.28-0.18-0.55-0.38-0.8-0.61c0.52-0.46,1.11-0.84,1.75-1.12c-0.41,0.53-0.75,1.11-1,1.73H16.35z M16.35,24.56
			c0.25,0.62,0.59,1.2,1,1.73c-0.64-0.28-1.23-0.66-1.75-1.12c0.22-0.25,0.47-0.48,0.73-0.69L16.35,24.56z M23.69,24.56
			c0.28,0.18,0.55,0.38,0.8,0.61c-0.52,0.46-1.11,0.84-1.75,1.12c0.41-0.53,0.75-1.11,1-1.73L23.69,24.56z M24.49,19.56
			c-0.04-1.02-0.19-2.02-0.47-3c0.41-0.25,0.8-0.54,1.16-0.86c0.94,1.09,1.49,2.46,1.59,3.89L24.49,19.56z"/>
	</g>
</g>
</svg>
