<?xml version="1.0" encoding="utf-8"?>
<!-- Generator: Adobe Illustrator 24.3.0, SVG Export Plug-In . SVG Version: 6.00 Build 0)  -->
<svg version="1.1" id="Layer_1" xmlns="http://www.w3.org/2000/svg" xmlns:xlink="http://www.w3.org/1999/xlink" x="0px" y="0px"
	 viewBox="0 0 84.52 84.52" enable-background="new 0 0 84.52 84.52" xml:space="preserve">
<g id="Layer_2_1_">
	<g id="Layer_1-2">
		<circle fill="#0e4981" cx="42.26" cy="42.26" r="42.26"/>
		<rect x="44.47" y="57.59" fill="none" stroke="#FFFFFF" stroke-linejoin="round" width="9" height="6.55"/>
		<path fill="none" stroke="#FFFFFF" stroke-linejoin="round" d="M55.72,47.53c0,0,2.68-2.83,3.37-4.89
			c0.13-0.37,0.54-0.56,0.91-0.43c0.14,0.05,0.26,0.14,0.34,0.26c0.64,1,0.92,3.22-1.44,8c-0.32,0.65-0.74,1.26-1.24,1.79l-5,5.33
			h-6.82V55c0-1.49,0.65-2.9,1.78-3.86c1.59-1.29,3.29-2.43,5.08-3.43c0.66-0.4,1.43-0.57,2.2-0.48c1.25,0.18,2.16,1.15-2.8,5.22"/>
		<rect x="46.72" y="60.52" fill="#FFFFFF" width="1.24" height="1.24"/>
		<rect x="29.37" y="57.59" fill="none" stroke="#FFFFFF" stroke-linejoin="round" width="9" height="6.55"/>
		<path fill="none" stroke="#FFFFFF" stroke-linejoin="round" d="M27.11,47.53c0,0-2.68-2.83-3.37-4.89
			c-0.13-0.37-0.54-0.56-0.91-0.43c-0.14,0.05-0.26,0.14-0.34,0.26c-0.64,1-0.92,3.22,1.44,8c0.32,0.65,0.74,1.26,1.24,1.79l5,5.33
			H37V55c0-1.49-0.65-2.9-1.78-3.86c-1.59-1.29-3.29-2.43-5.08-3.43c-0.66-0.4-1.43-0.57-2.2-0.48c-1.25,0.18-2.16,1.15,2.8,5.22"/>
		<rect x="34.88" y="60.52" fill="#FFFFFF" width="1.24" height="1.24"/>
		<path fill="none" stroke="#FFFFFF" stroke-miterlimit="10" d="M41.42,52.25L29.71,40.81c-3.01-2.86-4.02-7.25-2.55-11.14
			c3.52-8.79,14.26-0.16,14.26-0.16s10.73-8.63,14.25,0.16c1.47,3.89,0.46,8.28-2.55,11.14l-11.67,11.4L41.42,52.25z"/>
		<polyline fill="none" stroke="#FFFFFF" stroke-miterlimit="10" points="23.24,37.83 32.56,37.83 34.59,33.52 36.48,41.48 
			37.26,37.5 39.54,37.5 40,40.04 41.7,37.5 44.83,37.5 45.84,31.96 47.63,42.17 49.78,35.15 51.35,39.65 52.72,37.06 60.79,37.06 
					"/>
	</g>
</g>
</svg>
