<?xml version="1.0" encoding="utf-8"?>
<!-- Generator: Adobe Illustrator 24.3.0, SVG Export Plug-In . SVG Version: 6.00 Build 0)  -->
<svg version="1.1" id="Layer_1" xmlns="http://www.w3.org/2000/svg" xmlns:xlink="http://www.w3.org/1999/xlink" x="0px" y="0px"
	 viewBox="0 0 426.2 357.74" enable-background="new 0 0 426.2 357.74" xml:space="preserve">
<g id="Layer_2_1_">
	<g id="Layer_1-2">
		<path fill="#84CECB" d="M344.96,199.66l77.27,38.86c3.09,1.55,4.33,5.32,2.78,8.41l-42.9,85.3c-1.55,3.09-5.32,4.33-8.41,2.78
			l-77.27-38.86c-3.09-1.55-4.33-5.32-2.78-8.41l42.9-85.3C338.11,199.35,341.88,198.11,344.96,199.66z"/>
		<g>
			<defs>
				<path id="SVGID_1_" d="M344.96,199.66l77.27,38.86c3.09,1.55,4.33,5.32,2.78,8.41l-42.9,85.3c-1.55,3.09-5.32,4.33-8.41,2.78
					l-77.27-38.86c-3.09-1.55-4.33-5.32-2.78-8.41l42.9-85.3C338.11,199.35,341.88,198.11,344.96,199.66z"/>
			</defs>
			<clipPath id="SVGID_2_">
				<use xlink:href="#SVGID_1_"  overflow="visible"/>
			</clipPath>
			<g clip-path="url(#SVGID_2_)">
				<path fill="#5AB2B3" d="M323.56,215.91c-1,26.13,16,46.75,26.28,69.33c5.18,11.36,8.73,24.29,5.16,36.64
					c-3.36,11.61-11.77,23.32-20.74,31.29c-5.74,5.1,2.7,13.49,8.42,8.42c9.67-8.81,17.24-19.68,22.15-31.81
					c5-12.6,4.16-26.32-0.07-39c-8.38-25.2-30.4-47.07-29.3-74.87c0.31-7.66-11.6-7.65-11.91,0H323.56z"/>
				<path fill="#5AB2B3" d="M325.09,241.9c-7.27,8.54-8.67,19.86-14,29.48c-6.27,11.28-13.5,22.1-20.27,33.07
					c-4,6.54,6.25,12.53,10.28,6c6.47-10.48,13.22-20.83,19.37-31.5c2.61-4.49,4.8-9.21,6.52-14.11c1.75-5,3-10.4,6.53-14.53
					c4.94-5.81-3.45-14.27-8.42-8.42L325.09,241.9z"/>
				<path fill="#5AB2B3" d="M320,258.46c-6,16.15-11.84,32.38-14.72,49.42l11.48,3.16c2.26-15.98,5.64-31.78,10.14-47.28
					l-10.88,1.42c6.61,13.35,2.73,29.43,8,43.32c2.39,6.32,11.1,5.26,11.69-1.59c1.29-15.02,2.02-30.07,2.19-45.15l-11.69,1.58
					c2.45,10.28,3.29,20.87,2.49,31.41c-0.47,6.62,10.49,8.21,11.7,1.58c1.84-9.81,2.28-19.82,1.33-29.75l-11.69,1.59
					c2.48,7.06,4.1,14.4,4.84,21.85l11.69-1.59c-2.21-15.62-7.66-30.61-16-44c-3.42-5.5-13.17-2-10.88,4.59
					c7.96,22.98,16.51,45.74,25.64,68.28c2.55,6.32,10.91,5.25,11.69-1.58c0.96-8.62,0.31-17.35-1.92-25.73
					c-1.48-5.69-10-5.65-11.48,0c-1.31,4.91-0.9,9.71,0.2,14.62c1,4.62,3,9.43,1.94,14.21h11.48c-4.92-17.35-2.67-35.88-8.73-53
					c-1.74-4.9-10.56-6.37-11.49,0c-2.12,14.25-2.98,28.67-2.56,43.07l11.7-1.58c-4.23-10.78-7.83-21.8-10.78-33
					c-1.65-6.31-12.33-5.26-11.69,1.58c1.25,13.35,4.77,26.15,8.56,39l9.95-5.79c-6.32-5.76-11.84-12.33-16.42-19.55l-10.28,6
					l10.78,15.95l6.72-8.74c-5.53-1.97-10.69-4.87-15.25-8.58l-7.22,9.35c2.16,1.3,4.13,2.88,5.86,4.71l5.79-9.95
					c-5.9-1.51-11.42-4.23-16.21-8l-7.21,9.29c10.74,8,21.38,16.1,30.82,25.64l8.42-8.42c-3.28-2.68-6.07-5.9-8.25-9.52
					c-1-1.71-1.57-4.17-2.7-5.72c-0.52-3.15-2.05-2.36-4.59,2.39c0.46,0.12,0.9,0.33,1.28,0.61c3.1,2.74,7.08,4.57,10.23,7.39
					c3.36,2.98,6.42,6.3,9.12,9.89l9.35-7.21c-7-6.24-13.38-13.14-19.06-20.6l-9.35,7.21c4.29,5.17,7.76,10.95,10.32,17.16
					c2.87,7,14.38,3.94,11.48-3.17L334.9,288.4l-5.1-12.52l-2.91-7.16c-0.87-2.11-2.58-4.79-2.39-7.15l-1.74,4.21
					c-2.5-0.52-3.31-0.22-2.43,0.89c0.4,0.68,0.8,1.36,1.18,2.05c0.59,1.04,1.17,2.08,1.74,3.12c1.65,2.95,3.1,6.01,4.35,9.15
					c2.23,5.88,3.29,11.76,1.57,17.9h11.48c-3-12.99-5.49-26.08-7.47-39.27c-1.13-7.56-12.6-4.35-11.48,3.16
					c2,13.19,4.49,26.28,7.47,39.27c1.35,5.85,9.94,5.49,11.48,0c3-10.59,0.27-20.88-4.27-30.59c-3.29-7-9.13-21.29-19.4-16.21
					c-4.84,2.39-5.11,7.63-3.4,12.17c2.17,5.71,4.62,11.33,6.93,17l13.84,34l11.48-3.17c-3.28-8.11-7.79-15.68-13.37-22.42
					c-4.25-5.15-13.43,1.8-9.35,7.22c6.22,8.32,13.22,16.02,20.92,23c4.72,4.24,13.61-1.51,9.35-7.22
					c-4.53-6.21-9.92-11.74-16-16.43c-4.44-3.38-10.78-8.68-16.88-7c-15.61,4.29,3.24,27.85,9.12,32.83s13.89-2.89,8.42-8.42
					c-10.15-10.25-21.69-18.9-33.23-27.5c-5.37-4-12.49,5.12-7.21,9.35c6.29,5.16,13.6,8.93,21.45,11.07
					c5.81,1.57,9.89-5.68,5.8-9.95c-2.45-2.55-5.24-4.75-8.27-6.57c-5.63-3.41-12.55,5-7.21,9.34c6.1,5.05,13.04,8.99,20.5,11.65
					c4.81,1.71,9.57-4.55,6.73-8.75l-10.78-15.95c-4.25-6.29-14.42-0.52-10.28,6c5.1,8.11,11.24,15.51,18.28,22
					c4.23,3.88,11.7,0.13,9.95-5.79c-3.47-11.74-7-23.56-8.13-35.8l-11.7,1.58c2.94,11.2,6.53,22.22,10.77,33
					c2.29,5.82,11.94,5.65,11.7-1.58c-0.5-13.34,0.18-26.71,2.05-39.93h-11.47c6.05,17.09,3.82,35.65,8.74,53
					c1.55,5.44,10.18,5.89,11.48,0c0.97-4.88,0.79-9.91-0.5-14.71c-1.07-4.65-2.92-9.34-1.64-14.12h-11.48
					c1.91,7.36,2.41,15.01,1.49,22.56l11.7-1.59c-9.13-22.53-17.67-45.29-25.64-68.27l-10.88,4.58
					c7.78,12.52,12.83,26.54,14.83,41.15c0.93,6.58,12.33,5.1,11.7-1.58c-0.76-8.51-2.53-16.91-5.27-25c-2-5.93-12.4-5.5-11.69,1.58
					c0.93,8.86,0.63,17.81-0.92,26.59l11.69,1.58c0.8-11.61-0.18-23.27-2.92-34.58c-1.58-6.61-11.62-5.05-11.69,1.59
					c-0.18,15.08-0.91,30.13-2.2,45.15l11.7-1.58c-5.67-15-1.93-31.51-9.19-46.15c-2.35-4.75-9.53-3.24-10.88,1.42
					c-4.5,15.5-7.89,31.3-10.14,47.28c-1,7.42,10.2,10.79,11.48,3.16c2.88-17,8.75-33.26,14.72-49.41
					C334.13,254.43,322.63,251.32,320,258.46L320,258.46z"/>
			</g>
		</g>
		<path fill="#F9C39B" d="M283.02,284.58l-125-40l58-116l13,7l6-51c0,0,0-7.72,12.22-19.1c1.94-1.78,4.96-1.66,6.74,0.28
			c0.5,0.54,0.86,1.19,1.07,1.89c4.61,15.77,16.18,53.38,24.82,65.43c2.01,2.81,3.69,5.86,5,9.06c3.77,9.13,9.81,26,9.12,38.44
			l33,17L283.02,284.58z"/>
		<g>
			<defs>
				<path id="SVGID_3_" d="M283.02,284.58l-125-40l58-116l13,7l6-51c0,0,0-7.72,12.22-19.1c1.94-1.78,4.96-1.66,6.74,0.28
					c0.5,0.54,0.86,1.19,1.07,1.89c4.61,15.77,16.18,53.38,24.82,65.43c2.01,2.81,3.69,5.86,5,9.06c3.77,9.13,9.81,26,9.12,38.44
					l33,17L283.02,284.58z"/>
			</defs>
			<clipPath id="SVGID_4_">
				<use xlink:href="#SVGID_3_"  overflow="visible"/>
			</clipPath>
			<g clip-path="url(#SVGID_4_)">
				<path fill="#EAA18B" d="M91.55,91.58c7.21,54.52,11.96,109.29,14.26,164.3c0.64,15.53,13.23,30.5,29.76,29.76
					c15.58-0.7,30.46-13.1,29.77-29.76c-2.29-54.98-7.04-109.75-14.26-164.3c-1.08-8.27-2.62-15-8.72-21.1
					c-5.16-5.16-13.63-9-21-8.72c-7.7,0.35-15.69,2.88-21,8.72C95.34,75.85,90.55,83.93,91.55,91.58z"/>
				<path fill="#EAA18B" d="M170.99,116.45c0.65,20.49-0.39,41-3.1,61.32l1.06-7.91c-1.85,13.32-4.4,26.54-7.65,39.59
					c-3.75,15.08,4.85,33,20.79,36.61c15.41,3.51,32.59-4.62,36.62-20.79c8.91-35.56,12.88-72.18,11.81-108.82
					c-0.49-15.55-13.33-30.5-29.76-29.77C185.05,87.39,170.47,99.78,170.99,116.45z"/>
				<path fill="#EAA18B" d="M182.23,72.58c-2.57,21.9,9.55,41.28,17.86,60.52l-3-7.11c3.26,7.84,5.51,16.06,6.7,24.46l-1.06-7.91
					c1.14,9,1.1,18.1-0.11,27.09l1.06-7.91c-1.18,7.83-3.27,15.51-6.22,22.86l3-7.11c-4,9.55-9.62,18.44-12.64,28.44
					c-4.22,13.95-2.22,27.66,3.59,40.72c6.88,15.44,20.61,27.09,33.22,37.83c27.68,23.59,57.89,43.8,93,54.52
					c14.83,4.6,33.06-5.4,36.56-20.79c3.67-16.1-4.84-31.74-20.79-36.62c-5.39-1.65-10.69-3.55-15.9-5.7l7.11,3
					c-9.07-3.84-17.84-8.35-26.25-13.48c-4.11-2.5-8.14-5.12-12.09-7.86c-2.1-1.45-4.17-2.94-6.23-4.45c-1.84-1.35-8.51-6.85-1.44-1
					c-7.45-6.15-14.92-12.21-22.09-18.7c-3.53-3.2-6.77-6.59-10.1-10c-3.11-3.19,1.75,2.38,1.7,2.38c-0.32,0-1.58-2.21-1.78-2.52
					c-1.37-2.11-2.55-4.34-3.51-6.66l3,7.11c-0.68-1.85-1.22-3.76-1.59-5.7l1.06,7.91c-0.35-2.63-0.35-5.3,0-7.93l-1.07,7.91
					c0.56-2.81,1.38-5.56,2.46-8.22l-3,7.11c4.89-11.35,11.07-22,14.54-34c6.9-24.08,6.55-49.65-1-73.53
					c-4-11.85-10-22.81-14.87-34.25l3,7.11c-2.16-5.04-3.71-10.32-4.62-15.73l1.06,7.91c-0.38-3.24-0.38-6.5,0-9.74
					c0.83-7-3.92-16.25-8.71-21c-5.17-5.17-13.64-9-21.05-8.72c-7.7,0.34-15.68,2.87-21,8.72c-5.68,6.19-7.74,12.75-8.72,21
					L182.23,72.58z"/>
				<path fill="#EAA18B" d="M211.58,233.08c-15.17-6.82-30.57-13.12-46.29-18.58c-14.72-5.11-33.2,5.82-36.61,20.79
					c-3.78,16.59,5,31.15,20.79,36.62c9.66,3.33,19.2,7,28.63,11l-7.11-3c3.53,1.5,7.04,3.04,10.54,4.61
					c7.52,3.38,14.67,5.28,22.94,3c6.9-1.9,14.38-7.24,17.78-13.68c6.88-13,4.49-33.91-10.67-40.72L211.58,233.08z"/>
				<path fill="#EAA18B" d="M334.71,176.73l-72.55,158.19c-3.42,7.46-5.26,14.73-3,22.94c1.9,6.9,7.24,14.39,13.68,17.79
					c13.09,6.91,33.79,4.43,40.72-10.68l72.55-158.19c3.43-7.47,5.26-14.73,3-22.94c-1.9-6.9-7.24-14.39-13.67-17.79
					C362.34,159.13,341.64,161.62,334.71,176.73L334.71,176.73z"/>
				<path fill="#EAA18B" d="M315.9,196.36c-29.63,42.73-56.58,87.25-80.69,133.32c-7.21,13.78-4,33,10.68,40.72
					c13.71,7.25,33,4.05,40.73-10.68c24.11-46.06,51.06-90.59,80.69-133.31c8.89-12.84,2.78-33.62-10.68-40.73
					C341.44,177.68,325.4,182.68,315.9,196.36L315.9,196.36z"/>
			</g>
		</g>
		<path fill="#F9C39B" d="M73.17,101.83L73.17,101.83c3.04-5.26,9.76-7.06,15.02-4.02l57.16,33c5.26,3.04,7.06,9.76,4.03,15.02l0,0
			c-3.04,5.26-9.76,7.06-15.02,4.02l-57.16-33C71.94,113.82,70.14,107.09,73.17,101.83z"/>
		<g>
			<defs>
				<path id="SVGID_5_" d="M73.17,101.83L73.17,101.83c3.04-5.26,9.76-7.06,15.02-4.02l57.16,33c5.26,3.04,7.06,9.76,4.03,15.02l0,0
					c-3.04,5.26-9.76,7.06-15.02,4.02l-57.16-33C71.94,113.82,70.14,107.09,73.17,101.83z"/>
			</defs>
			<clipPath id="SVGID_6_">
				<use xlink:href="#SVGID_5_"  overflow="visible"/>
			</clipPath>
			<g clip-path="url(#SVGID_6_)">
				<path fill="#EAA18B" d="M99.1,125.07c-0.01-7.87,0.76-15.72,2.28-23.44c1.49-7.48-10-10.68-11.48-3.16
					c-1.77,8.76-2.67,17.67-2.71,26.6C87.19,132.73,99.08,132.74,99.1,125.07z"/>
			</g>
		</g>
		<path fill="#F9C39B" d="M77.17,145.83L77.17,145.83c3.04-5.26,9.76-7.06,15.02-4.02l57.16,33c5.26,3.04,7.06,9.76,4.03,15.02l0,0
			c-3.04,5.26-9.76,7.06-15.02,4.02l-57.16-33C75.94,157.81,74.13,151.09,77.17,145.83z"/>
		<g>
			<defs>
				<path id="SVGID_7_" d="M77.17,145.83L77.17,145.83c3.04-5.26,9.76-7.06,15.02-4.02l57.16,33c5.26,3.04,7.06,9.76,4.03,15.02l0,0
					c-3.04,5.26-9.76,7.06-15.02,4.02l-57.16-33C75.94,157.81,74.13,151.09,77.17,145.83z"/>
			</defs>
			<clipPath id="SVGID_8_">
				<use xlink:href="#SVGID_7_"  overflow="visible"/>
			</clipPath>
			<g clip-path="url(#SVGID_8_)">
				<path fill="#F9C39B" d="M109.15,167.33v4.7c0.41,3.29,3.4,5.63,6.69,5.22c2.73-0.34,4.89-2.49,5.22-5.22v-4.7
					c-0.41-3.29-3.4-5.63-6.69-5.22C111.64,162.45,109.49,164.6,109.15,167.33z"/>
				<path fill="#EAA18B" d="M122.93,182.23c15.57,0,30.49-13.69,29.77-29.77s-13.08-29.76-29.77-29.76
					c-15.57,0-30.48,13.69-29.76,29.76S106.25,182.23,122.93,182.23z"/>
			</g>
		</g>
		<path fill="#F9C39B" d="M96.17,194.82L96.17,194.82c3.04-5.26,9.76-7.06,15.02-4.02l57.16,33c5.26,3.04,7.06,9.76,4.03,15.02l0,0
			c-3.04,5.26-9.76,7.06-15.02,4.02l-57.16-33C94.94,206.81,93.14,200.08,96.17,194.82z"/>
		<g>
			<defs>
				<path id="SVGID_9_" d="M96.17,194.82L96.17,194.82c3.04-5.26,9.76-7.06,15.02-4.02l57.16,33c5.26,3.04,7.06,9.76,4.03,15.02l0,0
					c-3.04,5.26-9.76,7.06-15.02,4.02l-57.16-33C94.94,206.81,93.14,200.08,96.17,194.82z"/>
			</defs>
			<clipPath id="SVGID_10_">
				<use xlink:href="#SVGID_9_"  overflow="visible"/>
			</clipPath>
			<g clip-path="url(#SVGID_10_)">
				<path fill="#F9C39B" d="M156.92,228.36c0,6.63,0.19,13.31-0.05,19.95c-0.22,5.9-4.18,8.92-8.54,12.35
					c-6,4.73,2.46,13.11,8.42,8.42c5.23-4.11,10.21-8.82,11.55-15.63c1.57-8,0.51-17,0.53-25.09
					C168.83,220.7,156.94,220.68,156.92,228.36z"/>
				<path fill="#EAA18B" d="M170.46,211.07l-1.57-3.91c-0.87-3.78-2.7-7.27-5.32-10.12c-2.09-3.23-4.96-5.87-8.36-7.67
					c-3.31-2.14-7.12-3.36-11.06-3.53c-3.93-0.89-8.03-0.71-11.87,0.53l-7.11,3c-4.42,2.59-8.11,6.26-10.71,10.68l-3,7.11
					c-1.42,5.18-1.42,10.64,0,15.82l1.56,3.92c0.87,3.78,2.71,7.26,5.33,10.12c2.08,3.23,4.96,5.87,8.35,7.67
					c3.31,2.14,7.13,3.36,11.07,3.53c3.93,0.88,8.03,0.7,11.87-0.53l7.11-3c4.42-2.59,8.11-6.26,10.71-10.68l3-7.11
					C171.88,221.72,171.88,216.25,170.46,211.07L170.46,211.07z"/>
			</g>
		</g>
		<path fill="#619DC6" stroke="#FFFFFF" stroke-miterlimit="10" d="M172.46,22.69L95.58,42.25c-10.52,2.67-16.89,13.36-14.23,23.89
			c0,0.01,0,0.01,0.01,0.02l44.27,174.12c2.68,10.53,13.39,16.89,23.91,14.21c0,0,0,0,0.01,0l76.91-19.55
			c10.53-2.68,16.9-13.38,14.22-23.91c0,0,0,0,0,0L196.46,36.91c-2.67-10.54-13.38-16.91-23.91-14.24
			C172.52,22.68,172.49,22.68,172.46,22.69z M228.89,212.13l-92.43,23.5L91.63,59.24l92.46-23.5L228.89,212.13z"/>
		<path fill="none" stroke="#FFFFFF" stroke-width="2" stroke-miterlimit="10" d="M91.63,59.24l44.83,176.39l92.45-23.5
			L184.09,35.74L91.63,59.24z M156.75,50.5c-1.36,2.28-3.56,3.93-6.13,4.58l-20.35,5.17c-5.35,1.36-10.8-1.87-12.16-7.22
			l39.74-10.11C158.5,45.5,158.11,48.22,156.75,50.5L156.75,50.5z"/>
		<path fill="#0E4981" stroke="#FFFFFF" stroke-miterlimit="10" d="M91.63,59.24l44.83,176.39l92.45-23.5L184.09,35.74L91.63,59.24z
			 M156.75,50.5c-1.36,2.28-3.56,3.93-6.13,4.58l-20.35,5.17c-5.35,1.36-10.8-1.87-12.16-7.22l39.74-10.11
			C158.5,45.5,158.11,48.22,156.75,50.5L156.75,50.5z"/>
		<circle fill="#FFFFFF" cx="184.81" cy="234.18" r="6"/>
		<path fill="#619DC6" stroke="#FFFFFF" stroke-miterlimit="10" d="M157.85,42.92c1.36,5.35-1.87,10.8-7.22,12.16c0,0,0,0-0.01,0
			l-20.35,5.17c-5.35,1.36-10.8-1.87-12.16-7.22L157.85,42.92z"/>
		<path fill="#FFFFFF" d="M132,107.81l39.81-10.12c5.06-1.29,10.21,1.77,11.5,6.84l14.8,58.23c1.29,5.06-1.77,10.21-6.84,11.5
			l-39.81,10.12c-5.06,1.29-10.21-1.77-11.5-6.84l-14.8-58.23C123.87,114.25,126.93,109.1,132,107.81z"/>
		<circle fill="#0E4981" cx="144.61" cy="128.84" r="10.5"/>
		<path fill="#0E4981" d="M139.71,146.09l17.68-4.49c1.87-0.48,3.78,0.66,4.25,2.53l0,0c0.48,1.87-0.66,3.78-2.53,4.25l-17.68,4.49
			c-1.87,0.48-3.78-0.66-4.25-2.53l0,0C136.7,148.47,137.83,146.57,139.71,146.09z"/>
		<path fill="#0E4981" d="M142.66,157.72l29.16-7.41c1.87-0.48,3.78,0.66,4.25,2.53l0,0c0.48,1.87-0.66,3.78-2.53,4.25l-29.16,7.41
			c-1.87,0.48-3.78-0.66-4.25-2.53l0,0C139.65,160.1,140.78,158.2,142.66,157.72z"/>
		<path fill="#0E4981" d="M145.61,169.35L186.32,159c1.87-0.48,3.78,0.66,4.25,2.53l0,0c0.48,1.87-0.66,3.78-2.53,4.25l-40.71,10.35
			c-1.87,0.48-3.78-0.66-4.25-2.53l0,0C142.61,171.73,143.74,169.82,145.61,169.35z"/>
		<path fill="#5AB2B3" d="M334.97,194.66l6.68,3.36c3.09,1.55,4.33,5.32,2.78,8.41l-42.9,85.3c-1.55,3.09-5.32,4.33-8.41,2.78
			l-6.68-3.36c-3.09-1.55-4.33-5.32-2.78-8.41l42.9-85.3C328.12,194.35,331.88,193.11,334.97,194.66z"/>
		<line fill="none" stroke="#FFFFFF" stroke-width="3" stroke-miterlimit="10" x1="348.52" y1="33.09" x2="282.52" y2="99.09"/>
		<line fill="none" stroke="#FFFFFF" stroke-width="3" stroke-miterlimit="10" x1="417.52" y1="29.09" x2="365.52" y2="81.09"/>
		<line fill="none" stroke="#FFFFFF" stroke-width="3" stroke-miterlimit="10" x1="66.52" y1="229.09" x2="0.52" y2="295.09"/>
		<line fill="none" stroke="#FFFFFF" stroke-width="3" stroke-miterlimit="10" x1="105.5" y1="228.11" x2="51.54" y2="286.08"/>
	</g>
</g>
</svg>
