<?xml version="1.0" encoding="utf-8"?>
<!-- Generator: Adobe Illustrator 24.3.0, SVG Export Plug-In . SVG Version: 6.00 Build 0)  -->
<svg version="1.1" id="Layer_1" xmlns="http://www.w3.org/2000/svg" xmlns:xlink="http://www.w3.org/1999/xlink" x="0px" y="0px"
	 viewBox="0 0 84.52 84.52" enable-background="new 0 0 84.52 84.52" xml:space="preserve">
<g id="Layer_2_1_">
	<g id="Layer_1-2">
		<circle fill="#0e4981" cx="42.26" cy="42.26" r="42.26"/>
		<path fill="none" stroke="#FFFFFF" stroke-linejoin="round" d="M60.3,44.41v10L53,59.32l-7.33-4.94v-10
			c2.64-0.43,5.15-1.47,7.33-3.03C55.16,42.92,57.66,43.97,60.3,44.41z"/>
		<path fill="none" stroke="#FFFFFF" stroke-linejoin="round" d="M53,37.62c-3.08,2.24-6.64,3.74-10.39,4.38v14.1l10.37,7l10.37-7
			V42C59.61,41.36,56.07,39.86,53,37.62z M60.3,54.38L53,59.32l-7.33-4.94v-10c2.64-0.43,5.15-1.47,7.33-3.03
			c2.17,1.57,4.68,2.62,7.32,3.06L60.3,54.38z"/>
		<polyline fill="none" stroke="#FFFFFF" stroke-linejoin="round" points="49.28,51.99 51.6,54.44 57.88,47.8 		"/>
		<line fill="none" stroke="#FFFFFF" stroke-linejoin="round" x1="55.96" y1="28.13" x2="29.09" y2="28.13"/>
		<path fill="none" stroke="#FFFFFF" stroke-linejoin="round" d="M59.18,59.32c2.38,0,4.31-1.93,4.31-4.31c0,0,0-0.01,0-0.01V32.43
			c-0.01-2.38-1.93-4.3-4.31-4.3"/>
		<line fill="none" stroke="#FFFFFF" stroke-linejoin="round" x1="28.6" y1="59.32" x2="47.27" y2="59.32"/>
		<path fill="none" stroke="#FFFFFF" stroke-linejoin="round" d="M25.34,28.13c-2.38-0.02-4.32,1.9-4.34,4.28c0,0.01,0,0.01,0,0.02
			V55c0,2.38,1.93,4.31,4.31,4.31c0,0,0,0,0,0"/>
		<path fill="none" stroke="#FFFFFF" stroke-linejoin="round" d="M27.1,25.88L27.1,25.88c0.97,0,1.76,0.79,1.76,1.76v32.19
			c0,0.97-0.79,1.76-1.76,1.76l0,0c-0.97,0-1.76-0.79-1.76-1.76V27.64C25.34,26.67,26.13,25.88,27.1,25.88z"/>
		<path fill="none" stroke="#FFFFFF" stroke-linejoin="round" d="M56.26,60.81c0.33,0.49,0.87,0.78,1.46,0.78l0,0
			c0.97,0,1.76-0.79,1.76-1.76V58.9"/>
		<path fill="none" stroke="#FFFFFF" stroke-linejoin="round" d="M59.48,40.7V27.64c0-0.97-0.79-1.76-1.76-1.76l0,0
			C56.76,25.9,56,26.68,56,27.64v11.67"/>
		<path fill="none" stroke="#FFFFFF" stroke-linejoin="round" d="M51.26,28.13V27.4c-0.01-3.54-2.87-6.4-6.41-6.4h-5.18
			c-3.54,0-6.41,2.87-6.41,6.41l0,0v0.73"/>
		<path fill="none" stroke="#FFFFFF" stroke-linejoin="round" d="M47.87,28.05V27.6c0-2.14-1.73-3.88-3.87-3.89h-3.17
			c-2.15,0-3.89,1.74-3.89,3.89v0.45"/>
		<polyline fill="none" stroke="#FFFFFF" stroke-linejoin="round" points="38.05,41.53 34.6,42.63 32.1,34.72 38.75,32.61 
			40.64,38.59 		"/>
		<polyline fill="none" stroke="#FFFFFF" stroke-linejoin="round" points="42.61,47.8 38.05,47.8 38.05,38.7 47.16,38.7 
			47.16,40.58 		"/>
		<circle fill="none" stroke="#FFFFFF" stroke-linejoin="round" cx="35.32" cy="52.46" r="3.49"/>
		<circle fill="none" stroke="#FFFFFF" stroke-linejoin="round" cx="49.11" cy="35.21" r="3.49"/>
	</g>
</g>
</svg>
