<?xml version="1.0" encoding="utf-8"?>
<!-- Generator: Adobe Illustrator 24.3.0, SVG Export Plug-In . SVG Version: 6.00 Build 0)  -->
<svg version="1.1" id="Layer_1" xmlns="http://www.w3.org/2000/svg" xmlns:xlink="http://www.w3.org/1999/xlink" x="0px" y="0px"
	 viewBox="0 0 35 35" enable-background="new 0 0 35 35" xml:space="preserve">
<g id="Layer_2_1_">
	<g id="Layer_1-2">
		<circle fill="#EB4471" cx="17.5" cy="17.5" r="17.5"/>
		<g id="insurance-clipboard-document-report-security">
			<path fill="#FFFFFF" d="M15,9c-0.52,0-0.95,0.43-0.95,0.95S14.48,10.9,15,10.9s0.95-0.43,0.95-0.95l0,0
				C15.92,9.44,15.51,9.03,15,9z M15,10.26c-0.17-0.03-0.29-0.2-0.26-0.37c0.02-0.13,0.13-0.24,0.26-0.26
				c0.17-0.03,0.34,0.08,0.37,0.26c0.03,0.17-0.08,0.34-0.26,0.37C15.08,10.27,15.04,10.27,15,10.26z"/>
			<path fill="#FFFFFF" d="M10.86,17.82h1.27v0.63h-1.27V17.82z"/>
			<path fill="#FFFFFF" d="M12.76,17.82h4.74v0.63h-4.74V17.82z"/>
			<path fill="#FFFFFF" d="M10.86,19.71h1.27v0.64h-1.27V19.71z"/>
			<path fill="#FFFFFF" d="M10.86,21.61h1.27v0.63h-1.27V21.61z"/>
			<path fill="#FFFFFF" d="M10.86,23.5h1.27v0.64h-1.27V23.5z"/>
			<path fill="#FFFFFF" d="M26.66,18.45h-0.31c-1.03,0-2.03-0.34-2.85-0.95l-0.76-0.57c-0.11-0.08-0.26-0.08-0.37,0l-0.45,0.33
				v-6.39c0.01-0.52-0.4-0.94-0.92-0.95h-2.61c-0.13-0.38-0.49-0.63-0.89-0.63h-0.74c-0.35-0.99-1.44-1.5-2.43-1.15
				c-0.54,0.19-0.96,0.61-1.15,1.15h-0.74c-0.4,0.02-0.74,0.26-0.89,0.63H9c-0.53,0-0.97,0.42-1,0.95V26c0,0.55,0.45,1,1,1h12
				c0.29-0.01,0.56-0.14,0.74-0.36l0.7,0.33c0.09,0.04,0.18,0.04,0.27,0l2.78-1.32c0.94-0.5,1.52-1.47,1.51-2.53v-4.35
				c0-0.18-0.14-0.32-0.32-0.32H26.66z M18.45,10.55H21c0.17,0,0.31,0.14,0.31,0.31c0,0,0,0.01,0,0.01v6.85
				c-0.2,0.13-0.41,0.24-0.63,0.33V11.5c0-0.18-0.14-0.32-0.32-0.32h-1.91V10.55z M12.13,10.23c0-0.17,0.14-0.31,0.31-0.31h0h1
				c0.15,0,0.28-0.1,0.31-0.25c0.12-0.68,0.78-1.14,1.46-1.02c0.52,0.09,0.92,0.5,1.02,1.02c0.03,0.15,0.16,0.25,0.31,0.25h1
				c0.17,0,0.31,0.14,0.32,0.31v1.27h-5.73L12.13,10.23z M11.81,12.13h6.32c0.18,0,0.32-0.14,0.32-0.32H20v6.46
				c-0.41,0.12-0.84,0.18-1.27,0.18h-0.31c-0.18,0-0.32,0.14-0.32,0.32v0.94h-5.34v0.64h5.37v1.26h-5.37v0.63h5.37v0.88
				c-0.01,0.13-0.01,0.25,0,0.38h-5.4v0.64h5.56c0.14,0.35,0.35,0.67,0.61,0.94h-9V11.81h1.6c-0.01,0.17,0.13,0.31,0.3,0.32
				C11.8,12.13,11.81,12.13,11.81,12.13z M21,26.35H9c-0.18,0.02-0.33-0.11-0.35-0.29c0-0.02,0-0.04,0-0.06V10.87
				c0-0.18,0.14-0.32,0.32-0.32c0.01,0,0.02,0,0.03,0h2.5v0.63H9.6c-0.17,0-0.31,0.14-0.31,0.31c0,0,0,0.01,0,0.01v13.9
				c-0.01,0.17,0.13,0.31,0.3,0.32c0,0,0.01,0,0.01,0h10.23l1.27,0.6C21.07,26.34,21.03,26.35,21,26.35z M26.37,23.12
				c0,0.82-0.45,1.56-1.17,1.95l-2.62,1.24l-2.62-1.24c-0.73-0.38-1.18-1.13-1.18-1.95v-4c1.17-0.02,2.3-0.41,3.22-1.12l0.57-0.43
				L23.13,18c0.93,0.69,2.07,1.07,3.23,1.07L26.37,23.12z"/>
			<path fill="#FFFFFF" d="M16.87,14h-1v-0.95c0-0.18-0.14-0.32-0.32-0.32h-1.21c-0.18,0-0.32,0.14-0.32,0.32V14h-0.94
				c-0.17-0.01-0.31,0.13-0.32,0.3c0,0,0,0.01,0,0.01v1.27c0,0.17,0.14,0.31,0.31,0.31c0,0,0.01,0,0.01,0H14v1
				c0.01,0.17,0.15,0.31,0.32,0.32h1.28c0.18,0,0.32-0.14,0.32-0.32v-1h1c0.17,0,0.31-0.14,0.31-0.31v-1.24
				c0.02-0.17-0.1-0.32-0.27-0.34C16.93,13.99,16.9,14,16.87,14z M16.55,15.26h-1c-0.17,0-0.31,0.14-0.31,0.31c0,0,0,0.01,0,0.01
				v0.94h-0.63v-0.94c0-0.18-0.14-0.32-0.32-0.32h-0.95v-0.63h0.95c0.18,0,0.32-0.14,0.32-0.32v-0.95h0.63v0.95
				c-0.01,0.17,0.13,0.31,0.3,0.32c0,0,0.01,0,0.01,0h1V15.26z"/>
			<path fill="#FFFFFF" d="M25.45,19.64c-0.98-0.14-1.92-0.53-2.71-1.13c-0.11-0.08-0.26-0.08-0.37,0c-0.79,0.6-1.73,0.99-2.71,1.13
				c-0.15,0.03-0.26,0.16-0.26,0.32v3.16c0,0.57,0.31,1.1,0.81,1.38l0,0l2.19,1c0.09,0.04,0.18,0.04,0.27,0l2.23-1
				c0.5-0.28,0.81-0.81,0.81-1.38V20c0-0.16-0.11-0.29-0.26-0.32L25.45,19.64z M25.08,23.12c-0.01,0.33-0.19,0.64-0.47,0.82l-2.05,1
				l-2-1c-0.3-0.16-0.48-0.48-0.48-0.82v-2.9c0.91-0.17,1.77-0.54,2.53-1.07c0.75,0.53,1.61,0.9,2.52,1.07L25.08,23.12z"/>
			<path fill="#FFFFFF" d="M21.2,22.33l-0.45,0.45l0.95,0.95c0.13,0.12,0.32,0.12,0.45,0l2.52-2.53l-0.44-0.45l-2.31,2.31
				L21.2,22.33z"/>
		</g>
	</g>
</g>
</svg>
