<?xml version="1.0" encoding="utf-8"?>
<!-- Generator: Adobe Illustrator 24.3.0, SVG Export Plug-In . SVG Version: 6.00 Build 0)  -->
<svg version="1.1" id="Layer_1" xmlns="http://www.w3.org/2000/svg" xmlns:xlink="http://www.w3.org/1999/xlink" x="0px" y="0px"
	 viewBox="0 0 436.07 263.99" enable-background="new 0 0 436.07 263.99" xml:space="preserve">
<g id="Layer_2_1_">
	<g id="Layer_1-2">
		<ellipse fill="#CDE2F7" cx="360.54" cy="228.84" rx="37.07" ry="10.95"/>
		<path fill="#D9F0FF" d="M284.51,219.72c58.41-1.05,100.9-18.05,102.31-61.1c1-31.86-22.81-59.67-58.23-73.65
			c-16.14-6.36-54.68-11.18-64.41-22.61c-25-29.4-44.28-53.6-94.65-54.2C90.45,7.23,39.61,33.27,38.51,91.55
			c-1.06,59.17,12.16,94.05,67.83,121.12"/>
		<g>
			<defs>
				<path id="SVGID_1_" d="M284.51,219.72c58.41-1.05,100.9-18.05,102.31-61.1c1-31.86-22.81-59.67-58.23-73.65
					c-16.14-6.36-54.68-11.18-64.41-22.61c-25-29.4-44.28-53.6-94.65-54.2C90.45,7.23,39.61,33.27,38.51,91.55
					c-1.06,59.17,12.16,94.05,67.83,121.12"/>
			</defs>
			<clipPath id="SVGID_2_">
				<use xlink:href="#SVGID_1_"  overflow="visible"/>
			</clipPath>
			<g clip-path="url(#SVGID_2_)">
				<path fill="#FFFFFF" d="M308.05,61.88c-18.69-6.59-38.31-10.21-58.12-10.74c-20.71-0.59-41.31,2.08-61.95,3.25
					c-18.8,1.07-37.49,0.44-55.95-3.53c-16.58-3.53-32.57-9.42-47.48-17.48c-14.08-7.51-26.81-17.31-37.67-29
					c-1.3-1.44-2.56-2.9-3.79-4.38c-1.23-1.48-3.35,0.65-2.12,2.14C51.26,14.3,63.54,24.63,77.28,32.69
					c14.59,8.65,30.34,15.16,46.78,19.34c17.74,4.45,36.01,6.39,54.29,5.75c20.86-0.6,41.59-3.46,62.46-3.73
					c20.15-0.35,40.22,2.49,59.48,8.4c2.34,0.72,4.66,1.5,7,2.32c1.83,0.65,2.61-2.25,0.8-2.89L308.05,61.88z"/>
				<path fill="#FFFFFF" d="M367.24,78.44c-20.86,18.92-48.37,28.94-75.64,34.26c-14.76,2.82-29.72,4.46-44.74,4.91
					c-16.93,0.57-33.8-0.1-50.47-3.29c-16.22-3.11-32.14-7.51-48.49-10c-14.73-2.29-29.63-3.26-44.53-2.92
					c-28.69,0.81-58,7.46-81.45,24.8c-22,16.34-36.54,39.89-48.55,64.1c-1.48,2.98-2.93,5.98-4.36,9c-0.83,1.73,1.75,3.25,2.59,1.51
					c11.65-24.34,24.63-48.79,45.31-66.75c22.25-19.31,51.16-27.65,80.14-29.36c15.07-0.8,30.19-0.19,45.15,1.85
					c16,2.1,31.6,6.11,47.38,9.44c31.18,6.59,63.69,6.11,95.08,1c27.37-4.46,55.17-13.26,77.41-30.34c2.52-1.93,4.95-3.96,7.3-6.08
					C370.8,79.27,368.67,77.16,367.24,78.44L367.24,78.44z"/>
				<path fill="#FFFFFF" d="M403.12,123.53c-26.42,10.44-46.68,31.14-71.92,43.67c-14.71,7.3-30.63,10.42-46.88,11.89
					c-17.24,1.55-34.81,2.28-51.9-0.95c-15.51-2.93-30.29-8.58-45-14.22c-15.28-5.86-30.58-11.32-46.6-14.83
					c-16.49-3.61-33.69-6.54-50.62-6.58c-15.24-0.18-30.26,3.66-43.54,11.13c-12,6.81-22.28,16.24-31.1,26.76
					c-10.28,12.27-18.79,25.87-28.77,38.37c-2.57,3.21-5.23,6.34-8,9.36c-1.31,1.42,0.81,3.55,2.12,2.12
					c20.56-22.33,33.94-50.9,59.17-68.84c12.12-8.81,26.39-14.19,41.31-15.56c17-1.4,34.44,1.39,51.13,4.59
					c16.08,3.19,31.85,7.77,47.13,13.7c14.7,5.57,29.29,11.57,44.6,15.29c16.44,4,33.15,4.47,50,3.42c16.39-1,33.08-2.75,48.53-8.68
					c26.29-10.08,46.42-30.62,71.29-43.29c3.22-1.64,6.51-3.13,9.86-4.46c1.78-0.7,1-3.6-0.79-2.89H403.12z"/>
			</g>
		</g>
		<path fill="#B0CDEC" d="M61.8,177c0,0,2.57-9.47,18.75-18c14.34-7.53,31.69-10,48.33-7.32l70.68,11.3c0,0,5.95,5.62,42-21.52
			c4.77-3.4,11.02-3.9,16.26-1.28c5.57,2.82,14.63,7.08,29.18,13.22c10.49,4.35,22.12,5.15,33.11,2.29
			c10.66-2.79,24-6.58,33.36-10.2c6.71-2.61,14.69-0.35,18.05,5.15l16.1,26.32L61.8,177z"/>
		<path fill="#DCECF6" d="M323.79,19.91l36.45,16.05c12.66,5.57,18.4,20.35,12.83,33.01l0,0.01c-5.57,12.66-20.35,18.4-33.01,12.83
			L303.6,65.75c-12.66-5.57-18.4-20.35-12.83-33.01l0-0.01C296.35,20.08,311.13,14.33,323.79,19.91z"/>
		<ellipse fill="#CDE2F7" cx="146.78" cy="237.85" rx="29.35" ry="12.52"/>
		<ellipse fill="#CDE2F7" cx="294.32" cy="243.33" rx="42.41" ry="12.52"/>
		<polygon fill="#45579E" points="365.89,217.73 368.74,217.99 370.2,202.42 367.28,202.33 		"/>
		<polygon fill="#45579E" points="329.84,224.13 332.7,224.39 334.73,202.42 331.8,202.39 		"/>
		<polygon fill="#1E2C69" points="392.17,118.14 379.22,202.42 328.91,202.42 342.07,118.14 		"/>
		<polygon fill="#45579E" points="389.98,118.14 377.03,200.29 326.71,200.29 339.87,118.14 		"/>
		<polygon fill="#E6F6FB" points="387.5,121.9 375.56,197.62 329.19,197.62 341.32,121.9 		"/>
		<circle fill="#E983A2" cx="312.1" cy="116.93" r="16.04"/>
		<circle fill="#E983A2" cx="341.45" cy="161.35" r="3.72"/>
		<path fill="#E983A2" d="M357.1,153.14h-13c-1.19,0-2.15-0.96-2.15-2.15l1.28-7.85c0-1.19,0.96-2.15,2.15-2.16h13
			c1.19,0,2.16,0.97,2.16,2.16l0,0l-1.29,7.85C359.25,152.18,358.29,153.14,357.1,153.14z"/>
		<path fill="#E983A2" d="M346.29,132.1h32.1c1.38,0,2.49,1.11,2.49,2.49v0.01c0,1.38-1.11,2.49-2.49,2.49h-32.1
			c-1.38,0-2.49-1.11-2.49-2.49v-0.01C343.8,133.22,344.92,132.1,346.29,132.1z"/>
		<path fill="#E983A2" d="M377.76,157.56h-13c-1.19-0.01-2.15-0.97-2.15-2.16l1.71-13.62c0-1.19,0.96-2.15,2.15-2.15h13
			c1.19,0,2.15,0.96,2.15,2.15l-1.71,13.62C379.91,156.59,378.95,157.56,377.76,157.56z"/>
		<ellipse fill="#FFFFFF" cx="371.26" cy="145.21" rx="2.75" ry="3.16"/>
		<path fill="#FFFFFF" d="M373.82,147.36c-0.98,1.42-2.92,1.77-4.34,0.79c-0.31-0.21-0.58-0.48-0.79-0.79
			c-1.64,0.66-2.74,2.23-2.81,4v3.78c0.04,0.4,0.38,0.69,0.78,0.66h9.19c0.4,0.03,0.74-0.26,0.78-0.66v-3.76
			C376.58,149.6,375.47,148.03,373.82,147.36z"/>
		<line fill="none" stroke="#E983A2" stroke-miterlimit="10" x1="348.69" y1="159.59" x2="376.51" y2="159.59"/>
		<line fill="none" stroke="#E983A2" stroke-miterlimit="10" x1="347.69" y1="164.18" x2="375.51" y2="164.18"/>
		<line fill="none" stroke="#E983A2" stroke-miterlimit="10" x1="337.74" y1="168.78" x2="374.51" y2="168.78"/>
		<line fill="none" stroke="#E983A2" stroke-miterlimit="10" x1="336.74" y1="173.38" x2="373.51" y2="173.38"/>
		<line fill="none" stroke="#E983A2" stroke-miterlimit="10" x1="335.74" y1="177.98" x2="372.51" y2="177.98"/>
		<line fill="none" stroke="#E983A2" stroke-miterlimit="10" x1="334.74" y1="182.57" x2="371.51" y2="182.57"/>
		<line fill="none" stroke="#E983A2" stroke-miterlimit="10" x1="333.74" y1="187.17" x2="370.51" y2="187.17"/>
		<line fill="none" stroke="#E983A2" stroke-miterlimit="10" x1="332.74" y1="191.77" x2="369.51" y2="191.77"/>
		<line fill="none" stroke="#E983A2" stroke-miterlimit="10" x1="331.74" y1="196.36" x2="368.51" y2="196.36"/>
		<path fill="#99C1E0" d="M226.08,204.07c0,0,10.05,8,33.13,0.87C259.21,204.94,240.62,169.06,226.08,204.07z"/>
		<path fill="#B0D0EC" d="M187.21,206.93c0,0,18.13,12,59.74,1.31C246.95,208.24,213.45,154.5,187.21,206.93z"/>
		<circle fill="none" stroke="#FFFFFF" stroke-miterlimit="10" cx="338.99" cy="57.38" r="3.64"/>
		<polygon fill="none" stroke="#25227E" stroke-miterlimit="10" points="324.27,50.28 330.34,47.93 329.16,54.19 		"/>
		<polygon fill="#DF6093" points="310.8,50.05 315.28,46.89 315.6,52.26 		"/>
		<circle fill="none" stroke="#25227E" stroke-miterlimit="10" cx="339.69" cy="68.91" r="2.35"/>
		<circle fill="none" stroke="#FFFFFF" stroke-miterlimit="10" cx="154.94" cy="35.85" r="3.64"/>
		<polygon fill="none" stroke="#25227E" stroke-miterlimit="10" points="139.23,31.33 144.81,28 144.71,34.37 		"/>
		<polygon fill="#DF6093" points="125.91,33.38 129.8,29.51 131.02,34.74 		"/>
		<circle fill="none" stroke="#25227E" stroke-miterlimit="10" cx="157.58" cy="47.09" r="2.35"/>
		<rect x="133.67" y="142.05" fill="#2F9DD0" width="81.68" height="39.06"/>
		<rect x="152.58" y="142.05" fill="#84C0EC" width="80.6" height="39.06"/>
		<rect x="186.06" y="167.67" fill="#5E94C2" width="20.09" height="13.43"/>
		<polygon fill="#BADBF9" points="228.06,149.17 221.02,149.17 221.02,149.79 228.06,155.21 		"/>
		<polygon fill="#BADBF9" points="228.06,157.73 221.02,152.32 221.02,154.34 228.06,159.76 		"/>
		<polygon fill="#BADBF9" points="221.02,161.56 227.13,161.56 221.02,156.87 		"/>
		<polygon fill="#FFFFFF" points="228.06,155.21 221.02,149.79 221.02,152.32 228.06,157.73 		"/>
		<polygon fill="#FFFFFF" points="228.06,159.76 221.02,154.34 221.02,156.87 227.13,161.56 228.06,161.56 		"/>
		<polygon fill="#BADBF9" points="216.58,149.17 209.54,149.17 209.54,149.79 216.58,155.21 		"/>
		<polygon fill="#BADBF9" points="216.58,157.73 209.54,152.32 209.54,154.34 216.58,159.76 		"/>
		<polygon fill="#BADBF9" points="209.54,161.56 215.64,161.56 209.54,156.87 		"/>
		<polygon fill="#FFFFFF" points="216.58,155.21 209.54,149.79 209.54,152.32 216.58,157.73 		"/>
		<polygon fill="#FFFFFF" points="216.58,159.76 209.54,154.34 209.54,156.87 215.64,161.56 216.58,161.56 		"/>
		<polygon fill="#BADBF9" points="204.68,149.17 197.64,149.17 197.64,149.79 204.68,155.21 		"/>
		<polygon fill="#BADBF9" points="204.68,157.73 197.64,152.32 197.64,154.34 204.68,159.76 		"/>
		<polygon fill="#BADBF9" points="197.64,161.56 203.75,161.56 197.64,156.87 		"/>
		<polygon fill="#FFFFFF" points="204.68,155.21 197.64,149.79 197.64,152.32 204.68,157.73 		"/>
		<polygon fill="#FFFFFF" points="204.68,159.76 197.64,154.34 197.64,156.87 203.75,161.56 204.68,161.56 		"/>
		<polygon fill="#BADBF9" points="193.11,149.17 186.06,149.17 186.06,149.79 193.11,155.21 		"/>
		<polygon fill="#BADBF9" points="193.11,157.73 186.06,152.32 186.06,154.34 193.11,159.76 		"/>
		<polygon fill="#BADBF9" points="186.06,161.56 192.17,161.56 186.06,156.87 		"/>
		<polygon fill="#FFFFFF" points="193.11,155.21 186.06,149.79 186.06,152.32 193.11,157.73 		"/>
		<polygon fill="#FFFFFF" points="193.11,159.76 186.06,154.34 186.06,156.87 192.17,161.56 193.11,161.56 		"/>
		<polygon fill="#BADBF9" points="181.62,149.17 174.58,149.17 174.58,149.79 181.62,155.21 		"/>
		<polygon fill="#BADBF9" points="181.62,157.73 174.58,152.32 174.58,154.34 181.62,159.76 		"/>
		<polygon fill="#BADBF9" points="174.58,161.56 180.69,161.56 174.58,156.87 		"/>
		<polygon fill="#FFFFFF" points="181.62,155.21 174.58,149.79 174.58,152.32 181.62,157.73 		"/>
		<polygon fill="#FFFFFF" points="181.62,159.76 174.58,154.34 174.58,156.87 180.69,161.56 181.62,161.56 		"/>
		<polygon fill="#BADBF9" points="169.73,149.17 162.68,149.17 162.68,149.79 169.73,155.21 		"/>
		<polygon fill="#BADBF9" points="169.73,157.73 162.68,152.32 162.68,154.34 169.73,159.76 		"/>
		<polygon fill="#BADBF9" points="162.68,161.56 168.79,161.56 162.68,156.87 		"/>
		<polygon fill="#FFFFFF" points="169.73,155.21 162.68,149.79 162.68,152.32 169.73,157.73 		"/>
		<polygon fill="#FFFFFF" points="169.73,159.76 162.68,154.34 162.68,156.87 168.79,161.56 169.73,161.56 		"/>
		<rect x="139.41" y="80.15" fill="#4E89B9" width="23.06" height="61.9"/>
		<rect x="162.47" y="80.15" fill="#84C0EC" width="68.18" height="61.9"/>
		<rect x="182.33" y="128.62" fill="#5E94C2" width="20.09" height="13.43"/>
		<polygon fill="#BADBF9" points="224.39,87.33 218.63,87.33 218.63,87.83 224.39,92.26 		"/>
		<polygon fill="#BADBF9" points="224.39,94.32 218.63,89.9 218.63,91.55 224.39,95.97 		"/>
		<polygon fill="#BADBF9" points="218.63,97.45 223.62,97.45 218.63,93.61 		"/>
		<polygon fill="#FFFFFF" points="224.39,92.26 218.63,87.83 218.63,89.9 224.39,94.32 		"/>
		<polygon fill="#FFFFFF" points="224.39,95.97 218.63,91.55 218.63,93.61 223.62,97.45 224.39,97.45 		"/>
		<polygon fill="#BADBF9" points="215.01,87.33 209.26,87.33 209.26,87.83 215.01,92.26 		"/>
		<polygon fill="#BADBF9" points="215.01,94.32 209.26,89.9 209.26,91.55 215.01,95.97 		"/>
		<polygon fill="#BADBF9" points="209.26,97.45 214.24,97.45 209.26,93.61 		"/>
		<polygon fill="#FFFFFF" points="215.01,92.26 209.26,87.83 209.26,89.9 215.01,94.32 		"/>
		<polygon fill="#FFFFFF" points="215.01,95.97 209.26,91.55 209.26,93.61 214.24,97.45 215.01,97.45 		"/>
		<polygon fill="#BADBF9" points="205.29,87.33 199.54,87.33 199.54,87.83 205.29,92.26 		"/>
		<polygon fill="#BADBF9" points="205.29,94.32 199.54,89.9 199.54,91.55 205.29,95.97 		"/>
		<polygon fill="#BADBF9" points="199.54,97.45 204.53,97.45 199.54,93.61 		"/>
		<polygon fill="#FFFFFF" points="205.29,92.26 199.54,87.83 199.54,89.9 205.29,94.32 		"/>
		<polygon fill="#FFFFFF" points="205.29,95.97 199.54,91.55 199.54,93.61 204.53,97.45 205.29,97.45 		"/>
		<polygon fill="#BADBF9" points="195.84,87.33 190.09,87.33 190.09,87.83 195.84,92.26 		"/>
		<polygon fill="#BADBF9" points="195.84,94.32 190.09,89.9 190.09,91.55 195.84,95.97 		"/>
		<polygon fill="#BADBF9" points="190.09,97.45 195.07,97.45 190.09,93.61 		"/>
		<polygon fill="#FFFFFF" points="195.84,92.26 190.09,87.83 190.09,89.9 195.84,94.32 		"/>
		<polygon fill="#FFFFFF" points="195.84,95.97 190.09,91.55 190.09,93.61 195.07,97.45 195.84,97.45 		"/>
		<polygon fill="#BADBF9" points="186.46,87.33 180.71,87.33 180.71,87.83 186.46,92.26 		"/>
		<polygon fill="#BADBF9" points="186.46,94.32 180.71,89.9 180.71,91.55 186.46,95.97 		"/>
		<polygon fill="#BADBF9" points="180.71,97.45 185.7,97.45 180.71,93.61 		"/>
		<polygon fill="#FFFFFF" points="186.46,92.26 180.71,87.83 180.71,89.9 186.46,94.32 		"/>
		<polygon fill="#FFFFFF" points="186.46,95.97 180.71,91.55 180.71,93.61 185.7,97.45 186.46,97.45 		"/>
		<polygon fill="#BADBF9" points="176.75,87.33 170.99,87.33 170.99,87.83 176.75,92.26 		"/>
		<polygon fill="#BADBF9" points="176.75,94.32 170.99,89.9 170.99,91.55 176.75,95.97 		"/>
		<polygon fill="#BADBF9" points="170.99,97.45 175.98,97.45 170.99,93.61 		"/>
		<polygon fill="#FFFFFF" points="176.75,92.26 170.99,87.83 170.99,89.9 176.75,94.32 		"/>
		<polygon fill="#FFFFFF" points="176.75,95.97 170.99,91.55 170.99,93.61 175.98,97.45 176.75,97.45 		"/>
		<polygon fill="#BADBF9" points="224.39,101.07 218.63,101.07 218.63,101.58 224.39,106 		"/>
		<polygon fill="#BADBF9" points="224.39,108.06 218.63,103.64 218.63,105.29 224.39,109.71 		"/>
		<polygon fill="#BADBF9" points="218.63,111.19 223.62,111.19 218.63,107.35 		"/>
		<polygon fill="#FFFFFF" points="224.39,106 218.63,101.58 218.63,103.64 224.39,108.06 		"/>
		<polygon fill="#FFFFFF" points="224.39,109.71 218.63,105.29 218.63,107.35 223.62,111.19 224.39,111.19 		"/>
		<polygon fill="#BADBF9" points="215.01,101.07 209.26,101.07 209.26,101.58 215.01,106 		"/>
		<polygon fill="#BADBF9" points="215.01,108.06 209.26,103.64 209.26,105.29 215.01,109.71 		"/>
		<polygon fill="#BADBF9" points="209.26,111.19 214.24,111.19 209.26,107.35 		"/>
		<polygon fill="#FFFFFF" points="215.01,106 209.26,101.58 209.26,103.64 215.01,108.06 		"/>
		<polygon fill="#FFFFFF" points="215.01,109.71 209.26,105.29 209.26,107.35 214.24,111.19 215.01,111.19 		"/>
		<polygon fill="#BADBF9" points="205.29,101.07 199.54,101.07 199.54,101.58 205.29,106 		"/>
		<polygon fill="#BADBF9" points="205.29,108.06 199.54,103.64 199.54,105.29 205.29,109.71 		"/>
		<polygon fill="#BADBF9" points="199.54,111.19 204.53,111.19 199.54,107.35 		"/>
		<polygon fill="#FFFFFF" points="205.29,106 199.54,101.58 199.54,103.64 205.29,108.06 		"/>
		<polygon fill="#FFFFFF" points="205.29,109.71 199.54,105.29 199.54,107.35 204.53,111.19 205.29,111.19 		"/>
		<polygon fill="#BADBF9" points="195.84,101.07 190.09,101.07 190.09,101.58 195.84,106 		"/>
		<polygon fill="#BADBF9" points="195.84,108.06 190.09,103.64 190.09,105.29 195.84,109.71 		"/>
		<polygon fill="#BADBF9" points="190.09,111.19 195.07,111.19 190.09,107.35 		"/>
		<polygon fill="#FFFFFF" points="195.84,106 190.09,101.58 190.09,103.64 195.84,108.06 		"/>
		<polygon fill="#FFFFFF" points="195.84,109.71 190.09,105.29 190.09,107.35 195.07,111.19 195.84,111.19 		"/>
		<polygon fill="#BADBF9" points="186.46,101.07 180.71,101.07 180.71,101.58 186.46,106 		"/>
		<polygon fill="#BADBF9" points="186.46,108.06 180.71,103.64 180.71,105.29 186.46,109.71 		"/>
		<polygon fill="#BADBF9" points="180.71,111.19 185.7,111.19 180.71,107.35 		"/>
		<polygon fill="#FFFFFF" points="186.46,106 180.71,101.58 180.71,103.64 186.46,108.06 		"/>
		<polygon fill="#FFFFFF" points="186.46,109.71 180.71,105.29 180.71,107.35 185.7,111.19 186.46,111.19 		"/>
		<polygon fill="#BADBF9" points="176.75,101.07 170.99,101.07 170.99,101.58 176.75,106 		"/>
		<polygon fill="#BADBF9" points="176.75,108.06 170.99,103.64 170.99,105.29 176.75,109.71 		"/>
		<polygon fill="#BADBF9" points="170.99,111.19 175.98,111.19 170.99,107.35 		"/>
		<polygon fill="#FFFFFF" points="176.75,106 170.99,101.58 170.99,103.64 176.75,108.06 		"/>
		<polygon fill="#FFFFFF" points="176.75,109.71 170.99,105.29 170.99,107.35 175.98,111.19 176.75,111.19 		"/>
		<polygon fill="#BADBF9" points="224.39,115.72 218.63,115.72 218.63,116.23 224.39,120.65 		"/>
		<polygon fill="#BADBF9" points="224.39,122.71 218.63,118.29 218.63,119.94 224.39,124.37 		"/>
		<polygon fill="#BADBF9" points="218.63,125.84 223.62,125.84 218.63,122 		"/>
		<polygon fill="#FFFFFF" points="224.39,120.65 218.63,116.23 218.63,118.29 224.39,122.71 		"/>
		<polygon fill="#FFFFFF" points="224.39,124.37 218.63,119.94 218.63,122 223.62,125.84 224.39,125.84 		"/>
		<polygon fill="#BADBF9" points="215.01,115.72 209.26,115.72 209.26,116.23 215.01,120.65 		"/>
		<polygon fill="#BADBF9" points="215.01,122.71 209.26,118.29 209.26,119.94 215.01,124.37 		"/>
		<polygon fill="#BADBF9" points="209.26,125.84 214.24,125.84 209.26,122 		"/>
		<polygon fill="#FFFFFF" points="215.01,120.65 209.26,116.23 209.26,118.29 215.01,122.71 		"/>
		<polygon fill="#FFFFFF" points="215.01,124.37 209.26,119.94 209.26,122 214.24,125.84 215.01,125.84 		"/>
		<polygon fill="#BADBF9" points="205.29,115.72 199.54,115.72 199.54,116.23 205.29,120.65 		"/>
		<polygon fill="#BADBF9" points="205.29,122.71 199.54,118.29 199.54,119.94 205.29,124.37 		"/>
		<polygon fill="#BADBF9" points="199.54,125.84 204.53,125.84 199.54,122 		"/>
		<polygon fill="#FFFFFF" points="205.29,120.65 199.54,116.23 199.54,118.29 205.29,122.71 		"/>
		<polygon fill="#FFFFFF" points="205.29,124.37 199.54,119.94 199.54,122 204.53,125.84 205.29,125.84 		"/>
		<polygon fill="#BADBF9" points="195.84,115.72 190.09,115.72 190.09,116.23 195.84,120.65 		"/>
		<polygon fill="#BADBF9" points="195.84,122.71 190.09,118.29 190.09,119.94 195.84,124.37 		"/>
		<polygon fill="#BADBF9" points="190.09,125.84 195.07,125.84 190.09,122 		"/>
		<polygon fill="#FFFFFF" points="195.84,120.65 190.09,116.23 190.09,118.29 195.84,122.71 		"/>
		<polygon fill="#FFFFFF" points="195.84,124.37 190.09,119.94 190.09,122 195.07,125.84 195.84,125.84 		"/>
		<polygon fill="#BADBF9" points="186.46,115.72 180.71,115.72 180.71,116.23 186.46,120.65 		"/>
		<polygon fill="#BADBF9" points="186.46,122.71 180.71,118.29 180.71,119.94 186.46,124.37 		"/>
		<polygon fill="#BADBF9" points="180.71,125.84 185.7,125.84 180.71,122 		"/>
		<polygon fill="#FFFFFF" points="186.46,120.65 180.71,116.23 180.71,118.29 186.46,122.71 		"/>
		<polygon fill="#FFFFFF" points="186.46,124.37 180.71,119.94 180.71,122 185.7,125.84 186.46,125.84 		"/>
		<polygon fill="#BADBF9" points="176.75,115.72 170.99,115.72 170.99,116.23 176.75,120.65 		"/>
		<polygon fill="#BADBF9" points="176.75,122.71 170.99,118.29 170.99,119.94 176.75,124.37 		"/>
		<polygon fill="#BADBF9" points="170.99,125.84 175.98,125.84 170.99,122 		"/>
		<polygon fill="#FFFFFF" points="176.75,120.65 170.99,116.23 170.99,118.29 176.75,122.71 		"/>
		<polygon fill="#FFFFFF" points="176.75,124.37 170.99,119.94 170.99,122 175.98,125.84 176.75,125.84 		"/>
		<rect x="224.39" y="55.95" fill="#84C0EC" width="4.44" height="24.21"/>
		<path fill="#DF6093" d="M226.29,51.78h0.64c1.05,0,1.9,0.85,1.9,1.9v2.54l0,0h-4.44l0,0v-2.55
			C224.4,52.63,225.25,51.78,226.29,51.78z"/>
		<rect x="140.91" y="55.95" fill="#4E89B9" width="4.44" height="24.21"/>
		<path fill="#DF6093" d="M142.85,51.78h0.64c1.05,0,1.9,0.85,1.9,1.9v2.54l0,0h-4.44l0,0v-2.55
			C140.96,52.63,141.81,51.78,142.85,51.78z"/>
		<rect x="145.34" y="67.43" fill="#4DADDF" width="79.04" height="1.96"/>
		<rect x="188.78" y="56.67" fill="#4DADDF" width="1.96" height="23.48"/>
		<rect x="155.38" y="56.67" fill="#4DADDF" width="1.96" height="23.48"/>
		<rect x="145.34" y="73.79" fill="#4DADDF" width="79.04" height="1.96"/>
		<rect x="354.69" y="202.42" fill="#1E2C69" width="2.87" height="15.47"/>
		<polygon fill="#1E2C69" points="391.57,226.84 394.43,226.69 389.61,134.53 386.82,138.18 		"/>
		<path fill="#EDB6A3" d="M159.9,118.89c0,0,1.83,4.3,14.35,6.39l22.67,5.1v-5.75l-27.11-9l-2.21-3L159.9,118.89z"/>
		<rect x="129.91" y="226.43" fill="#EDB6A3" width="6.98" height="5.15"/>
		
			<rect x="156.15" y="222.96" transform="matrix(0.0991 -0.9951 0.9951 0.0991 -82.3402 361.9415)" fill="#EDB6A3" width="5.15" height="6.98"/>
		<path fill="#0949A7" d="M124.57,163.29l4.39,62.34l9.42,0.66l3.72-67.7l14.35,31.55l-2.24,33.65c0,0,1.85,2.61,8.3,1l6.44-33.59
			c0,0-3.52-30.17-11.09-44.43l-27.73-1.13L124.57,163.29z"/>
		<g>
			<defs>
				<path id="SVGID_3_" d="M124.57,163.29l4.39,62.34l9.42,0.66l3.72-67.7l14.35,31.55l-2.24,33.65c0,0,1.85,2.61,8.3,1l6.44-33.59
					c0,0-3.52-30.17-11.09-44.43l-27.73-1.13L124.57,163.29z"/>
			</defs>
			<clipPath id="SVGID_4_">
				<use xlink:href="#SVGID_3_"  overflow="visible"/>
			</clipPath>
			<g clip-path="url(#SVGID_4_)">
				<path fill="#123060" d="M137.89,199.03c-4.33,10.26-8.36,20.71-13.07,30.8c-4.37,9.43-11.84,14.31-20.66,19.23
					c-5.62,3.14-0.59,11.78,5.05,8.63c9-5,17.78-10.58,22.83-20c5.75-10.65,9.78-22.52,14.48-33.66c2.47-5.86-6.14-11-8.63-5.05
					V199.03z"/>
				<path fill="#123060" d="M142.58,161.3c4.54,13.2,9.08,26.41,12.83,39.85c3.67,13.14,8.55,28.06,4.93,41.66
					c-1.66,6.23,8,8.88,9.64,2.66c3.82-14.36-0.2-29.34-3.92-43.31c-3.93-14.71-8.89-29.12-13.84-43.51
					C150.14,152.65,140.48,155.19,142.58,161.3L142.58,161.3z"/>
				<path fill="#123060" d="M149.11,194.41l0.92,42.65c0.14,6.43,10.14,6.45,10,0l-0.92-42.65
					C158.97,187.99,148.97,187.96,149.11,194.41L149.11,194.41z"/>
				<path fill="#123060" d="M157.07,212.25c-1.47,6.89-2.43,13.87-2.89,20.9c-0.41,6.43,9.59,6.4,10,0
					c0.4-6.13,1.24-12.23,2.53-18.24C168.05,208.63,158.41,205.91,157.07,212.25L157.07,212.25z"/>
			</g>
		</g>
		<path fill="none" stroke="#0D1144" stroke-width="2" stroke-miterlimit="10" d="M157.81,140.93c0,0-7.27,9.58-33.24,2.9"/>
		<path fill="#FBFCF7" d="M141.12,85.24c0,0-3.58-2.35-11,0l2.78,59.69l14.92-0.32L141.12,85.24z"/>
		<path fill="#FBFCF7" d="M112.29,116.8c0,0-2.45,0.3-6.15-4c-1.12-1.29-1.22-3.18-0.24-4.58l14.09-20c0,0,7.69,3.13,5.08,16.82
			L112.29,116.8z"/>
		<path fill="#FBFCF7" d="M152.6,88.24l1.85,24.52l5.48,6.13c2.75-2.1,5.32-4.41,7.7-6.91C167.63,111.98,156.51,89.67,152.6,88.24z"
			/>
		<path fill="#E14C7C" d="M130.13,85.24c-8.38,0.43-10.14,3-10.14,3l0.54,8.9h15.19C133.99,89.24,130.13,85.24,130.13,85.24z"/>
		<polygon fill="#E14C7C" points="123.38,143.67 137.21,145.5 136.97,131.15 122.62,131.15 		"/>
		<path fill="#E14C7C" d="M122.09,122.67h14.74l-0.28-16.82v-0.2h-15.5L122.09,122.67z"/>
		<path fill="#F2C7D6" d="M120.53,97.14l0.52,8.48h15.5c0.05-2.85-0.23-5.7-0.83-8.48H120.53z"/>
		<polygon fill="#F2C7D6" points="122.62,131.15 136.97,131.15 136.83,122.67 122.1,122.67 		"/>
		<path fill="#E14C7C" d="M152.6,88.24c-3.6-1.73-7.5-2.75-11.48-3c0,0-0.11,4.84-0.06,11.93h12.44L152.6,88.24z"/>
		<path fill="#E14C7C" d="M144.9,144.59c0,0,5.48,1.3,12.91-4.57l-0.89-8.87h-14.26C143.09,135.68,143.84,140.17,144.9,144.59z"/>
		<path fill="#E14C7C" d="M141.18,105.65c0.13,5.37,0.35,11.27,0.75,17h14.14l-1.72-17H141.18z"/>
		<path fill="#F2C7D6" d="M142.66,131.14h14.26l-0.85-8.48h-14.14C142.13,125.56,142.37,128.42,142.66,131.14z"/>
		<path fill="#F2C7D6" d="M153.5,97.14h-12.44c0,2.58,0,5.44,0.12,8.48h13.17L153.5,97.14z"/>
		<path fill="#F78B87" d="M132.24,73.82h6.38l0,0v10.32c0.01,1.3-1.04,2.35-2.34,2.36c0,0,0,0,0,0h-1.69c-1.3,0-2.35-1.05-2.35-2.35
			c0,0,0,0,0,0L132.24,73.82L132.24,73.82z"/>
		<path fill="#F6B5A5" d="M139.55,80.14c0,0,6.56,0.21,8.25-11.38c0,0,0.84-5,2.17-6.92l-2-0.86c-1.53-0.62-3.25-0.57-4.73,0.15
			l-9.79,4.52c0,0-5.2-2.8-2.58,4.56l2,5C132.87,75.21,132.95,77.84,139.55,80.14z"/>
		<path fill="#26237F" d="M128.01,75.95c-4.32-4.81-10.56-14.81,1.14-23.43c0,0,6.24-3.77,12,1.18c0,0,13.68-9.76,11.84,6
			c0,0,0.09,4.79-7.8,4.82c-2.03,0.03-4.01,0.64-5.7,1.76l-4.94,3.19c-0.79,0.51-1.24,1.41-1.19,2.35l0.22,4l0,0
			c-1.33,1.57-3.69,1.76-5.26,0.43C128.22,76.16,128.11,76.06,128.01,75.95z"/>
		<path fill="#01011F" d="M155.14,144.66l0.85-0.15c2.97-0.53,5.81,1.44,6.34,4.41l0.79,4.4c0.53,2.97-1.44,5.81-4.41,6.34
			l-0.85,0.15c-2.97,0.53-5.81-1.44-6.34-4.41l-0.79-4.4C150.2,148.03,152.17,145.19,155.14,144.66z"/>
		<path fill="#0E1343" d="M155.65,144.59L155.65,144.59c2.97-0.53,5.81,1.44,6.34,4.41l0.59,3.3c0.53,2.97-1.44,5.81-4.41,6.34l0,0
			c-2.97,0.53-5.81-1.44-6.34-4.41l-0.59-3.3C150.71,147.96,152.69,145.13,155.65,144.59z"/>
		<ellipse fill="#283073" cx="156.41" cy="147.87" rx="4.23" ry="3.62"/>
		<path fill="#01011F" d="M134.86,148.88v17.74c0,0-8,0.26-13.81-2.22v-17.62C121.05,146.78,123.64,145.88,134.86,148.88z"/>
		<path fill="#0E1343" d="M134.37,147.96v17.74c0,0-8,0.26-13.81-2.22v-17.61C120.56,145.87,123.15,144.96,134.37,147.96z"/>
		<path fill="#283073" d="M127.87,154.4v5.81c-1.54,0.04-3.07-0.2-4.52-0.72v-5.77C123.35,153.72,124.2,153.42,127.87,154.4z"/>
		<path fill="none" stroke="#283073" stroke-linecap="round" stroke-miterlimit="10" d="M133.1,152.14
			c-3.14-0.26-6.24-0.81-9.27-1.66"/>
		<path fill="#F67D92" d="M114.67,136.23h1.18c6.58,0,11.92,5.34,11.92,11.92l0,0l0,0h-25l0,0l0,0c0-6.58,5.34-11.92,11.92-11.92
			H114.67z"/>
		<path fill="#F34868" d="M100.99,148.15h28.87c0.96,0,1.74,0.78,1.74,1.74v0c0,0.96-0.78,1.74-1.74,1.74h-28.87
			c-0.96,0-1.74-0.78-1.74-1.74v0C99.25,148.93,100.03,148.15,100.99,148.15z"/>
		<path fill="#F34868" d="M113.54,148.16V136.8c0-0.71,0.58-1.29,1.29-1.29h0.69c0.99,0,1.79,0.8,1.79,1.79v10.86l0,0H113.54
			L113.54,148.16z"/>
		<path fill="#EDB6A3" d="M110.99,116.81l-6.17-6l-6.16,8.12c0,0,4.5,25.43,8.12,33.65c2.48,2.07,5.37,3.57,8.49,4.41l6.28-1.23
			l-0.5-2.88l-7.13-2.95l-4.2-8.32l-2.06-21.51L110.99,116.81z"/>
		<path fill="#233CB6" d="M136.88,229.37c-2.28,0.75-4.74,0.73-7-0.07c0,0-1.53,11-0.69,13c0,0,7,3,11.61,0
			c1.21-0.84,1.63-2.43,1-3.76C140.99,236.65,137.76,233.38,136.88,229.37z"/>
		<path fill="#233CB6" d="M154.88,225.72l-3,6.48c-0.56,1.2-0.04,2.63,1.16,3.19c0.08,0.04,0.17,0.07,0.26,0.1l16.15,5.29
			c0,0,7.17-1.63,0.45-7.53l-7.37-4.86l-0.52-0.72L154.88,225.72z"/>
		<path fill="#27124F" d="M279.11,241.42v-10.28l-6.66,1.57c0,0-6.69,3.28-10.23,4.47c-1.09,0.37-1.82,1.39-1.81,2.54v1.7
			c0,1.49,1.2,2.69,2.69,2.69l0,0h13.35C277.93,244.1,279.11,242.9,279.11,241.42z"/>
		<path fill="#F5B3AB" d="M272.4,222.91h6.72l0,0v9.1c0,1.86-1.5,3.36-3.36,3.36l0,0c-1.86,0-3.36-1.5-3.36-3.36L272.4,222.91
			L272.4,222.91z"/>
		
			<line fill="none" stroke="#E14C7C" stroke-linecap="round" stroke-miterlimit="10" x1="268.67" y1="234.1" x2="270.18" y2="236.64"/>
		
			<line fill="none" stroke="#E14C7C" stroke-linecap="round" stroke-miterlimit="10" x1="266.58" y1="235.34" x2="268.1" y2="237.88"/>
		
			<line fill="none" stroke="#E14C7C" stroke-linecap="round" stroke-miterlimit="10" x1="264.3" y1="236.33" x2="265.81" y2="238.87"/>
		<path fill="#27124F" d="M331.19,223.68l-7.42-6.65l-2.71,6.32c0,0-1.54,7.43-2.75,11c-0.37,1.09-0.07,2.29,0.77,3.07l1.22,1.1
			c0.96,0.87,2.44,0.79,3.31-0.16c0.07-0.08,0.14-0.16,0.19-0.25l7.75-10.57C332.39,226.34,332.24,224.71,331.19,223.68z"/>
		<path fill="#F5B3AB" d="M325.24,221.96l-0.71,1c-0.74,1.08-2.22,1.36-3.31,0.62c-0.09-0.06-0.18-0.13-0.26-0.21l-7-6.25l3.91-5.34
			l7,6.26C325.96,219.07,326.12,220.75,325.24,221.96z"/>
		
			<line fill="none" stroke="#E14C7C" stroke-linecap="round" stroke-miterlimit="10" x1="319.84" y1="227.27" x2="322.56" y2="227.7"/>
		
			<line fill="none" stroke="#E14C7C" stroke-linecap="round" stroke-miterlimit="10" x1="319.52" y1="229.73" x2="322.23" y2="230.16"/>
		
			<line fill="none" stroke="#E14C7C" stroke-linecap="round" stroke-miterlimit="10" x1="318.9" y1="232.18" x2="321.62" y2="232.61"/>
		<path fill="#2A3294" d="M266.36,143.47l1.76,80.51c0,0,8.8,5.7,14.08,0v-44.84c0,0-2.54,11.54,30.72,41.67
			c0,0,8.22,0.66,9.39-9.06l-26.22-36.91l3.36-10.56c0,0-3.7-17.23-8.6-22L266.36,143.47z"/>
		<g>
			<defs>
				<path id="SVGID_5_" d="M266.36,143.47l1.76,80.51c0,0,8.8,5.7,14.08,0v-44.84c0,0-2.54,11.54,30.72,41.67
					c0,0,8.22,0.66,9.39-9.06l-26.22-36.91l3.36-10.56c0,0-3.7-17.23-8.6-22L266.36,143.47z"/>
			</defs>
			<clipPath id="SVGID_6_">
				<use xlink:href="#SVGID_5_"  overflow="visible"/>
			</clipPath>
			<g clip-path="url(#SVGID_6_)">
				<path fill="#171766" d="M289.65,143.94c5.17,19.18,11.68,38,16.63,57.24s1.23,39.3,5.4,58.72c1.35,6.29,11,3.63,9.64-2.66
					c-2.16-10.07-1.77-20.33-1.92-30.58c-0.03-9.49-1.2-18.93-3.48-28.14c-5-19.22-11.45-38.06-16.63-57.24
					C297.61,135.08,287.96,137.71,289.65,143.94L289.65,143.94z"/>
				<path fill="#171766" d="M279.45,163.53c2.35,24.42,11.67,47.65,26.84,66.93c4,5.07,11-2,7.07-7.07
					c-13.47-17.29-21.76-38.05-23.91-59.86C288.82,157.19,278.82,157.12,279.45,163.53z"/>
				<path fill="#171766" d="M284.7,162.85c11.03,32.97,26.45,64.31,45.85,93.17c3.58,5.31,12.25,0.31,8.64-5
					c-18.96-28.1-34.05-58.64-44.85-90.77c-2-6.08-11.69-3.47-9.64,2.65V162.85z"/>
				<path fill="#171766" d="M313.58,206.02c5.9,9.18,10.79,18.98,14.59,29.21c2.21,6,11.88,3.4,9.64-2.66
					c-4.05-11.06-9.28-21.65-15.6-31.59c-3.45-5.41-12.1-0.4-8.63,5V206.02z"/>
				<path fill="#171766" d="M290.75,164.04l17.43-47.27c2.23-6-7.43-8.66-9.64-2.66l-17.43,47.27
					C278.88,167.38,288.54,170.04,290.75,164.04z"/>
			</g>
		</g>
		<path fill="#EDB6A3" d="M237.83,119.8c-7.17,3.78-15.33,5.27-23.38,4.27l0.71,5.38c0,0,23.16-0.26,27.73-6.78L237.83,119.8z"/>
		<path fill="#F78B87" d="M277.18,99.75L277.18,99.75c-1.25,0.01-2.27-0.99-2.28-2.24c0-0.01,0-0.01,0-0.02v-9.28l0,0h4.52l0,0v9.28
			C279.42,98.73,278.42,99.74,277.18,99.75z"/>
		<path fill="#6BDDCD" d="M288.18,98.72l-19.08,1.11c-0.38,0.02-0.75,0.11-1.09,0.26c-4.45,2.02-8.39,5-11.56,8.72
			c0,0-10.62,7.57-14.42,7.87l3.75,9.46l19.08-9.56l1.59,26.89c0,0,6.35,6.55,24.45-1.21v-29.37l6.46,17l9.59-4.68l-12-23.31
			c0,0-0.25-1.07-2-2.14C291.51,98.94,289.84,98.58,288.18,98.72z"/>
		<path fill="#F5F9FC" d="M278.45,98.25l-3,0.55c0,0,1.78,24.62-5.78,31.8l3.24,7.72l5.58-5.43
			C278.49,132.89,280.38,100.2,278.45,98.25z"/>
		<path fill="#F6B5A5" d="M272.35,92.37c0,0-4.54-0.94-3.78-9.19c0,0,0.24-3.58-0.35-5.12l1.54-0.26c1.15-0.18,2.33,0.14,3.23,0.89
			l6,4.71c0,0,4-1.07,1,3.57l-2.23,3.17C277.76,90.14,277.28,91.87,272.35,92.37z"/>
		<path fill="#F5716C" d="M218.12,111.76c0,0,3.88,0,4.53,6.48h-7.46C215.19,118.24,215.52,111.76,218.12,111.76z"/>
		<path fill="#F8FDFC" d="M218.76,111.76l-22-2c0,0-7.13,2.6-0.65,21.39c0,0,2.59,8.43-2.59,13.61h22.68
			c2.06-4.24,2.45-9.1,1.09-13.62c-0.36-1.08-0.62-2.19-0.79-3.32C215.83,123.14,214.66,111.76,218.76,111.76z"/>
		
			<line fill="none" stroke="#F5716C" stroke-width="0.5" stroke-linecap="round" stroke-miterlimit="10" x1="195.43" y1="113.7" x2="212.93" y2="115"/>
		
			<line fill="none" stroke="#F5716C" stroke-width="0.5" stroke-linecap="round" stroke-miterlimit="10" x1="195.43" y1="116.94" x2="212.93" y2="118.24"/>
		
			<line fill="none" stroke="#F5716C" stroke-width="0.5" stroke-linecap="round" stroke-miterlimit="10" x1="195.43" y1="120.18" x2="212.93" y2="121.48"/>
		
			<line fill="none" stroke="#F5716C" stroke-width="0.5" stroke-linecap="round" stroke-miterlimit="10" x1="195.43" y1="123.43" x2="212.93" y2="124.72"/>
		
			<line fill="none" stroke="#F5716C" stroke-width="0.5" stroke-linecap="round" stroke-miterlimit="10" x1="195.43" y1="126.67" x2="212.93" y2="127.96"/>
		
			<line fill="none" stroke="#F5716C" stroke-width="0.5" stroke-linecap="round" stroke-miterlimit="10" x1="197.05" y1="130.23" x2="214.55" y2="131.53"/>
		
			<line fill="none" stroke="#F5716C" stroke-width="0.5" stroke-linecap="round" stroke-miterlimit="10" x1="197.7" y1="134.12" x2="215.2" y2="135.42"/>
		
			<line fill="none" stroke="#F5716C" stroke-width="0.5" stroke-linecap="round" stroke-miterlimit="10" x1="198.35" y1="138.01" x2="215.85" y2="139.3"/>
		
			<line fill="none" stroke="#F5716C" stroke-width="0.5" stroke-linecap="round" stroke-miterlimit="10" x1="197.38" y1="140.93" x2="214.88" y2="142.22"/>
		<path fill="#272D74" d="M278.84,83.4c0,0-3.56-0.61-2.29-4.42c0,0-7.43,3.81-10.95-3.53c0,0,4.59-15.26,20.44-2.34
			c0,0,7.93,9.29-3.32,17.41c-0.87,1.01-2.08,1.67-3.4,1.85v-4.16C279.32,88.21,283.37,82.06,278.84,83.4z"/>
		<polygon fill="#3660C9" points="278.48,102.28 278.48,97.06 281.51,94.16 283.76,98.22 278.48,103.25 		"/>
		<path fill="#3660C9" d="M275.72,103.25v-7.11l-2.82,1.82c0,0,0.87,4.5,2.82,5.74"/>
		<path fill="#2A5FC9" d="M238.49,116.41l2.72-0.9c0.88-0.29,1.83,0.19,2.12,1.07l2.69,8.14c0.29,0.88-0.19,1.83-1.07,2.12
			l-2.72,0.9c-0.88,0.29-1.83-0.19-2.12-1.07l-2.69-8.14C237.13,117.65,237.61,116.7,238.49,116.41z"/>
		<path fill="#2A5FC9" d="M296.86,131.4l-0.93-2.82c-0.29-0.88,0.19-1.83,1.07-2.12l8.34-2.76c0.88-0.29,1.83,0.19,2.12,1.07
			l0.93,2.82c0.29,0.88-0.19,1.83-1.07,2.12l-8.34,2.76C298.1,132.76,297.15,132.28,296.86,131.4z"/>
		<path fill="#2A5FC9" d="M291.06,137.87c0,0-13,6.26-24.7,1.56l0.24,4c0,0,6.17,6.61,24.46-1.21L291.06,137.87z"/>
		<path fill="#EDB6A3" d="M300.32,132.03c0,0,5.3,19,2.86,27.07l9.58-0.79c-3-9.26-4.83-18.87-5.44-28.59L300.32,132.03z"/>
		<path fill="none" stroke="#E63C6F" stroke-miterlimit="10" d="M305.01,158.61h6.26c1.49,0,2.69,1.2,2.69,2.69l0,0v6.41l0,0h-11.64
			l0,0v-6.41C302.32,159.82,303.53,158.61,305.01,158.61L305.01,158.61z"/>
		<path fill="#FAD2CA" d="M295.61,163.37h17.47c2.88,0,5.22,2.34,5.22,5.22v13.3c0,2.88-2.34,5.22-5.22,5.22h-17.47
			c-2.88,0-5.22-2.34-5.22-5.22v-13.3C290.39,165.71,292.73,163.37,295.61,163.37z"/>
		<path fill="#F58188" d="M298.85,163.37h20.54c2.88,0,5.22,2.34,5.22,5.22l0,0v13.3c0,2.88-2.34,5.22-5.22,5.22l0,0h-20.54
			c-1.19,0-2.15-0.96-2.15-2.15V165.5C296.71,164.32,297.67,163.37,298.85,163.37z"/>
	</g>
</g>
</svg>
