<?xml version="1.0" encoding="utf-8"?>
<!-- Generator: Adobe Illustrator 24.3.0, SVG Export Plug-In . SVG Version: 6.00 Build 0)  -->
<svg version="1.1" id="Layer_1" xmlns="http://www.w3.org/2000/svg" xmlns:xlink="http://www.w3.org/1999/xlink" x="0px" y="0px"
	 viewBox="0 0 324.3 282.66" enable-background="new 0 0 324.3 282.66" xml:space="preserve">
<g id="Layer_2_1_">
	<g id="Layer_1-2">
		<path fill="none" stroke="#D9F0FF" stroke-miterlimit="10" d="M212.1,57.05c-16.25-21.57-28.77-39.33-61.48-39.76
			C99.27,16.61,56.52,51.1,55.8,93.85c-0.72,43.41,41.33,78.79,93.3,78.79c5.18,0,10.34-0.36,15.47-1.07
			c4.67-0.63,9.42,0.35,13.46,2.79c13.27,7.89,28.51,11.85,43.95,11.41c37.93-0.76,68.86-26.52,69.78-58.1
			c0.67-23.38-14.82-43.78-37.83-54C243.45,68.97,218.41,65.43,212.1,57.05z"/>
		<ellipse fill="#D9F0FF" cx="160.3" cy="266.66" rx="104" ry="16"/>
		<rect x="69.05" y="255.11" fill="#2A1F7E" width="9.49" height="6.75"/>
		<rect x="241.05" y="255.11" fill="#2A1F7E" width="9.49" height="6.75"/>
		<path fill="#D9F0FF" d="M196.09,50.94c-16.56-23.78-29.32-43.29-62.66-43.78C81.1,6.42,37.53,44.39,36.8,91.46
			c-0.74,47.79,42.12,86.7,95.09,86.7c5.28,0,10.55-0.39,15.77-1.17c4.79-0.68,9.67,0.41,13.71,3.07
			c13.31,8.64,28.93,13.03,44.79,12.59c38.66-0.84,70.18-29.2,71.11-64c0.69-25.73-15.1-48.19-38.55-59.47
			C228.04,64.06,202.53,60.16,196.09,50.94z"/>
		<g>
			<defs>
				<path id="SVGID_1_" d="M196.09,50.94c-16.56-23.78-29.32-43.29-62.66-43.78C81.1,6.42,37.53,44.39,36.8,91.46
					c-0.74,47.79,42.12,86.7,95.09,86.7c5.28,0,10.55-0.39,15.77-1.17c4.79-0.68,9.67,0.41,13.71,3.07
					c13.31,8.64,28.93,13.03,44.79,12.59c38.66-0.84,70.18-29.2,71.11-64c0.69-25.73-15.1-48.19-38.55-59.47
					C228.04,64.06,202.53,60.16,196.09,50.94z"/>
			</defs>
			<clipPath id="SVGID_2_">
				<use xlink:href="#SVGID_1_"  overflow="visible"/>
			</clipPath>
			<g clip-path="url(#SVGID_2_)">
				<path fill="#FFFFFF" d="M225.62,50.43c-12.47-5.43-25.86-8.44-39.46-8.88c-14-0.39-28,1.87-42,2.74
					c-12.37,0.78-24.6,0-36.58-3.26c-10.86-3-21.17-7.72-30.52-14c-10.51-7-19.58-15.94-26.73-26.35c-1.08-1.59-3.68-0.09-2.59,1.48
					c13.02,18.78,31.78,32.81,53.47,40c11.18,3.73,22.91,5.54,34.7,5.38c14.4-0.16,28.65-2.66,43-3.06
					c15.53-0.5,30.97,2.42,45.25,8.54c1.75,0.76,3.28-1.83,1.51-2.59H225.62z"/>
				<path fill="#FFFFFF" d="M263.95,63.73c-13,14.44-31,23.09-49.75,27.57c-9.65,2.27-19.5,3.61-29.41,4
					c-11.67,0.64-23.38-0.37-34.77-3c-11-2.67-21.75-6.23-33-8.12c-10.02-1.77-20.2-2.38-30.36-1.84
					c-10.08,0.5-20.01,2.63-29.41,6.32c-9.1,3.69-17.4,9.13-24.41,16c-14.07,13.82-22.68,32.13-29.99,50.19
					c-0.93,2.3-1.84,4.6-2.75,6.91c-0.7,1.8,2.2,2.58,2.9,0.8c7.11-18.13,14.87-36.77,28-51.51c6.44-7.37,14.29-13.39,23.08-17.69
					c9.08-4.25,18.83-6.86,28.82-7.72c10.14-0.9,20.34-0.56,30.4,1c10.91,1.61,21.38,4.78,32,7.59c5.73,1.57,11.56,2.73,17.46,3.47
					c5.95,0.64,11.94,0.88,17.92,0.71c9.76-0.14,19.49-1.14,29.07-3c18.78-3.81,37.22-11.41,51.41-24.55c1.72-1.6,3.36-3.27,4.93-5
					c1.3-1.43-0.82-3.56-2.12-2.12L263.95,63.73z"/>
				<path fill="#FFFFFF" d="M287.56,100.22c-17.62,8.49-30,24.31-46.43,34.58c-9.4,5.87-19.81,8.75-30.76,10
					c-11.82,1.38-24,2-35.67-0.76c-10.71-2.55-20.67-7.36-30.59-12c-10.26-4.8-20.6-9.11-31.62-11.89
					c-5.77-1.46-11.63-2.62-17.52-3.53c-5.86-1.01-11.82-1.4-17.76-1.15c-10.22,0.72-19.98,4.52-28,10.9
					c-17.36,13.43-26.05,33.9-37.81,51.71c-1.54,2.33-3.15,4.62-4.83,6.85c-1.17,1.54,1.44,3,2.59,1.51
					c13.07-17.3,21-38.41,36.93-53.49c7.26-6.85,16-12.14,26-13.87c11.7-2,24.07,0.41,35.5,3c11.17,2.62,22.03,6.42,32.39,11.34
					c9.74,4.51,19.42,9.37,29.76,12.42c11.34,3.34,23,3.57,34.68,2.58c11.17-0.93,22.37-2.69,32.49-7.77
					c17.3-8.68,29.57-24.42,46-34.43c2.02-1.24,4.1-2.37,6.24-3.4c1.74-0.84,0.22-3.42-1.52-2.59L287.56,100.22z"/>
			</g>
		</g>
		<ellipse fill="#D9F0FF" cx="36.8" cy="241.46" rx="15.5" ry="7.17"/>
		<rect x="283.3" y="132.66" fill="#D3E8F0" width="41" height="96"/>
		<rect x="287.8" y="137.16" fill="#98BEEC" width="32" height="45"/>
		<line fill="none" stroke="#98BEEC" stroke-width="2" stroke-miterlimit="10" x1="287.8" y1="187.16" x2="319.8" y2="187.16"/>
		<line fill="none" stroke="#98BEEC" stroke-width="2" stroke-miterlimit="10" x1="287.8" y1="192.16" x2="319.8" y2="192.16"/>
		<line fill="none" stroke="#98BEEC" stroke-width="2" stroke-miterlimit="10" x1="287.8" y1="197.16" x2="319.8" y2="197.16"/>
		<line fill="none" stroke="#98BEEC" stroke-width="2" stroke-miterlimit="10" x1="287.8" y1="202.16" x2="319.8" y2="202.16"/>
		<line fill="none" stroke="#98BEEC" stroke-width="2" stroke-miterlimit="10" x1="287.8" y1="207.16" x2="319.8" y2="207.16"/>
		<line fill="none" stroke="#98BEEC" stroke-width="2" stroke-miterlimit="10" x1="287.8" y1="212.16" x2="319.8" y2="212.16"/>
		<line fill="none" stroke="#98BEEC" stroke-width="2" stroke-miterlimit="10" x1="287.8" y1="217.16" x2="319.8" y2="217.16"/>
		<line fill="none" stroke="#98BEEC" stroke-width="2" stroke-miterlimit="10" x1="287.8" y1="222.16" x2="319.8" y2="222.16"/>
		<path fill="#6BDDCD" d="M314.02,200.34c-15.73,5.65-26.56-8.54-26.56-8.54s-17.06,5.23-26.56-8.53c0,0-26,46.81,5.45,74.23
			C307.91,253.55,314.02,200.34,314.02,200.34z"/>
		<path fill="#3DA8A8" d="M305.59,205.86c-12.16,4.37-20.53-6.59-20.53-6.59s-13.18,4-20.52-6.6c0,0-20.12,36.18,4.21,57.36
			C300.86,246.98,305.59,205.86,305.59,205.86z"/>
		<polyline fill="none" stroke="#FFFFFF" stroke-width="3" stroke-miterlimit="10" points="270.72,218.53 276.96,226.83 
			293.98,216.63 		"/>
		<path fill="#68A5EE" d="M108.41,129.16h95.85c22.94,0,41.54,18.6,41.54,41.54v28.46l0,0h-172l0,0v-35.4
			C73.81,144.65,89.3,129.16,108.41,129.16z"/>
		<ellipse fill="#D5E7F5" cx="37.3" cy="240.66" rx="15.5" ry="5.5"/>
		<path fill="#A1C6FC" d="M27.8,217.16h18l0,0v18c0,4.97-4.03,9-9,9l0,0c-4.97,0-9-4.03-9-9V217.16L27.8,217.16z"/>
		<path fill="#3DA8A8" d="M36.79,217.16c0,0,7-48-23-57c0,0-6,3,5,12c0,0-8,6,8,16c0,0-7,7,5,18l3.48,11H36.79z"/>
		<path fill="#6BDDCD" d="M26.79,170.16c0,0,0-6,7-9c0,0-4-19,11-19c0,0,5,7,1,20c0,0,9.2,6.44,2.9,14.91
			c-0.61,0.81-0.88,1.82-0.75,2.83c0.11,0.8,0.28,1.58,0.52,2.35c1.08,3.56,1.3,7.34,0.63,11c-1,5.37-3.22,13.4-8.26,23.95h-5
			C35.83,217.2,38.79,181.16,26.79,170.16z"/>
		<path fill="none" stroke="#FFFFFF" stroke-linecap="round" stroke-linejoin="round" d="M37.91,217.16c0,0-3.12-51,2.88-67"/>
		<rect x="70.8" y="226.16" fill="#A0C5FB" width="180" height="31"/>
		<rect x="70.8" y="198.16" fill="#3B81D4" width="180" height="31"/>
		<g>
			<defs>
				<rect id="SVGID_3_" x="70.79" y="198.16" width="180" height="31"/>
			</defs>
			<clipPath id="SVGID_4_">
				<use xlink:href="#SVGID_3_"  overflow="visible"/>
			</clipPath>
			<g clip-path="url(#SVGID_4_)">
				<path fill="#195CBD" d="M223.77,209.45c-0.88,20.3-18.55,33.19-36.55,38.38c-7.34,2.12-4.22,13.61,3.17,11.48
					c23.34-6.73,44.17-24.08,45.28-49.86C236.01,201.79,224.1,201.81,223.77,209.45z"/>
				<path fill="#195CBD" d="M77.71,202.83c5.38,6.49,9.75,13.73,15.3,20.09c5.15,5.87,10.93,11.17,17.23,15.8
					c12.37,9.34,27.22,14.84,42.69,15.81c7.65,0.41,7.63-11.5,0-11.91c-13.94-0.75-27-6.59-38-15.14
					c-11.86-9.32-19.3-21.6-28.77-33.07c-4.89-5.9-13.27,2.56-8.42,8.42H77.71z"/>
				<path fill="#195CBD" d="M87.23,223.1c8.59,6.28,17.7,11.82,27.22,16.56c6.84,3.42,12.88-6.85,6-10.28
					c-9.52-4.75-18.63-10.29-27.22-16.56C87.04,208.3,81.09,218.62,87.23,223.1z"/>
				<path fill="#195CBD" d="M110.41,235.87c19,0.68,38.08,1.77,57.11,1.88s37.78-3.41,56.74-2.4c7.66,0.41,7.64-11.49,0-11.9
					c-19-1-37.78,2.5-56.74,2.39s-38.09-1.2-57.11-1.88C102.75,223.68,102.76,235.59,110.41,235.87L110.41,235.87z"/>
				<path fill="#195CBD" d="M235.43,220.16c-0.43-1.09,1.18-5,1.46-6.23c0.45-1.86,0.9-3.71,1.37-5.56
					c1.09-4.31,2.26-8.61,3.47-12.89c2.1-7.38-9.38-10.53-11.48-3.16c-1.56,5.5-3,11-4.39,16.59c-1,4.22-3.6,10.2-1.91,14.42
					C226.77,230.33,238.29,227.33,235.43,220.16z"/>
				<path fill="#195CBD" d="M224.58,202.88c-2.6,10.56-5.68,20.97-9.25,31.24c-2.52,7.25,9,10.37,11.48,3.16
					c3.57-10.26,6.65-20.67,9.25-31.23C237.89,198.61,226.41,195.43,224.58,202.88L224.58,202.88z"/>
				<path fill="#195CBD" d="M99.36,213c-1.45-4.68-2.2-9.55-2.2-14.45c0-7.66-11.9-7.67-11.9,0c-0.01,5.97,0.87,11.9,2.61,17.61
					C90.09,223.48,101.59,220.36,99.36,213z"/>
				<path fill="#195CBD" d="M87.67,221.5c6.16,8.6,15.21,14.69,25.49,17.16c7.45,1.76,10.63-9.72,3.16-11.48
					c-7.32-1.58-13.83-5.73-18.36-11.69C93.45,209.4,83.11,215.33,87.67,221.5L87.67,221.5z"/>
				<path fill="#195CBD" d="M222.45,218.25c-6.5,8.3-15.05,14.76-24.81,18.76c-7,2.81-4,14.33,3.16,11.48
					c11.75-4.53,22.12-12.06,30.07-21.83C235.63,220.75,227.26,212.27,222.45,218.25L222.45,218.25z"/>
				<path fill="#195CBD" d="M224.43,213.16c-13.07,11.82-27.55,21.97-43.12,30.22c-6.76,3.61-0.75,13.89,6,10.28
					c16.44-8.77,31.74-19.55,45.53-32.08C238.53,216.42,230.09,208.02,224.43,213.16L224.43,213.16z"/>
				<path fill="#195CBD" d="M98.43,227.86c10.87,5.61,22.69,7.21,34.69,8.57c7.61,0.86,7.54-11.06,0-11.91
					c-9.8-1.11-19.8-2.36-28.68-6.94C97.64,214.08,91.61,224.35,98.43,227.86L98.43,227.86z"/>
			</g>
		</g>
		<path fill="#87BCFA" d="M73.8,170.16L73.8,170.16c9.94,0,18,8.06,18,18v51c0,9.94-8.06,18-18,18l0,0c-9.94,0-18-8.06-18-18v-51
			C55.8,178.22,63.86,170.16,73.8,170.16z"/>
		<path fill="#87BCFA" d="M245.8,170.16L245.8,170.16c9.94,0,18,8.06,18,18v51c0,9.94-8.06,18-18,18h0c-9.94,0-18-8.06-18-18v-51
			C227.8,178.22,235.86,170.16,245.8,170.16z"/>
		<path fill="#3DA8A8" d="M296.29,41.66c0,0,6,0,7,10h-11.51C291.78,51.66,292.29,41.66,296.29,41.66z"/>
		<path fill="#6BDDCD" d="M297.29,41.66l-34-3c0,0-11,4-1,33c0,0,4,13-4,21h35c0,0,5.36-9.83,1.73-21
			c-0.55-1.67-0.96-3.38-1.22-5.11C292.77,59.16,290.96,41.66,297.29,41.66z"/>
		
			<line fill="none" stroke="#FFFFFF" stroke-linecap="round" stroke-linejoin="round" x1="261.3" y1="44.66" x2="288.3" y2="46.66"/>
		
			<line fill="none" stroke="#FFFFFF" stroke-linecap="round" stroke-linejoin="round" x1="261.3" y1="49.66" x2="288.3" y2="51.66"/>
		
			<line fill="none" stroke="#FFFFFF" stroke-linecap="round" stroke-linejoin="round" x1="261.3" y1="54.66" x2="288.3" y2="56.66"/>
		
			<line fill="none" stroke="#FFFFFF" stroke-linecap="round" stroke-linejoin="round" x1="261.3" y1="59.66" x2="288.3" y2="61.66"/>
		
			<line fill="none" stroke="#FFFFFF" stroke-linecap="round" stroke-linejoin="round" x1="261.3" y1="64.66" x2="288.3" y2="66.66"/>
		
			<line fill="none" stroke="#FFFFFF" stroke-linecap="round" stroke-linejoin="round" x1="263.8" y1="70.16" x2="290.8" y2="72.16"/>
		
			<line fill="none" stroke="#FFFFFF" stroke-linecap="round" stroke-linejoin="round" x1="264.8" y1="76.16" x2="291.8" y2="78.16"/>
		
			<line fill="none" stroke="#FFFFFF" stroke-linecap="round" stroke-linejoin="round" x1="265.8" y1="82.16" x2="292.8" y2="84.16"/>
		
			<line fill="none" stroke="#FFFFFF" stroke-linecap="round" stroke-linejoin="round" x1="264.3" y1="86.66" x2="291.3" y2="88.66"/>
		<line fill="none" stroke="#FFFFFF" stroke-linecap="round" stroke-miterlimit="10" x1="299.3" y1="62.66" x2="299.3" y2="56.66"/>
		<line fill="none" stroke="#FFFFFF" stroke-linecap="round" stroke-miterlimit="10" x1="296.3" y1="59.66" x2="302.3" y2="59.66"/>
		<line fill="none" stroke="#FFFFFF" stroke-linecap="round" stroke-miterlimit="10" x1="251.3" y1="61.66" x2="251.3" y2="55.66"/>
		<line fill="none" stroke="#FFFFFF" stroke-linecap="round" stroke-miterlimit="10" x1="248.3" y1="58.66" x2="254.3" y2="58.66"/>
		<line fill="none" stroke="#FFFFFF" stroke-linecap="round" stroke-miterlimit="10" x1="305.3" y1="70.16" x2="305.3" y2="67.16"/>
		<line fill="none" stroke="#FFFFFF" stroke-linecap="round" stroke-miterlimit="10" x1="303.8" y1="68.66" x2="306.8" y2="68.66"/>
		<line fill="none" stroke="#FFFFFF" stroke-linecap="round" stroke-miterlimit="10" x1="256.3" y1="70.16" x2="256.3" y2="67.16"/>
		<line fill="none" stroke="#FFFFFF" stroke-linecap="round" stroke-miterlimit="10" x1="254.8" y1="68.66" x2="257.8" y2="68.66"/>
		<line fill="none" stroke="#FFFFFF" stroke-linecap="round" stroke-miterlimit="10" x1="299.8" y1="79.66" x2="299.8" y2="76.66"/>
		<line fill="none" stroke="#FFFFFF" stroke-linecap="round" stroke-miterlimit="10" x1="298.3" y1="78.16" x2="301.3" y2="78.16"/>
		<line fill="none" stroke="#FFFFFF" stroke-linecap="round" stroke-miterlimit="10" x1="253.8" y1="77.66" x2="253.8" y2="74.66"/>
		<line fill="none" stroke="#FFFFFF" stroke-linecap="round" stroke-miterlimit="10" x1="252.3" y1="76.16" x2="255.3" y2="76.16"/>
		<rect x="17.3" y="72.39" fill="#FFFFFF" stroke="#4A76BE" stroke-miterlimit="10" width="43" height="50.52"/>
		<path fill="#EB4570" d="M99.29,65.66c-13.56-0.59-26.58,5.36-35,16l0,0c0,0-3-35,32-54l4.11-1.83
			C80.92,35.16,99.29,65.66,99.29,65.66z"/>
		<path fill="#EB4471" d="M168.29,27.66c-21-1-34,19-34,19c-13.53-27.06-23.53-25.29-24.19-25.14l4.19-1.86
			C114.29,19.66,133.29,10.66,168.29,27.66z"/>
		<path fill="#C82E5B" d="M168.29,27.66c0,0-16,1-22,19c0,0-21,0-27,15c0,0-11-7-27,13c0,0-13-3-28,7c8.42-10.64,21.44-16.59,35-16
			c0,0,9-18,35-19C134.29,46.66,147.29,26.66,168.29,27.66z"/>
		<path fill="#F185A0" d="M134.29,46.66c-26,1-35,19-35,19s-18.37-30.5,1.11-39.83h0.07l0.85-0.38l8.75-3.89l0,0
			C110.76,21.37,120.76,19.6,134.29,46.66z"/>
		<circle fill="#F9FFFB" stroke="#FFCFD3" stroke-miterlimit="10" cx="213.32" cy="54.63" r="4.4"/>
		<polygon fill="none" stroke="#25227E" stroke-miterlimit="10" points="191.36,58.77 197.42,56.42 196.25,62.68 		"/>
		<polygon fill="#FFFFFF" points="181.63,58 185.7,56.42 184.91,60.63 		"/>
		<circle fill="none" stroke="#25227E" stroke-miterlimit="10" cx="214.04" cy="66.06" r="2.35"/>
		<path fill="#30419B" d="M166.81,137.57L166.81,137.57c-5.59,0.02-10.11,4.54-10.12,10.13v12.13c0,5.57,1.23,8.78,6.76,3.52
			l3.59,0.11c5.57,0,9.9,1.94,9.9-3.63V147.7C176.92,142.11,172.4,137.59,166.81,137.57z"/>
		<rect x="164.6" y="156.42" fill="#E28A7F" width="4.43" height="7.04"/>
		<path fill="#EB4471" d="M178.36,242.28L178.36,242.28c2.19,0,3.96,1.77,3.96,3.96v5.29c0,2.19-1.77,3.96-3.96,3.96h0
			c-2.19,0-3.96-1.77-3.96-3.96v-5.29C174.4,244.05,176.17,242.28,178.36,242.28z"/>
		<path fill="#EB4471" d="M163.94,242.28H166c1.05,0,1.91,0.86,1.91,1.91l0,0v7.34c0,2.21-1.79,4-4,4l0,0c-2.21,0-4-1.79-4-4v-5.28
			c0-2.21,1.79-4,4-4L163.94,242.28z"/>
		<path fill="#F7B4A3" d="M178.37,214.1L178.37,214.1c1.78,0,3.23,1.45,3.23,3.23v23.87c0,1.78-1.45,3.23-3.23,3.23h0
			c-1.78,0-3.23-1.45-3.23-3.23v-23.87C175.14,215.55,176.59,214.1,178.37,214.1z"/>
		<g>
			<defs>
				<path id="SVGID_5_" d="M178.36,214.11L178.36,214.11c1.78,0,3.23,1.45,3.23,3.23v23.87c0,1.78-1.45,3.23-3.23,3.23h0
					c-1.78,0-3.23-1.45-3.23-3.23v-23.87C175.13,215.56,176.58,214.11,178.36,214.11z"/>
			</defs>
			<clipPath id="SVGID_6_">
				<use xlink:href="#SVGID_5_"  overflow="visible"/>
			</clipPath>
			<g clip-path="url(#SVGID_6_)">
				<path fill="#E28A7F" d="M172.37,217.64c1.75,1.39,3.93,2.14,6.17,2.12c2.4-0.09,4.75-0.72,6.87-1.85
					c0.71-0.42,0.94-1.34,0.53-2.05c-0.43-0.7-1.33-0.93-2.05-0.54c-1.6,0.85-3.36,1.34-5.17,1.44c-1.51,0.09-3-0.35-4.23-1.24
					c-0.6-0.56-1.52-0.56-2.12,0C171.79,216.11,171.79,217.05,172.37,217.64L172.37,217.64z"/>
				<path fill="#E28A7F" d="M177.08,217.78c2.07-0.44,4.1-1.04,6.07-1.8c0.37-0.12,0.69-0.36,0.9-0.69
					c0.17-0.35,0.21-0.75,0.11-1.13c-0.25-0.78-1.06-1.22-1.85-1c-1.97,0.76-4,1.36-6.07,1.79c-0.8,0.23-1.26,1.05-1.05,1.85
					c0.24,0.78,1.05,1.25,1.85,1.05L177.08,217.78z"/>
				<path fill="#E28A7F" d="M178.27,216.52c0.03-0.05,0.06-0.1,0.09-0.14l-0.24,0.31c0.06-0.07,0.13-0.13,0.2-0.19l-0.31,0.23
					c0.69-0.51,1.43-0.93,2.22-1.25l-0.36,0.15c0.3-0.13,0.61-0.24,0.92-0.34c0.8-0.22,1.27-1.04,1.05-1.84
					c-0.1-0.38-0.35-0.7-0.69-0.9c-0.35-0.2-0.77-0.26-1.16-0.15c-0.77,0.25-1.52,0.57-2.24,0.95c-0.31,0.17-0.6,0.35-0.89,0.54
					c-0.48,0.27-0.88,0.65-1.18,1.11c-0.19,0.35-0.25,0.77-0.15,1.16c0.11,0.37,0.36,0.7,0.69,0.9c0.35,0.2,0.77,0.25,1.16,0.15
					C177.75,217.1,178.07,216.85,178.27,216.52L178.27,216.52z"/>
			</g>
		</g>
		<path fill="#F7B4A3" d="M164.18,214.1L164.18,214.1c1.78,0,3.23,1.45,3.23,3.23v23.87c0,1.78-1.45,3.23-3.23,3.23h0
			c-1.78,0-3.23-1.45-3.23-3.23v-23.87C160.95,215.55,162.4,214.1,164.18,214.1z"/>
		<g>
			<defs>
				<path id="SVGID_7_" d="M164.18,214.11L164.18,214.11c1.78,0,3.23,1.45,3.23,3.23v23.87c0,1.78-1.45,3.23-3.23,3.23h0
					c-1.78,0-3.23-1.45-3.23-3.23v-23.87C160.95,215.56,162.4,214.11,164.18,214.11z"/>
			</defs>
			<clipPath id="SVGID_8_">
				<use xlink:href="#SVGID_7_"  overflow="visible"/>
			</clipPath>
			<g clip-path="url(#SVGID_8_)">
				<path fill="#E28A7F" d="M159.09,217.25c3,3,8.23,2.34,11.38,0c0.75-0.37,1.06-1.27,0.69-2.02c-0.37-0.75-1.27-1.06-2.02-0.69
					c-0.07,0.03-0.13,0.07-0.19,0.11c-0.34,0.26-0.7,0.49-1.08,0.7c-0.26,0.15-0.53,0.28-0.81,0.37c-0.4,0.15-0.82,0.27-1.24,0.36
					l-0.31,0.06h-0.08c-0.19,0.03-0.37,0.04-0.56,0.05c-0.4,0.02-0.79,0.02-1.19,0c-0.19,0-0.21,0-0.06,0l-0.3-0.06l-0.51-0.12
					l-0.51-0.16c-0.17-0.07-0.18-0.07,0,0l-0.27-0.13c-0.18-0.1-0.35-0.2-0.51-0.32c0.19,0.14-0.22-0.22-0.26-0.26
					c-0.59-0.59-1.54-0.58-2.12,0.01s-0.58,1.54,0.01,2.12l0,0L159.09,217.25z"/>
				<path fill="#E28A7F" d="M161.95,216.68c2.29-0.08,4.56-0.41,6.78-1c0.79-0.22,1.26-1.04,1.05-1.84c-0.25-0.77-1.06-1.2-1.84-1
					c-1.02,0.27-2.06,0.48-3.11,0.63c-0.06,0-0.47,0.08-0.09,0h-0.36c-0.28,0-0.57,0.06-0.85,0.09c-0.53,0-1.06,0.08-1.58,0.09
					c-0.83,0-1.5,0.67-1.5,1.5s0.67,1.5,1.5,1.5V216.68z"/>
			</g>
		</g>
		<path fill="#FFDFEC" d="M156.55,206.96l27.32-3.8c0,0,8.19,12.91-0.51,13h-22.6c0,0-1.66,1.57-4.21-8.51"/>
		<path fill="#EB4471" d="M169.39,162.36c11.47,1.42,22,7.08,29.51,15.86c0,0,0.59,3.7-10.46-0.41l-19.05-11.44L169.39,162.36z"/>
		<path fill="#F9B4A6" d="M167.66,146.51c-3,0-4.58,0-5.15,2c-0.15-0.12-0.33-0.2-0.52-0.2c-0.72,0-1.31,1.09-1.31,2.44
			s0.59,2.45,1.31,2.45c0.19-0.01,0.37-0.07,0.51-0.19c0.81,3.5,3.57,6.32,6.86,6.32c3.92,0,4.5-6.3,4.5-10.7
			S171.59,146.51,167.66,146.51z"/>
		<path fill="#F9B4A6" d="M180.61,167.51c0,0,5.74-2-6.85-7.24c0,0-5,0.65,1.7,4.82C177.13,165.99,178.85,166.79,180.61,167.51z"/>
		<path fill="#F9B4A6" d="M159.54,191.05c-1.12,0.88-1.53,2.4-1,3.72c3.48,1.79,7.6,1.79,11.08,0c0,0,5.22-5-2.47-3.72
			C167.16,191.05,162.02,191.83,159.54,191.05z"/>
		<path fill="#3DA8A8" d="M229.57,166.39c0,0-17.81-2.53-22.11,31.71c0,0,0.68,0.49,8.61,1.86
			C216.07,199.96,218.22,178.7,229.57,166.39z"/>
		<path fill="#6BDDCD" d="M212.02,199.36c0,0,12.14-39.39,19.86-32.12c1.82,1.11,3.28,2.72,4.21,4.63c0,0-9.88,34.15-19.08,29.25
			L212.02,199.36z"/>
		<path fill="#3DA8A8" d="M92.02,166.39c0,0,17.81-2.53,22.14,31.71c0,0-0.68,0.49-8.61,1.86
			C105.52,199.96,103.37,178.7,92.02,166.39z"/>
		<path fill="#6BDDCD" d="M109.56,199.36c0,0-12.13-39.39-19.86-32.12c-1.81,1.11-3.27,2.72-4.2,4.63c0,0,9.88,34.15,19.07,29.29
			L109.56,199.36z"/>
		<path fill="#FFFFFF" d="M175.43,203.02l-0.92-10.23l-9,0.8l0.91,10.23c-1.8,1.21-3.16,2.96-3.9,5l4.32-0.39l9-0.81l4.32-0.39
			C179.07,205.36,177.42,203.88,175.43,203.02z"/>
		<path fill="#B9CCEF" d="M190.81,176.35l-44.24,4l2.68,29.71l13.31-1.19c0.74-2.04,2.1-3.79,3.9-5l-0.91-10.23l9-0.8l0.92,10.23
			c1.99,0.87,3.65,2.35,4.73,4.23l13.32-1.19L190.81,176.35z"/>
		
			<rect x="180.73" y="185.45" transform="matrix(0.996 -0.0896 0.0896 0.996 -16.1987 17.2585)" fill="#5C9CEE" stroke="#FFFFFF" stroke-miterlimit="10" width="6.85" height="7.25"/>
		
			<rect x="151.08" y="188.12" transform="matrix(0.996 -0.0896 0.0896 0.996 -16.5568 14.6127)" fill="#5C9CEE" stroke="#FFFFFF" stroke-miterlimit="10" width="6.85" height="7.25"/>
		<polygon fill="#ABD8F6" stroke="#FFFFFF" stroke-miterlimit="10" points="143.59,180.59 167.24,162.1 194.91,175.98 		"/>
		<path fill="#F88689" d="M114.81,251.16c0,0-8.32-7.12-4.4,16.49c1.42,2.63,4.35,4.07,7.3,3.58l0.91-11.73c0,0,0.2-3.32,2.35-5.09
			L114.81,251.16z"/>
		<path fill="#111067" d="M132.7,177.23c0,0-17.16,21,4.36,36.41l5.33,5.3c0,0-17.61,17.22-20.39,24.28l-7.27,7.73
			c0,0,1.5,4.41,4.92,5.51l35.79-28.37c0,0,9.11-10.19,2.89-18.75c-0.59-0.83-1.12-1.69-1.6-2.59l-9.57-17.39v-9.63
			C147.16,179.73,136.55,180.98,132.7,177.23z"/>
		<path fill="#FDFFFF" d="M127.41,172.63c0,0-4.79,2.93-9.59-1.67c0,0,2.64-28.27,11.25-28.07c7.15-2.03,14.85-0.47,20.64,4.2
			c0,0,5.68,14.48,11.84,16.64l-7.24,6.35l-4.5-4.59c0,0-1,3.32-2.87,4.69v11c0,0-9.85,5-19.14,0L127.41,172.63z"/>
		<g>
			<defs>
				<path id="SVGID_9_" d="M127.41,172.63c0,0-4.79,2.93-9.59-1.67c0,0,2.64-28.27,11.25-28.07c7.15-2.03,14.85-0.47,20.64,4.2
					c0,0,5.68,14.48,11.84,16.64l-7.24,6.35l-4.5-4.59c0,0-1,3.32-2.87,4.69v11c0,0-9.85,5-19.14,0L127.41,172.63z"/>
			</defs>
			<clipPath id="SVGID_10_">
				<use xlink:href="#SVGID_9_"  overflow="visible"/>
			</clipPath>
			<g clip-path="url(#SVGID_10_)">
				<path fill="#D2E4FF" d="M150.89,172.04c1-4.82,1.78-9.65,0.64-14.52c-0.51-2.14-1.27-4.27-1.1-6.51
					c0.18-2.13,1.09-4.12,2.57-5.66c1.33-1.4-0.79-3.53-2.12-2.12c-3.28,3.47-4,7.93-2.91,12.47c0.72,2.39,1.12,4.87,1.19,7.36
					c-0.14,2.76-0.52,5.5-1.14,8.19c-0.37,1.88,2.52,2.69,2.9,0.79L150.89,172.04z"/>
				<path fill="#D2E4FF" d="M149.48,150.4c-0.38,2.98-0.1,6.01,0.8,8.88c0.78,2.87,1.8,5.71,2,8.7c0.12,1.91,3,1.94,3,0
					c-0.14-4.91-0.3-9.87,0.56-14.73h-2.9c1.85,4.9,0.47,10.29,1.92,15.28c0.39,1.33,2.64,1.53,2.9,0l0.55-3.29l-2.74,0.35l2.09,3
					c0.45,0.7,1.39,0.9,2.09,0.44c0.53-0.34,0.79-0.98,0.65-1.59c-0.52-2.29-1.61-4.42-3.15-6.2l-2.09,2.12
					c1.44,1.12,2.82,2.31,4.14,3.58c1.39,1.34,3.49-0.76,2.12-2.12c-0.61-0.61-1.13-1.31-1.54-2.08l-2.06,2l3.25,2.42v-2.59
					c-0.66,0.29-1.39,0.43-2.11,0.4c-0.73,0.07-1.43,0.3-2.06,0.67c-0.64,0.39-1.12,1-1.34,1.72c-0.13,0.46,0,1.37-0.24,1.7
					l0.54-0.53c0.27-0.21,0.64,0.43,0.27-0.25l-0.29-0.57c-0.25-0.47-0.54-0.92-0.87-1.33c-0.63-0.8-1.38-1.5-2.22-2.08l-1.15,2.74
					c1.25,0.27,2.52,0.48,3.8,0.63c0.97,0.18,1.97,0.13,2.92-0.15c0.92-0.3,1.62-1.06,1.83-2c0.11-1.22-0.39-2.42-1.34-3.19
					l-1.82,2.35c0.39,0.17,0.58,0.62,0.41,1.01c-0.07,0.16-0.18,0.29-0.33,0.37c-1.62,1-0.12,3.64,1.51,2.59
					c1.8-1.09,2.38-3.43,1.29-5.23c-0.33-0.55-0.8-1.01-1.36-1.33c-0.73-0.4-1.65-0.12-2.05,0.61c-0.31,0.57-0.22,1.27,0.23,1.75
					c0,0,0.57,0.62,0.51,0.63s0.08-0.41,0.13-0.33s-1,0.06-1,0.06c-1.32-0.11-2.62-0.31-3.91-0.62c-0.81-0.19-1.63,0.31-1.82,1.12
					c-0.15,0.63,0.12,1.29,0.67,1.63c1.26,0.89,1.71,2.08,2.54,3.32c0.69,1.23,2.25,1.66,3.47,0.97c0.15-0.09,0.3-0.19,0.43-0.3
					c0.45-0.52,0.71-1.19,0.72-1.88c-0.04-0.25-0.04-0.51,0-0.76c0-0.09,0,0,0.18-0.13c0.58-0.21,1.2-0.31,1.82-0.27
					c0.76-0.06,1.49-0.3,2.15-0.68c0.72-0.44,0.94-1.38,0.5-2.09c-0.12-0.2-0.3-0.37-0.5-0.5l-3.28-2.46c-1.29-0.95-2.7,0.85-2,2.05
					c0.53,0.99,1.2,1.9,2,2.69l2.12-2.12c-1.32-1.27-2.7-2.46-4.14-3.58c-0.6-0.59-1.55-0.58-2.14,0.02
					c-0.59,0.6-0.58,1.55,0.02,2.14c1.18,1.4,1.99,3.08,2.37,4.87l2.75-1.15l-2.09-3c-0.65-0.94-2.51-1-2.74,0.36l-0.56,3.3h2.9
					c-1.45-5-0.07-10.36-1.92-15.28c-0.47-1.24-2.61-1.61-2.9,0c-0.75,5.14-0.97,10.34-0.66,15.52h3c-0.3-2.91-0.92-5.77-1.83-8.55
					c-0.76-2.65-1.51-5.45-1.07-8.23c0.2-0.8-0.27-1.61-1.05-1.85c-0.8-0.21-1.62,0.26-1.84,1.05H149.48z"/>
				<path fill="#D2E4FF" d="M150.16,153.55c1.05,3.34,2.43,6.57,4.13,9.63c0.42,0.72,1.34,0.95,2.06,0.54
					c0.72-0.42,0.95-1.34,0.53-2.06c-1.58-2.82-2.86-5.81-3.82-8.9c-0.22-0.8-1.04-1.27-1.85-1.06
					C150.41,151.92,149.94,152.75,150.16,153.55z"/>
				<path fill="#D2E4FF" d="M157.72,162.83l0.2-0.2c0.15-0.13,0.26-0.29,0.31-0.48c0.09-0.18,0.14-0.38,0.13-0.58
					c-0.02-0.39-0.18-0.77-0.44-1.06l-0.3-0.23c-0.23-0.14-0.49-0.21-0.76-0.21l-0.4,0.06c-0.25,0.07-0.48,0.2-0.66,0.38l-0.2,0.2
					c-0.14,0.13-0.25,0.3-0.31,0.48c-0.17,0.37-0.17,0.79,0,1.16c0.06,0.18,0.17,0.35,0.31,0.48l0.31,0.23
					c0.23,0.14,0.49,0.21,0.75,0.21l0.4-0.05C157.31,163.15,157.54,163.02,157.72,162.83z"/>
				<path fill="#D2E4FF" d="M128.04,176.8c-0.35-1.7,0.8-3.63,1.21-5.25c0.42-1.78,0.76-3.57,1-5.38c0.47-3.71,1.35-7.35,2.61-10.87
					c0.68-1.81-2.22-2.59-2.89-0.8c-1.36,3.77-2.3,7.68-2.81,11.66c-0.24,1.94-0.64,3.86-1.17,5.74c-0.59,1.91-1.3,3.64-0.88,5.68
					c0.42,2.04,3.27,1.09,2.89-0.8L128.04,176.8z"/>
				<path fill="#D2E4FF" d="M127.16,170.96c-0.09,6.9,2.01,13.64,6,19.27c1.12,1.55,3.72,0.06,2.59-1.51
					c-3.7-5.17-5.66-11.4-5.59-17.76c0-0.83-0.67-1.5-1.5-1.5S127.16,170.13,127.16,170.96z"/>
				<path fill="#D2E4FF" d="M128.27,164.31c-0.04,9.02,1.52,17.97,4.63,26.43c0.67,1.79,3.57,1,2.9-0.8
					c-3.03-8.2-4.57-16.88-4.53-25.63c0-0.83-0.67-1.5-1.5-1.5S128.27,163.48,128.27,164.31L128.27,164.31z"/>
				<path fill="#D2E4FF" d="M128.09,177c-1.35,1.95-1.72,4.41-1,6.67c0.18,0.81,0.98,1.32,1.79,1.14c0.81-0.18,1.32-0.98,1.14-1.79
					c-0.01-0.05-0.02-0.1-0.04-0.15c-0.07-0.22-0.13-0.45-0.18-0.68c0-0.12,0-0.24-0.06-0.35c0.11,0.46,0,0.1,0,0s0-0.46,0-0.7
					v-0.35c-0.01-0.06-0.01-0.11,0-0.17c0.05-0.77,0.71-1.35,1.48-1.3c0.77,0.05,1.35,0.71,1.3,1.48c-0.05,0.77-0.71,1.35-1.48,1.3
					c-0.7-0.05-1.25-0.6-1.3-1.3c0.08-0.45,0.21-0.88,0.36-1.31c0.06-0.15,0-0.11,0,0.11l0.07-0.16c0-0.1,0.1-0.21,0.16-0.31
					c0.06-0.1,0.24-0.4,0.38-0.59c0.2-0.35,0.26-0.77,0.15-1.16c-0.1-0.38-0.35-0.7-0.69-0.89c-0.71-0.37-1.58-0.13-2,0.54
					L128.09,177z"/>
			</g>
		</g>
		<path fill="#F9B4A6" d="M141.62,144.16c-1.78,1.03-4.05,0.42-5.08-1.36c-0.18-0.31-0.31-0.64-0.4-0.99l1.56-4.17
			c0,0,1-22.44,16.31-10c0,0-0.52,14.61-5.74,15c0,0-1.82,1.35-6.13-2.47L141.62,144.16z"/>
		<path fill="#893936" d="M145.59,135.42c0,0-3.13,2.35-5.08-3.13c0,0-0.65-2.22,3.39-3c0,0,2.87,2.22,3.39-2.61
			c0,0,8,7.57,11.48,0.52c0,0,6.26-7.17,0-8.74h-3.26c0,0-0.79-10.17-21-2.73c0,0-9.65,11.75,0.91,18.53
			C135.42,134.26,139.46,140.16,145.59,135.42z"/>
		<path fill="#23257C" d="M126.49,181.16c0,0-15.7,18.59,4,32.28l4.87,4.7c0,0-16.1,15.26-18.65,21.52l-6.65,6.85
			c0,0,1.37,3.91,4.5,4.89l36.6-30.15c0,0,4.89-4.5-1.76-12.33l-9.69-17v-8.56C139.71,183.36,130.01,184.46,126.49,181.16z"/>
		<path fill="#F6B6A3" d="M110.05,246.49c0,0-10-5.48-6.06,18.13c1.42,2.63,4.35,4.07,7.3,3.58l0.87-11.74c0,0,0.2-3.31,2.35-5.08
			L110.05,246.49z"/>
		<path fill="#F9B4A6" d="M117.84,170.81c0,0,3.39,3.65,7.9,2.48c0,0-0.33,2.23,14.44,15.93l8.81,1.37c0,0,9.74,4-0.73,4.55
			c-2.42,0.11-4.85-0.22-7.15-1l-3.13-1c-0.36-0.12-0.7-0.31-1-0.55l-19.42-15.87L117.84,170.81z"/>
		<path fill="#FAB898" d="M170.81,111.85c0,0-3.71,0.55-32.47-13.7c0,0-14.68,0.36-2.74,6.85l9.59,1.5c0,0,22,13.4,24.36,13.11
			l4.5-0.58L170.81,111.85z"/>
		<path fill="#FFFFFF" d="M172.87,109.16c0,0,9.72-12.84,20.81-13l19.31,1.83c0,0,7.22,4.26,15.15,26.72l-9.15-2.55l-6.83-11
			l0.26,13.55h-26.57v-13l-7.6,7.12L172.87,109.16z"/>
		<g>
			<defs>
				<path id="SVGID_11_" d="M172.87,109.16c0,0,9.72-12.84,20.81-13l19.31,1.83c0,0,7.22,4.26,15.15,26.72l-9.15-2.55l-6.83-11
					l0.26,13.55h-26.57v-13l-7.6,7.12L172.87,109.16z"/>
			</defs>
			<clipPath id="SVGID_12_">
				<use xlink:href="#SVGID_11_"  overflow="visible"/>
			</clipPath>
			<g clip-path="url(#SVGID_12_)">
				<path fill="#CBF7E8" d="M218.27,100.45c1.6,5.55,3.76,11.63,3.4,17.48c-0.31,5.24-4,10.43-7.22,14.39
					c-4.74,5.93,3.63,14.4,8.42,8.42c4.54-5.68,9.23-12.25,10.39-19.6c1.25-8-1.32-16.29-3.51-23.86
					C227.63,89.93,216.14,93.06,218.27,100.45z"/>
				<path fill="#CBF7E8" d="M210.44,117.78c-5.9,2.37-12.05,2-18.29,2l-21.27-0.09c-7.66,0-7.67,11.87,0,11.91l23.21,0.09
					c6.61,0,13.29,0.08,19.52-2.42c7-2.81,4-14.34-3.17-11.48V117.78z"/>
				<path fill="#CBF7E8" d="M179.31,119.16c0.96-1.28,2.03-2.48,3.2-3.58c1.26-1.07,2.6-2.05,3.9-3.07l-2.56-1.06
					c0.47,3.62-0.26,7.29,0.56,10.89c0.22,0.8,1.05,1.27,1.85,1.05c0.8-0.22,1.27-1.05,1.05-1.85l0,0c-0.76-3.28,0-6.75-0.46-10.09
					c-0.03-0.84-0.73-1.5-1.57-1.47c-0.37,0.01-0.72,0.16-0.99,0.41c-1.3,1-2.64,2-3.9,3.07c-1.17,1.1-2.24,2.29-3.2,3.58
					c-0.56,0.59-0.56,1.53,0,2.12C177.78,119.74,178.72,119.74,179.31,119.16L179.31,119.16z"/>
			</g>
		</g>
		<path fill="#6BDDCD" d="M171.79,109.24L171.79,109.24c0.98-0.44,2.14,0,2.59,0.98l3.88,8.59c0.45,0.99,0.01,2.15-0.98,2.59l0,0
			c-0.98,0.44-2.14,0-2.59-0.98l-3.88-8.59C170.37,110.85,170.81,109.69,171.79,109.24z"/>
		<path fill="#6BDDCD" d="M216.8,122.53L216.8,122.53c0.38-1.01,1.51-1.52,2.52-1.14l8.81,3.33c1.01,0.38,1.52,1.51,1.14,2.52l0,0
			c-0.38,1.01-1.51,1.52-2.52,1.14l-8.81-3.33C216.93,124.67,216.42,123.54,216.8,122.53z"/>
		<path fill="#FAB898" d="M216.99,124.29h-21.83c0,0-10.93-3.18-12.16,4.71l39.16,1.16c0,0,2.69-0.3,2.65-2.47L216.99,124.29z"/>
		<path fill="#26237F" d="M200.53,90.9c0,0,3,4,4.53-1.15c0,0,3.88,2.28,6.49-2.61c0,0,4.7-1.18,2.8-5.61l-0.39-2
			c0,0,3.39-3.13-2.8-6.79l-2-1.63c0,0-2.87-7-9.36-1.23l-1.73-0.2c0,0-5.91-5.1-8.11,3.48c0,0-1.63,3.65,6.79,5.09L200.53,90.9z"/>
		<path fill="#F6B5A5" d="M194.34,91.37c0,0-5.09-1.7-2.61-9.79c0,0,1-3.52,0.59-5.15h1.84c1.33,0,2.61,0.51,3.57,1.43l6,5.68
			c0,0,4.89-0.39,0.49,3.72L201.06,90C201.06,90,200.16,91.69,194.34,91.37z"/>
		<path fill="#F6B5A5" d="M196,89.15h5.09l0,0v6.65c0,1.3-1.05,2.35-2.35,2.35l0,0h-0.39c-1.3,0-2.35-1.05-2.35-2.35V89.15
			L196,89.15z"/>
		<polygon fill="#6BDDCD" points="199.46,100.49 199.46,95.28 202.49,92.37 204.74,96.43 199.46,101.47 		"/>
		<path fill="#6BDDCD" d="M196.42,101.48v-7.11l-2.54,1.79c0,0,0.78,4.5,2.54,5.74"/>
		<path fill="#EB4471" d="M164.96,161.67c0,0-11.06,5-19.27,20.74c0,0,4.43,8.58,12.88,12.36l1-3.72l-9.26-9.23l14.68-18
			L164.96,161.67z"/>
		<path fill="#F9B4A6" d="M159.54,191.05c-1.12,0.88-1.53,2.4-1,3.72c3.48,1.79,7.6,1.79,11.08,0c0,0,5.22-5-2.47-3.72
			C167.16,191.05,162.02,191.83,159.54,191.05z"/>
		<polygon fill="#FFFFFF" points="139.74,98.13 119.54,55.47 117.8,56.17 138.05,98.94 		"/>
		<polygon fill="#7EBCE6" points="117.09,50.31 115.4,51.11 118.31,57.29 120.05,56.58 		"/>
		<path fill="#6BC3ED" d="M145.52,111.05L145.52,111.05c-0.46,0.24-1.03,0.07-1.27-0.39l-6.18-11.69l1.65-0.88l6.18,11.69
			C146.14,110.24,145.97,110.8,145.52,111.05z"/>
		<path fill="#898E91" d="M47.45,106.95c0,0.26,0.06,0.51,0.18,0.74c0.11,0.22,0.28,0.4,0.49,0.52l0,0c0.2,0.13,0.43,0.19,0.67,0.19
			c0.24,0,0.47-0.07,0.68-0.19c0.2-0.13,0.37-0.32,0.49-0.53c0.12-0.23,0.18-0.48,0.19-0.73c0-0.25-0.06-0.5-0.18-0.72
			c-0.11-0.22-0.28-0.4-0.49-0.53c-0.2-0.12-0.44-0.19-0.68-0.18c-0.23-0.01-0.46,0.06-0.66,0.18c-0.42,0.27-0.68,0.74-0.69,1.24
			 M46.73,106.94c0-0.37,0.09-0.74,0.27-1.07c0.18-0.32,0.44-0.59,0.76-0.78c0.64-0.38,1.43-0.38,2.07,0
			c0.32,0.19,0.59,0.46,0.78,0.79c0.18,0.33,0.27,0.7,0.28,1.07c0,0.38-0.1,0.75-0.28,1.08c-0.18,0.33-0.44,0.6-0.75,0.8
			c-0.32,0.19-0.68,0.29-1.05,0.28c-0.35,0-0.7-0.1-1-0.28c-0.32-0.19-0.58-0.47-0.76-0.8c-0.18-0.33-0.28-0.7-0.28-1.08
			L46.73,106.94z"/>
		<path fill="#134980" d="M39.99,105.1c0-0.08,0.03-0.16,0.09-0.21c0.05-0.05,0.13-0.08,0.2-0.08h0.16c0.07,0,0.14,0.02,0.19,0.07
			c0.05,0.05,0.08,0.11,0.09,0.18l0,0c0.15-0.1,0.32-0.17,0.5-0.22c0.19-0.06,0.39-0.09,0.59-0.1c0.23,0,0.46,0.04,0.67,0.13l0,0
			c0.07,0.02,0.13,0.06,0.17,0.11c0.04,0.05,0.06,0.11,0.06,0.18c0.01,0.03,0.01,0.07,0,0.1l-0.08,0.19
			c-0.02,0.05-0.05,0.1-0.09,0.14c-0.04,0.04-0.11,0.07-0.17,0.06c-0.1-0.01-0.2-0.05-0.29-0.11l0,0c-0.1-0.03-0.21-0.05-0.32-0.05
			c-0.17,0-0.34,0.03-0.5,0.09c-0.15,0.05-0.29,0.13-0.4,0.24l0,0l-0.13,0.13v2.81c0.02,0.14-0.08,0.27-0.23,0.29c0,0,0,0,0,0h-0.25
			c-0.07,0-0.15-0.03-0.19-0.09c-0.06-0.05-0.09-0.12-0.08-0.2L39.99,105.1z"/>
		<path fill="#134980" d="M39.41,108.83c-0.01,0.16-0.14,0.29-0.3,0.28c0,0,0,0,0,0h-0.14c-0.13,0.01-0.25-0.09-0.26-0.22
			c0,0,0-0.01,0-0.01v-0.13c-0.19,0.12-0.4,0.21-0.62,0.27c-0.23,0.06-0.46,0.09-0.7,0.09c-0.46,0.03-0.9-0.13-1.23-0.45
			c-0.32-0.4-0.49-0.9-0.46-1.41v-2.15c0-0.08,0.03-0.16,0.09-0.21c0.05-0.06,0.13-0.1,0.21-0.1h0.16c0.08,0,0.16,0.03,0.21,0.09
			c0.05,0.05,0.08,0.13,0.08,0.2v2.13c-0.03,0.31,0.06,0.61,0.24,0.86c0.19,0.19,0.46,0.3,0.73,0.28c0.19-0.01,0.39-0.04,0.57-0.1
			c0.19-0.05,0.37-0.14,0.52-0.26l0.18-0.13v-2.76c-0.01-0.08,0.02-0.16,0.07-0.22c0.06-0.05,0.13-0.08,0.21-0.07h0.19
			c0.07,0,0.14,0.03,0.18,0.08c0.06,0.05,0.09,0.13,0.09,0.21L39.41,108.83z"/>
		<path fill="#134980" d="M32.1,108.66c-0.06-0.05-0.1-0.14-0.1-0.22c-0.01-0.04-0.01-0.08,0-0.12l0.16-0.16
			c0.05-0.07,0.13-0.11,0.21-0.11c0.05-0.02,0.1-0.02,0.15,0c0.29,0.25,0.67,0.38,1.05,0.37c0.2,0,0.39-0.05,0.55-0.16
			c0.13-0.08,0.21-0.22,0.21-0.37c0.02-0.06,0.02-0.13,0-0.19c-0.03-0.07-0.07-0.12-0.13-0.16l0,0c-0.25-0.15-0.52-0.28-0.8-0.37
			c-0.37-0.1-0.71-0.28-1-0.53c-0.2-0.19-0.31-0.46-0.31-0.74c0.01-0.2,0.07-0.39,0.18-0.55c0.11-0.17,0.27-0.32,0.45-0.42
			c0.24-0.13,0.51-0.19,0.78-0.18c0.44-0.02,0.87,0.1,1.25,0.32c0.09,0.05,0.14,0.14,0.13,0.24c0.01,0.03,0.01,0.06,0,0.09l0,0
			l-0.06,0.13c-0.05,0.09-0.15,0.15-0.25,0.14c-0.05,0.01-0.1,0.01-0.15,0c-0.11-0.08-0.24-0.14-0.38-0.17
			c-0.17-0.05-0.34-0.07-0.51-0.07c-0.17,0-0.34,0.04-0.48,0.13c-0.11,0.07-0.18,0.2-0.18,0.33c0,0.13,0.06,0.25,0.17,0.32
			c0.19,0.14,0.41,0.24,0.64,0.3c0.28,0.1,0.56,0.21,0.82,0.35c0.16,0.09,0.3,0.21,0.4,0.36c0.15,0.18,0.21,0.42,0.19,0.65
			c-0.01,0.22-0.08,0.43-0.21,0.61c-0.14,0.2-0.33,0.36-0.55,0.46c-0.23,0.11-0.49,0.16-0.75,0.15c-0.26,0-0.53-0.04-0.78-0.12
			c-0.24-0.07-0.47-0.19-0.67-0.34"/>
		<path fill="#134980" d="M27.62,105.1c0-0.08,0.03-0.15,0.09-0.21c0.06-0.05,0.13-0.08,0.21-0.08h0.14
			c0.13-0.02,0.26,0.08,0.28,0.21v0.14c0.19-0.12,0.4-0.21,0.62-0.26c0.23-0.06,0.46-0.09,0.7-0.09c0.47-0.04,0.93,0.13,1.27,0.46
			c0.33,0.4,0.49,0.91,0.45,1.42v2.14c0,0.08-0.03,0.15-0.09,0.2c-0.05,0.05-0.13,0.08-0.2,0.08h-0.18c-0.08,0-0.15-0.03-0.2-0.09
			c-0.05-0.05-0.08-0.12-0.08-0.19v-2.14c0.02-0.31-0.06-0.61-0.24-0.86c-0.19-0.2-0.46-0.3-0.73-0.28
			c-0.19,0.01-0.39,0.04-0.57,0.1c-0.19,0.06-0.36,0.15-0.52,0.26l-0.18,0.13v2.79c0.03,0.15-0.06,0.29-0.2,0.32
			c-0.01,0-0.02,0-0.03,0.01h-0.23c-0.07,0-0.14-0.03-0.19-0.08c-0.05-0.06-0.08-0.13-0.08-0.2L27.62,105.1z"/>
		<path fill="#134980" d="M26.21,105.1c0-0.08,0.03-0.16,0.09-0.21c0.05-0.05,0.13-0.08,0.2-0.08h0.18c0.08,0,0.15,0.03,0.2,0.08
			c0.05,0.06,0.09,0.13,0.09,0.21v3.73c0,0.08-0.03,0.15-0.08,0.21c-0.06,0.05-0.13,0.08-0.21,0.07h-0.2
			c-0.07,0-0.14-0.03-0.19-0.08c-0.05-0.06-0.08-0.13-0.08-0.2L26.21,105.1z"/>
		<path fill="#898E91" d="M42.73,106.96c-0.01-0.38,0.09-0.76,0.28-1.09c0.4-0.65,1.1-1.06,1.86-1.08c0.59-0.03,1.16,0.21,1.54,0.66
			c0.01,0.06,0.01,0.11,0,0.17c0.01,0.04,0.01,0.07,0,0.11c-0.01,0.04-0.04,0.07-0.07,0.09l-0.08,0.09
			c-0.04,0.06-0.12,0.09-0.19,0.09c-0.09,0-0.18-0.04-0.23-0.11c-0.13-0.13-0.29-0.23-0.46-0.3c-0.18-0.06-0.36-0.09-0.55-0.09
			c-0.25,0-0.49,0.07-0.7,0.19c-0.21,0.12-0.39,0.3-0.51,0.51c-0.13,0.22-0.2,0.47-0.2,0.73c0,0.26,0.07,0.51,0.19,0.74
			c0.13,0.21,0.32,0.38,0.55,0.49c0.21,0.13,0.45,0.2,0.7,0.2c0.37,0.04,0.74-0.09,1-0.36c0.04-0.06,0.09-0.12,0.15-0.17l0.09-0.06
			h0.11c0.07,0,0.14,0.03,0.19,0.09l0.09,0.1c0.06,0.05,0.09,0.12,0.09,0.2c0.01,0.04,0.01,0.09,0,0.13l0,0
			c-0.16,0.26-0.39,0.48-0.66,0.63c-1.01,0.48-2.22,0.12-2.8-0.84c-0.2-0.33-0.3-0.71-0.29-1.1"/>
		<path fill="#134980" d="M38.55,85.7c-8.14,3.46-5.95,15.21-5.82,15.82l0,0c2.69-3.19,7.45-3.6,10.64-0.91c0,0,0,0,0,0
			c0.35,0.3,0.66,0.64,0.94,1c0,0,2.55-12.36-5.8-15.89"/>
		<path fill="#2B71AE" d="M38.55,85.7c-9.1-0.01-16.71,6.93-17.52,16c2.6-3.28,7.36-3.83,10.64-1.24c0.38,0.3,0.74,0.63,1.06,1
			c-0.12-0.61-2.32-12.36,5.82-15.82"/>
		<path fill="#2B71AE" d="M38.55,85.7L38.55,85.7c8.35,3.53,5.8,15.89,5.8,15.89c2.65-3.21,7.4-3.66,10.6-1.01c0,0,0.01,0,0.01,0.01
			c0.4,0.34,0.77,0.71,1.1,1.12c-0.82-9.06-8.41-16-17.51-16"/>
		<path fill-rule="evenodd" clip-rule="evenodd" fill="#2B71AE" d="M38.54,84.58c0.59,0,1.15,0.3,1.47,0.8
			c-0.98-0.13-1.96-0.13-2.94,0C37.39,84.88,37.95,84.58,38.54,84.58"/>
	</g>
</g>
</svg>
