<?xml version="1.0" encoding="utf-8"?>
<!-- Generator: Adobe Illustrator 24.3.0, SVG Export Plug-In . SVG Version: 6.00 Build 0)  -->
<svg version="1.1" id="Layer_1" xmlns="http://www.w3.org/2000/svg" xmlns:xlink="http://www.w3.org/1999/xlink" x="0px" y="0px"
	 viewBox="0 0 394.93 288.69" enable-background="new 0 0 394.93 288.69" xml:space="preserve">
<g id="Layer_2_1_">
	<g id="Layer_1-2">
		<ellipse fill="#CDE2F7" cx="81.28" cy="275.77" rx="40.98" ry="10.95"/>
		<path fill="#0A117C" d="M67.34,277.19l2.85-13.57c0,0-19.8,2.81-27.76,5.93c-1.35,0.52-2.23,1.82-2.24,3.26v1.78
			c0.01,1.74,1.28,3.21,3,3.47c3.1,0.41,9.25,0.92,21.42,1.25C65.91,279.36,67.06,278.46,67.34,277.19z"/>
		<path fill="#F2B4A7" d="M71.95,263.05l-3.17,7.21c0,0-4.33,1.81-10.88-4.65c0,0,5-1.79,5.33-4.43L71.95,263.05z"/>
		<path fill="#CDE2F7" d="M258.94,193.78"/>
		<path fill="#CDE2F7" d="M128.04,274.79c35.77,10.32,115.91,9.27,151.24,3.2c19.72-3.4,15.92-10.84,16.81-27l0,0
			c2.85-33.28-37.15-57.22-37.15-57.22l-9.54-0.53c9.3,0.27,9.54,0.51,9.54,0.53c2.23-54.22-41.38-60.4-41.38-60.4l-55.18-11.11
			c-76.74-14.75-87,53.32-87,53.32c-20,3.9-10.49,35-10.49,35"/>
		<path fill="#D9F0FF" d="M216.13,49.1c-20.16-23.75-35.69-43.3-76.28-43.77C76.13,4.58,23.09,42.55,22.19,89.61
			c-0.9,47.79,51.28,86.74,115.76,86.74c6.42,0,12.83-0.39,19.2-1.17c5.75-0.71,11.58,0.36,16.7,3.06
			c15.22,8.22,34.12,12.94,54.53,12.57c47.07-0.85,85.45-29.2,86.58-64c0.84-25.73-18.39-48.19-46.93-59.48
			C255.03,62.22,223.97,58.33,216.13,49.1z"/>
		<g>
			<defs>
				<path id="SVGID_1_" d="M216.13,49.1c-20.16-23.75-35.69-43.3-76.28-43.77C76.13,4.58,23.09,42.55,22.19,89.61
					c-0.9,47.79,51.28,86.74,115.76,86.74c6.42,0,12.83-0.39,19.2-1.17c5.75-0.71,11.58,0.36,16.7,3.06
					c15.22,8.22,34.12,12.94,54.53,12.57c47.07-0.85,85.45-29.2,86.58-64c0.84-25.73-18.39-48.19-46.93-59.48
					C255.03,62.22,223.97,58.33,216.13,49.1z"/>
			</defs>
			<clipPath id="SVGID_2_">
				<use xlink:href="#SVGID_1_"  overflow="visible"/>
			</clipPath>
			<g clip-path="url(#SVGID_2_)">
				<path fill="#FFFFFF" d="M251.56,48.43c-15.05-5.32-30.83-8.25-46.78-8.7c-16.7-0.49-33.32,1.66-50,2.61
					c-15.1,0.87-30.11,0.38-44.93-2.8c-13.37-2.81-26.26-7.52-38.28-14C60.23,19.46,49.98,11.54,41.24,2.09
					c-1.06-1.16-2.08-2.35-3.05-3.56c-1.23-1.49-3.34,0.65-2.12,2.12c8.3,9.84,18.2,18.21,29.29,24.74
					c11.72,6.95,24.36,12.19,37.56,15.56c14.31,3.63,29.05,5.21,43.8,4.72c16.85-0.47,33.6-2.8,50.46-3
					c16.22-0.28,32.38,1.99,47.89,6.75c1.91,0.6,3.81,1.23,5.7,1.9C252.59,51.97,253.37,49.08,251.56,48.43L251.56,48.43z"/>
				<path fill="#FFFFFF" d="M298.99,61.88c-16.8,15.23-38.86,23.28-60.8,27.58c-11.73,2.26-23.61,3.58-35.55,3.95
					c-13.78,0.49-27.52,0-41.1-2.63c-13.07-2.51-25.9-6.06-39.08-8c-11.98-1.87-24.11-2.65-36.23-2.36
					c-23.25,0.7-47,6.17-65.88,20.33c-17.61,13.2-29.23,32.12-38.87,51.6c-1.18,2.39-2.34,4.8-3.49,7.21
					c-0.83,1.73,1.76,3.26,2.59,1.51c9.31-19.51,19.68-39.12,36.17-53.59C34.6,91.83,57.83,85.01,81.19,83.6
					c12.24-0.68,24.51-0.18,36.65,1.48c12.88,1.69,25.42,4.92,38.11,7.61c25.12,5.33,51.32,5,76.62,0.83
					c22.08-3.6,44.51-10.68,62.46-24.44c2.1-1.61,4.14-3.3,6.1-5.08c1.43-1.3-0.7-3.42-2.12-2.12L298.99,61.88z"/>
				<path fill="#FFFFFF" d="M328.02,98.22c-21.32,8.45-37.65,25.17-58,35.31c-11.8,5.87-24.59,8.38-37.63,9.56
					c-13.87,1.25-28,1.84-41.75-0.76c-12.5-2.37-24.42-6.93-36.25-11.48c-12.31-4.74-24.63-9.15-37.55-12
					c-13.31-2.92-27.21-5.3-40.87-5.33c-12.34-0.16-24.5,2.95-35.26,9c-9.61,5.69-18.13,13.04-25.16,21.71
					c-8.28,9.91-15.14,20.89-23.19,31c-2.06,2.59-4.21,5.12-6.45,7.56c-1.31,1.42,0.81,3.55,2.12,2.12
					c16.55-18,27.32-41.08,47.62-55.55c9.72-7.09,21.18-11.42,33.16-12.53c13.7-1.13,27.7,1.12,41.12,3.69
					c12.96,2.58,25.68,6.28,38,11.07c11.84,4.5,23.6,9.34,35.94,12.35c13.27,3.24,26.77,3.62,40.36,2.77
					c13.23-0.83,26.72-2.22,39.18-7c21.23-8.16,37.46-24.75,57.53-35c2.57-1.31,5.2-2.51,7.88-3.57c1.78-0.71,1-3.61-0.8-2.9
					L328.02,98.22z"/>
			</g>
		</g>
		<path fill="#DCECF6" d="M251.36,4.1l36.45,16.05c12.66,5.57,18.4,20.35,12.83,33.01l0,0.01c-5.57,12.66-20.35,18.4-33.01,12.83
			l-36.45-16.05c-12.66-5.57-18.4-20.35-12.83-33.01l0-0.01C223.93,4.27,238.71-1.47,251.36,4.1z"/>
		<ellipse fill="#CDE2F7" cx="326.59" cy="250.6" rx="46.17" ry="10.95"/>
		<path fill="#0B2A75" d="M291.99,222.55h43.24c2,0,3.62,1.62,3.62,3.62v22.32c0,2-1.62,3.62-3.62,3.62h-43.24
			c-2,0-3.62-1.62-3.62-3.62v-22.32C288.37,224.17,289.99,222.55,291.99,222.55z"/>
		<path fill="#2359BA" d="M293.56,216.29h41.67c2,0,3.62,1.62,3.62,3.62v2.15c0,2-1.62,3.62-3.62,3.62h-41.67
			c-2,0-3.62-1.62-3.62-3.62v-2.15C289.94,217.91,291.56,216.29,293.56,216.29z"/>
		<path fill="#2359BA" d="M293.56,227.88h41.67c2,0,3.62,1.62,3.62,3.62v2.15c0,2-1.62,3.62-3.62,3.62h-41.67
			c-2,0-3.62-1.62-3.62-3.62v-2.15C289.94,229.5,291.56,227.88,293.56,227.88z"/>
		<path fill="#2359BA" d="M293.56,239.46h41.67c2,0,3.62,1.62,3.62,3.62v2.15c0,2-1.62,3.62-3.62,3.62h-41.67
			c-2,0-3.62-1.62-3.62-3.62v-2.15C289.94,241.08,291.56,239.46,293.56,239.46z"/>
		<path fill="#2359BA" d="M344.15,209.64l21.21,35.87c1.02,1.72,0.45,3.94-1.27,4.96l-1.85,1.09c-1.72,1.02-3.94,0.45-4.96-1.27
			l-21.21-35.87c-1.02-1.72-0.45-3.94,1.27-4.96l1.85-1.09C340.91,207.35,343.13,207.92,344.15,209.64z"/>
		<path fill="#6BDDCD" d="M269.19,203.95c0,0,8-34.49,37.87-35.55C307.1,168.39,303.19,203.02,269.19,203.95z"/>
		<path fill="#3DA8A8" d="M258.35,217.63c0,0-11.45-59,34.09-81.29C292.44,136.34,310.4,192.68,258.35,217.63z"/>
		<path fill="none" stroke="#FFFFFF" stroke-miterlimit="10" d="M266.8,201.68c0,0,11.58-37.37,19.47-50.87"/>
		<path fill="#12175C" d="M268.07,236.01h15.88c0,0,13.26,15.13,0.09,31.56h-16.18C267.86,267.57,279.03,245.07,268.07,236.01z"/>
		<ellipse fill="#383C85" cx="267.86" cy="251.79" rx="6.87" ry="15.78"/>
		<ellipse fill="#87BCDA" cx="267.86" cy="251.79" rx="2.87" ry="7.17"/>
		<path fill="#12175C" d="M129.06,239.95h15.88c0,0,13.25,15.13,0.08,31.56h-16.18C128.84,271.51,140.01,248.95,129.06,239.95z"/>
		<ellipse fill="#383C85" cx="128.85" cy="255.68" rx="6.87" ry="15.78"/>
		<ellipse fill="#87BCDA" cx="128.85" cy="255.68" rx="2.87" ry="7.17"/>
		<path fill="#85C1ED" d="M261.3,170.59"/>
		<path fill="#85C1ED" d="M117.93,250.6c20-26.87,30.57,10.53,30.57,10.53c52.44,12.76,150.48-8.87,150.48-8.87v-27
			c1-33.13-37.68-54.67-37.68-54.67h-8.94c8.7-0.24,8.94,0,8.94,0c-0.71-53.84-41.8-57.59-41.8-57.59l-52.18-8
			c-72.52-10.43-90,54.79-90,54.79c-18.55,4.95-6.92,57-6.92,57"/>
		<path fill="#6BDDCD" d="M194.04,88.95H141.5c-8.62,0.03-16.26,5.55-19,13.72h90.59C210.34,94.48,202.67,88.96,194.04,88.95z"/>
		<path fill="#6BDDCD" d="M121.4,109.05v5.75h92.79v-5.75c-0.01-1.13-0.11-2.26-0.31-3.38h-92.17
			C121.51,106.79,121.4,107.92,121.4,109.05z"/>
		<path fill="#3DA8A8" d="M122.45,102.67c-0.32,0.98-0.57,1.98-0.74,3h92.12c-0.17-1.02-0.42-2.02-0.74-3H122.45z"/>
		<circle fill="#FCFCF5" cx="186.67" cy="222.55" r="8.87"/>
		<circle fill="#1A6BA4" cx="186.67" cy="222.55" r="6.13"/>
		<circle fill="#FCFCF5" cx="271.06" cy="215.51" r="8.87"/>
		<circle fill="#1A6BA4" cx="271.06" cy="215.51" r="6.13"/>
		<circle fill="#E88C96" cx="187.85" cy="240.95" r="4.96"/>
		<circle fill="#E88C96" cx="274.32" cy="234.95" r="4.96"/>
		<path fill="#FDFDFD" d="M263.07,243.88c-18.71,7.93-39.65,8.87-59,2.66c-2.33-0.74-3.66-3-3-4.77c0.56-1.56,1.12-3.12,1.69-4.67
			c0.81-1.84,2.91-2.74,4.8-2.05c16.61,5.39,34.61,4.62,50.7-2.17c1.81-0.8,3.93-0.08,4.88,1.65c0.74,1.48,1.48,2.96,2.23,4.44
			C266.25,240.69,265.25,242.95,263.07,243.88z"/>
		<path fill="#3591D8" d="M297.88,258.5c-46.87,10.47-95.14,13.1-142.87,7.78c-1.82-0.16-3.16-1.76-3-3.57c0-0.01,0-0.01,0-0.02
			c0.08-0.75,0.17-1.49,0.25-2.24c0.24-1.78,1.87-3.04,3.66-2.83c46.77,5.22,94.08,2.64,140-7.62c1.75-0.39,3.48,0.69,3.91,2.43
			l0.51,2.19C300.72,256.37,299.62,258.1,297.88,258.5z"/>
		<path fill="none" stroke="#4EA9D5" stroke-miterlimit="10" d="M204.93,221.64c0,0,38,3.36,47.93-3.69"/>
		<path fill="none" stroke="#4EA9D5" stroke-miterlimit="10" d="M203.62,226.24c0,0,40.13,3.35,50.55-3.69"/>
		<path fill="none" stroke="#4EA9D5" stroke-miterlimit="10" d="M202.83,230.72c0,0,26.77,7.88,53.54-3.68"/>
		<path fill="#3A92D9" d="M136.92,176.24c0,0,95.42-11,120.78-3c0,0,7.83-58.37-64.7-55.26C193,117.95,125.76,110.41,136.92,176.24z
			"/>
		<path fill="#2390D1" stroke="#070F84" stroke-miterlimit="10" d="M141.19,172.03c0,0,17.14-2.79,40.74-4.49l-13.27-43.42
			C152.19,127.32,134.27,137.88,141.19,172.03z"/>
		<path fill="#2390D1" stroke="#070F84" stroke-miterlimit="10" d="M190.63,122.77l13.34,43.64c2.25-0.06,4.53-0.11,6.82-0.14
			l-13.33-43.61C195.19,122.68,192.75,122.73,190.63,122.77z"/>
		<path fill="#2390D1" stroke="#070F84" stroke-miterlimit="10" d="M209.63,123.24l13.16,43.06c9.62,0.16,19.35,0.71,28.72,1.81
			C251.51,168.11,259.58,129.33,209.63,123.24z"/>
		<path fill="#97CAE9" d="M186.77,122.78c-6.08-0.17-12.15,0.28-18.14,1.34l13.27,43.42c6.89-0.5,14.34-0.91,22.07-1.13
			l-13.34-43.64C189.19,122.79,187.83,122.8,186.77,122.78z"/>
		<path fill="#97CAE9" d="M204.83,122.77c-1.8-0.14-4.5-0.14-7.37-0.11l13.33,43.61c4,0,8,0,12,0l-13.16-43.06
			C208.09,123.05,206.49,122.89,204.83,122.77z"/>
		<line fill="none" stroke="#FFFFFF" stroke-miterlimit="10" x1="219.9" y1="168.13" x2="246.7" y2="152.28"/>
		<line fill="none" stroke="#FFFFFF" stroke-miterlimit="10" x1="150.56" y1="154.28" x2="176.89" y2="170.9"/>
		<polygon fill="#2375D3" points="238.77,62.42 290.03,62.42 297.07,120.72 246.8,120.72 		"/>
		<polygon fill="#85C0DD" points="239.94,60.46 291.2,60.46 298.25,118.77 247.98,118.77 		"/>
		<polygon fill="#F8FDFC" points="242.29,62.81 289.42,62.81 295.9,116.42 249.68,116.42 		"/>
		<polygon fill="#6BDDCD" points="276.9,66.02 254.59,66.02 253.3,57.51 275.6,57.51 		"/>
		<polygon fill="#6BDDCD" points="260.54,59.31 268.89,59.31 267.86,55.72 259.52,55.72 		"/>
		<path fill="#6BDDCD" d="M269.09,52.62c0-2.7-2.64-4.11-5.9-4.11c-3.26,0-6.12,1.8-6.12,4.5s2.85,4.5,6.12,4.5
			S269.09,55.32,269.09,52.62z"/>
		<ellipse fill="#FDFDFD" cx="263.19" cy="52.62" rx="3.39" ry="2.8"/>
		<line fill="none" stroke="#88BFD9" stroke-miterlimit="10" x1="248.37" y1="68.09" x2="283.85" y2="68.09"/>
		<line fill="none" stroke="#88BFD9" stroke-miterlimit="10" x1="249.37" y1="72.92" x2="284.85" y2="72.92"/>
		<line fill="none" stroke="#88BFD9" stroke-miterlimit="10" x1="249.37" y1="77.75" x2="284.85" y2="77.75"/>
		<line fill="none" stroke="#88BFD9" stroke-miterlimit="10" x1="250.37" y1="82.57" x2="285.85" y2="82.57"/>
		<line fill="none" stroke="#88BFD9" stroke-miterlimit="10" x1="251.37" y1="87.4" x2="286.85" y2="87.4"/>
		<line fill="none" stroke="#88BFD9" stroke-miterlimit="10" x1="252.37" y1="92.23" x2="287.85" y2="92.23"/>
		<line fill="none" stroke="#88BFD9" stroke-miterlimit="10" x1="253.37" y1="97.05" x2="288.85" y2="97.05"/>
		<line fill="none" stroke="#88BFD9" stroke-miterlimit="10" x1="254.37" y1="101.88" x2="289.85" y2="101.88"/>
		<line fill="none" stroke="#88BFD9" stroke-miterlimit="10" x1="255.37" y1="106.7" x2="290.85" y2="106.7"/>
		<line fill="none" stroke="#88BFD9" stroke-miterlimit="10" x1="256.37" y1="111.53" x2="291.85" y2="111.53"/>
		<path fill="#E88897" d="M305.54,78.64c-0.28,0-0.5-0.22-0.5-0.5v-9c0-0.28,0.22-0.5,0.5-0.5c0.27,0.01,0.49,0.23,0.5,0.5v9
			C306.04,78.42,305.81,78.64,305.54,78.64z"/>
		<path fill="#E88897" d="M310.02,74.16h-9c-0.28,0-0.5-0.22-0.5-0.5s0.22-0.5,0.5-0.5h9c0.27,0.01,0.49,0.23,0.5,0.5
			C310.52,73.94,310.29,74.16,310.02,74.16z"/>
		<path fill="#E88897" d="M235.4,85.11c-0.28,0-0.5-0.22-0.5-0.5v-6c0-0.28,0.22-0.5,0.5-0.5c0.27,0.01,0.49,0.23,0.5,0.5v6
			C235.9,84.89,235.67,85.11,235.4,85.11z"/>
		<path fill="#E88897" d="M238.4,82.11h-6c-0.28,0-0.5-0.22-0.5-0.5s0.22-0.5,0.5-0.5h6c0.27,0.01,0.49,0.23,0.5,0.5
			C238.9,81.89,238.67,82.11,238.4,82.11z"/>
		<path fill="#E88897" d="M314.5,89.84c-0.28,0-0.5-0.22-0.5-0.5v-4.48c0-0.28,0.22-0.5,0.5-0.5c0.27,0.01,0.49,0.23,0.5,0.5v4.48
			C315,89.62,314.77,89.84,314.5,89.84z"/>
		<path fill="#E88897" d="M316.74,87.6h-4.48c-0.28,0-0.5-0.22-0.5-0.5s0.22-0.5,0.5-0.5h4.48c0.27,0.01,0.49,0.23,0.5,0.5
			C317.24,87.38,317.01,87.6,316.74,87.6z"/>
		<path fill="#E88897" d="M230.9,95.11c-0.28,0-0.5-0.22-0.5-0.5v-3c0-0.28,0.22-0.5,0.5-0.5c0.27,0.01,0.49,0.23,0.5,0.5v3
			C231.4,94.89,231.17,95.11,230.9,95.11z"/>
		<path fill="#E88897" d="M232.4,93.61h-3c-0.28,0-0.5-0.22-0.5-0.5s0.22-0.5,0.5-0.5h3c0.27,0.01,0.49,0.23,0.5,0.5
			C232.9,93.39,232.67,93.61,232.4,93.61z"/>
		<path fill="#E88897" d="M306.28,104.03c-0.28,0-0.5-0.22-0.5-0.5v-4.48c0-0.28,0.22-0.5,0.5-0.5s0.5,0.22,0.5,0.5v4.48
			C306.78,103.81,306.55,104.03,306.28,104.03z"/>
		<path fill="#E88897" d="M308.52,101.79h-4.48c-0.28,0-0.5-0.22-0.5-0.5s0.22-0.5,0.5-0.5h4.48c0.28,0,0.5,0.22,0.5,0.5
			S308.79,101.79,308.52,101.79z"/>
		<path fill="#E88897" d="M237.9,101.11c-0.28,0-0.5-0.22-0.5-0.5v-3c0-0.28,0.22-0.5,0.5-0.5c0.27,0.01,0.49,0.23,0.5,0.5v3
			C238.4,100.89,238.17,101.11,237.9,101.11z"/>
		<path fill="#E88897" d="M239.4,99.61h-3c-0.28,0-0.5-0.22-0.5-0.5s0.22-0.5,0.5-0.5h3c0.27,0.01,0.49,0.23,0.5,0.5
			C239.9,99.39,239.67,99.61,239.4,99.61z"/>
		<circle fill="none" stroke="#EA8993" stroke-miterlimit="10" cx="136.9" cy="80.02" r="4.4"/>
		<polygon fill="none" stroke="#25227E" stroke-miterlimit="10" points="119.66,72.14 125.73,69.79 124.55,76.05 		"/>
		<polygon fill="#FFFFFF" points="103.72,71.33 110.11,68.17 109.44,75.13 		"/>
		<circle fill="none" stroke="#FFFFFF" stroke-miterlimit="10" cx="138.02" cy="93.12" r="2.35"/>
		<path fill="#0A117C" d="M102.71,238.57l-9.38-5.55c0,0-3.14,17.38-2.88,24.82c-0.02,1.19,0.72,2.27,1.84,2.68l1.33,0.41
			c1.43,0.35,2.89-0.43,3.4-1.8c1.12-2.51,3.12-7.59,6.57-17.79C103.97,240.33,103.6,239.18,102.71,238.57z"/>
		<path fill="none" stroke="#CADEEF" stroke-miterlimit="10" d="M171.28,179.02c0,0,37.95,23.57,17.12,27
			c-5.55,0.66-11.15,0.86-16.73,0.62"/>
		<path fill="none" stroke="#CADEEF" stroke-miterlimit="10" d="M214.19,176.95c0,0,35.89,23.58,16.19,27
			c-5.25,0.66-10.54,0.87-15.82,0.62"/>
		<path fill="none" stroke="#CADEEF" stroke-miterlimit="10" d="M253.25,176.95c0,0,34.23,20.7,15.44,23.71
			c-5.01,0.58-10.05,0.76-15.09,0.54"/>
		<path fill="none" stroke="#3591D8" stroke-width="7" stroke-miterlimit="10" d="M164.19,262.85c0,0,3.44-79.23-32.52-78.26
			l-56.3-17"/>
		<path fill="#3591D8" d="M115.19,248.49c-0.07-5.71,0.12-11.41,0.32-17.12c0.13-2.85,0.29-5.71,0.48-8.56s0.46-5.7,0.74-8.56
			s0.54-5.71,0.87-8.58c0.34-2.88,0.91-5.72,1.71-8.51c0.8-2.84,1.87-5.6,3.2-8.23c0.68-1.35,1.5-2.63,2.45-3.82
			c0.49-0.61,1.05-1.16,1.66-1.65c0.61-0.5,1.34-0.84,2.11-1c0.13-0.03,0.27,0.06,0.3,0.19c0,0.01,0,0.01,0,0.02
			c0.02,0.09-0.01,0.17-0.08,0.23l0,0c-0.94,0.95-1.63,2.12-2,3.4c-0.46,1.28-0.83,2.58-1.13,3.91c-0.64,2.67-1.12,5.4-1.63,8.14
			s-1,5.47-1.69,8.21s-1.28,5.5-1.78,8.28s-1,5.58-1.41,8.38s-0.89,5.6-1.29,8.42c-0.87,5.62-1.58,11.26-2.31,16.91
			c-0.02,0.14-0.14,0.24-0.28,0.22c0,0,0,0,0,0C115.28,248.76,115.18,248.64,115.19,248.49
			C115.19,248.49,115.19,248.49,115.19,248.49z"/>
		<path fill="#094EA9" stroke="#061483" stroke-miterlimit="10" d="M126.41,176.95c0,0-1.51-35.69,5.24-42.47l-30.46-5.19
			c0,0-15.78,19.83-17,36.91L126.41,176.95z"/>
		<path fill="#C5215D" d="M90.19,167.77l-4.6-2c0,0-26.75,17.26-33.2,28.18c0,0-7.24,6.65,4.1,19c0,0,12.53,18.59,29.06,28.57
			c0,0,8.44-0.43,7.92-10l-24.84-27.85c0,0-5.29-4.6,20.93-12l8-21.33L90.19,167.77z"/>
		<g>
			<defs>
				<path id="SVGID_3_" d="M90.19,167.77l-4.6-2c0,0-26.75,17.26-33.2,28.18c0,0-7.24,6.65,4.1,19c0,0,12.53,18.59,29.06,28.57
					c0,0,8.44-0.43,7.92-10l-24.84-27.85c0,0-5.29-4.6,20.93-12l8-21.33L90.19,167.77z"/>
			</defs>
			<clipPath id="SVGID_4_">
				<use xlink:href="#SVGID_3_"  overflow="visible"/>
			</clipPath>
			<g clip-path="url(#SVGID_4_)">
				<path fill="none" stroke="#5E0A12" stroke-miterlimit="10" d="M92.49,165.81c0,0-46.95,29.74-34.69,40.14l32.79,33.51"/>
			</g>
		</g>
		<path fill="#D4376F" d="M109.32,170.31l-0.33,5.87c-0.67,11.94-4.02,23.59-9.8,34.06c-8.18,14.81-20.15,37.06-27.24,52.81
			c0,0-3.52,2.74-10.56-3.33l28.56-91.95L109.32,170.31z"/>
		<g>
			<defs>
				<path id="SVGID_5_" d="M109.32,170.31l-0.33,5.87c-0.67,11.94-4.02,23.59-9.8,34.06c-8.18,14.81-20.15,37.06-27.24,52.81
					c0,0-3.52,2.74-10.56-3.33l28.56-91.95L109.32,170.31z"/>
			</defs>
			<clipPath id="SVGID_6_">
				<use xlink:href="#SVGID_5_"  overflow="visible"/>
			</clipPath>
			<g clip-path="url(#SVGID_6_)">
				<line fill="none" stroke="#5E0A12" stroke-miterlimit="10" x1="99.28" y1="165.81" x2="64.81" y2="262.57"/>
				<path fill="none" stroke="#5E0A12" stroke-miterlimit="10" d="M109.32,163.68L109.32,163.68c3.89,0,7.04,3.15,7.04,7.03v4.72
					c0,3.88-3.15,7.03-7.03,7.03h-0.01c-3.88,0-7.03-3.15-7.03-7.03v-4.72C102.29,166.83,105.43,163.68,109.32,163.68z"/>
			</g>
		</g>
		<path fill="#F2B4A7" d="M93.48,233.09l6.26,3.67c0,0,1.28,4.51-5.89,10.27c0,0-1.46-6.37-4-7L93.48,233.09z"/>
		<path fill="#F1B2A5" d="M73.8,142.62c0,0-25.17,8.48-21.39-4.43l16.17-32.48c0,0-0.39-13.57,11-7.44c0,0,5.35,2,2.35,6.92
			c0,0,9.65,4.43,3.91,5c-6.36-0.3-12.42,2.73-16,8c0,0-4.89,14.22-6.71,17.61l7.69-1.44C70.82,134.36,70.54,140.79,73.8,142.62z"/>
		<g>
			<defs>
				<path id="SVGID_7_" d="M73.8,142.62c0,0-25.17,8.48-21.39-4.43l16.17-32.48c0,0-0.39-13.57,11-7.44c0,0,5.35,2,2.35,6.92
					c0,0,9.65,4.43,3.91,5c-6.36-0.3-12.42,2.73-16,8c0,0-4.89,14.22-6.71,17.61l7.69-1.44C70.82,134.36,70.54,140.79,73.8,142.62z"
					/>
			</defs>
			<clipPath id="SVGID_8_">
				<use xlink:href="#SVGID_7_"  overflow="visible"/>
			</clipPath>
			<g clip-path="url(#SVGID_8_)">
				<path fill="#F78B87" d="M72.44,138.77c-0.97,0.73-2.07,1.27-3.25,1.58c-1.33,0.48-2.66,0.94-4,1.36c-2.6,0.86-5.28,1.48-8,1.85
					c-4.87,0.57-9.9,0-14.11-2.68c-1.64-1-3.15,1.56-1.52,2.59c4.78,3,10.58,3.73,16.1,3c2.99-0.39,5.94-1.06,8.81-2
					c2.71-0.87,5.93-1.62,8.09-3.57C76,139.61,73.87,137.49,72.44,138.77L72.44,138.77z"/>
				<path fill="#F78B87" d="M73.67,142.15c-0.2-0.65-0.35-1.32-0.46-2c0,0.26,0-0.14,0-0.2s0-0.29,0-0.44c0-0.35,0-0.7,0-1.05
					s0-0.64,0-1c0-0.17,0-0.34,0-0.52c0.05-0.48,0,0.29,0-0.19c0.11-0.68,0.27-1.35,0.48-2c0.21-0.8-0.26-1.61-1.05-1.84
					c-0.79-0.19-1.59,0.27-1.83,1.04c-0.89,2.93-0.89,6.07,0,9c0.18,0.81,0.98,1.32,1.79,1.14c0.81-0.18,1.32-0.98,1.14-1.79
					c-0.01-0.05-0.02-0.1-0.04-0.15L73.67,142.15z"/>
			</g>
		</g>
		<path fill="#F1B2A5" d="M138.24,154.23c0,0-13.83,16.3-18.13,18.91c0,0-2.87,17.61,1.82,17.61c0,0,6,2.48,5.09-13.83l3.13-4.36
			c0,0,18.39-13.24,19.56-17.16l-2.47-4.45C147.24,150.95,142.41,155.27,138.24,154.23z"/>
		<g>
			<defs>
				<path id="SVGID_9_" d="M138.24,154.23c0,0-13.83,16.3-18.13,18.91c0,0-2.87,17.61,1.82,17.61c0,0,6,2.48,5.09-13.83l3.13-4.36
					c0,0,18.39-13.24,19.56-17.16l-2.47-4.45C147.24,150.95,142.41,155.27,138.24,154.23z"/>
			</defs>
			<clipPath id="SVGID_10_">
				<use xlink:href="#SVGID_9_"  overflow="visible"/>
			</clipPath>
			<g clip-path="url(#SVGID_10_)">
				<path fill="#F78B87" d="M135.93,155.52c5.96,0.46,11.94-0.74,17.26-3.46c1.72-0.87,0.2-3.46-1.52-2.59
					c-4.86,2.43-10.3,3.47-15.72,3c-0.83,0.01-1.49,0.67-1.5,1.5c0.02,0.82,0.68,1.48,1.5,1.5L135.93,155.52z"/>
			</g>
		</g>
		<path fill="#FDFDFD" d="M96.72,121.05l29.65,2.08c2.59,0.18,4.96,1.56,6.39,3.73l15.07,22.77c0,0-1,4.7-11.21,5.09l-12.43-14.87
			l-15.22,32.61c0,0-18.78,3-23.87-6.51l6.26-29.61c0,0-8.87,6.61-17.09,7.82c0,0-4-4.31-3.39-12.27l19.13-9.5
			C92.08,121.35,94.4,120.89,96.72,121.05z"/>
		<g>
			<defs>
				<path id="SVGID_11_" d="M96.72,121.05l29.65,2.08c2.59,0.18,4.96,1.56,6.39,3.73l15.07,22.77c0,0-1,4.7-11.21,5.09l-12.43-14.87
					l-15.22,32.61c0,0-18.78,3-23.87-6.51l6.26-29.61c0,0-8.87,6.61-17.09,7.82c0,0-4-4.31-3.39-12.27l19.13-9.5
					C92.08,121.35,94.4,120.89,96.72,121.05z"/>
			</defs>
			<clipPath id="SVGID_12_">
				<use xlink:href="#SVGID_11_"  overflow="visible"/>
			</clipPath>
			<g clip-path="url(#SVGID_12_)">
				<path fill="#F1B7C9" d="M112.97,127.95c-3.83,0-6.93-3.1-6.93-6.93s3.1-6.93,6.93-6.93s6.93,3.1,6.93,6.93
					C119.89,124.85,116.79,127.95,112.97,127.95z M112.97,115.1c-3.28,0-5.93,2.65-5.93,5.93c0,3.28,2.65,5.93,5.93,5.93
					s5.93-2.65,5.93-5.93c0,0,0-0.01,0-0.01C118.89,117.75,116.24,115.1,112.97,115.1z"/>
				<path fill="#F1B7C9" d="M81.69,145.23c-2.18-2.92-3.29-6.54-4.16-10c-0.87-3.46-1.13-7.16,0.69-10.33
					c0.42-0.72,0.18-1.64-0.54-2.06c-0.72-0.42-1.64-0.18-2.06,0.54l0,0c-2.08,3.63-2.06,7.86-1.18,11.85
					c0.88,3.99,2.19,8.26,4.65,11.56c0.43,0.69,1.33,0.93,2.05,0.54c0.71-0.43,0.95-1.34,0.54-2.06V145.23z"/>
				<path fill="#F1B7C9" d="M131.87,153.51c9.69-1.24,16-9.1,20.38-17.17c0.92-1.7-1.66-3.21-2.59-1.52
					c-3.79,7-9.29,14.6-17.79,15.69c-0.82,0.02-1.48,0.68-1.5,1.5C130.37,152.74,131.06,153.62,131.87,153.51z"/>
				<path fill="#FBDEE9" d="M123.77,135.82c-2,4.1-4.09,8.17-6.26,12.22c-0.95,1.78-1.86,3.58-3.65,4.64
					c-2.35,1.37-5.3,1.17-7.45-0.5c-0.7-0.71-1.44-1.38-2.21-2c-1.35-0.96-3.22-0.65-4.18,0.7c-0.07,0.1-0.13,0.19-0.19,0.3
					c-0.73,1.58-0.52,4.12-0.13,5.77c0.2,0.82,0.54,1.59,1,2.3c0.6,0.7,1.1,1.47,1.49,2.3c0.54,1.67-2.24,3.34-3.35,4.18
					c-1.71,1.47-3.78,2.43-6,2.8c-1,0.1-2,1.24-1.29,2.26c0.87,1.12,2.12,1.88,3.51,2.16c1.71,0.49,3.44,0.91,5.19,1.25
					c3.21,0.62,6.83,1.22,9.78-0.6s3.63-5.6,4.73-8.57l3.92-10.53c0.51-1.48-1.49-2.55-2.49-1.55c-1.49,1.66-3.61,2.62-5.84,2.65
					c-2.09-0.06-3.47-1.86-5.25-2.73c-1.5-0.74-4.1-1.17-4.86,0.82c-0.93,2.46,2.76,3.18,4.39,3.17l-1.06-2.56l-1.44,1.76
					c-0.74,0.9-0.36,2.67,1.06,2.56c1-0.09,2-0.09,3,0l-1.3-2.26c-0.27,0.51-0.64,0.97-1.09,1.33c-0.58,0.6-0.56,1.56,0.03,2.14
					c0.28,0.27,0.64,0.42,1.03,0.42c1.62-0.08,3.22-0.38,4.76-0.88l-1.15-2.74l-4.43,2.64c-0.78,0.32-1.15,1.2-0.83,1.98
					c0.32,0.78,1.2,1.15,1.98,0.83l4.05-0.84l-1.15-2.74l-2.43,1.5c-1.38,0.85-0.49,3.37,1.16,2.74c2.08-0.79,4.13-1.68,6.12-2.68
					l-1.51-2.59l-3.83,2.11c-1.45,0.8-0.45,3.38,1.16,2.74l5-2l-1.46-2.5c-1.63,1.27-3.42,2.32-5.32,3.13l1.21,2.73
					c1.1-0.76,2.26-1.43,3.47-2l-1.51-2.59c-2.71,1.37-5.37,2.81-8,4.32c-1.7,1-0.21,3.4,1.52,2.59l1.93-0.9l-1.81-2.35
					c-1.85,1.49-3.86,2.77-6,3.82c-1.73,0.87-0.21,3.41,1.52,2.59l5.59-2.65l-1.82-2.35c-1.06,1.29-2.26,2.46-3.57,3.49
					c-0.58,0.6-0.57,1.57,0.04,2.15c0.08,0.08,0.18,0.15,0.27,0.21c0.77,0.45,1.61,0.77,2.49,0.95l-0.36-2.74
					c-1.23,0.68-2.6,1.05-4,1.07l0.4,2.94c2.21-0.34,4.4-0.81,6.55-1.41l-1.9-1.87c-0.25,0.93-0.41,1.89-0.46,2.86
					c0.02,0.84,0.71,1.51,1.55,1.49c0.12,0,0.23-0.02,0.35-0.05c4.12-0.56,6.23-4.44,7.34-8c0.52-1.65-1.86-2.57-2.74-1.15
					c-0.91,1.48-1.63,3.08-2.14,4.75c-0.2,0.81,0.3,1.63,1.11,1.83c0.5,0.12,1.02-0.02,1.39-0.37c1.96-2.2,3.64-4.63,5-7.24
					c0.41-0.73,0.15-1.66-0.59-2.07c-0.1-0.06-0.2-0.1-0.31-0.13c-3.13-1.13-6.55,2.31-8.32,4.51c-0.57,0.61-0.54,1.56,0.07,2.13
					c0.37,0.35,0.9,0.49,1.39,0.37c2.04-0.54,3.52-2.29,3.71-4.39c0.18-1.4-1.7-1.83-2.56-1.06c-2.11,1.87-3.79,4.17-4.93,6.75
					c-0.48,1.12,0.33,2.63,1.7,2.21c1.91-0.53,3.34-2.12,3.69-4.07c0.21-0.81-0.28-1.63-1.09-1.83c-0.51-0.13-1.04,0.01-1.42,0.37
					c-1.21,1.05-2.01,2.5-2.24,4.09c-0.19,0.82,0.33,1.64,1.15,1.83c0.36,0.08,0.73,0.03,1.06-0.14c1.53-0.7,2.71-2,3.26-3.59
					c0.69-1.8-2.21-2.58-2.9-0.8c-0.35,0.84-1.03,1.49-1.88,1.8l2.2,1.69c0.12-1.09,0.66-2.09,1.51-2.79l-2.51-1.46
					c-0.06,0.94-0.7,1.74-1.6,2l1.69,2.21c1.02-2.35,2.54-4.45,4.46-6.15l-2.56-1.06c-0.15,0.76-0.75,1.36-1.51,1.5l1.46,2.51
					c0.73-0.94,1.56-1.8,2.48-2.55c0.77-0.6,1.91-1.6,2.93-1.23l-0.9-2.2c-1.24,2.39-2.77,4.62-4.56,6.63l2.51,1.46
					c0.44-1.41,1.06-2.75,1.84-4l-2.74-1.16c-0.83,2.67-2.17,5.51-5.25,5.93l1.9,1.45c0.05-0.7,0.16-1.39,0.35-2.06
					c0.2-0.81-0.3-1.63-1.11-1.82c-0.24-0.06-0.49-0.06-0.73,0c-2.16,0.6-4.35,1.07-6.56,1.41c-1.69,0.26-1.26,3,0.4,3
					c1.94-0.03,3.84-0.54,5.53-1.48c0.71-0.43,0.94-1.36,0.51-2.07c-0.2-0.32-0.5-0.56-0.87-0.67c-0.62-0.12-1.22-0.34-1.77-0.65
					l0.3,2.35c1.32-1.06,2.53-2.25,3.6-3.56c0.55-0.63,0.48-1.58-0.14-2.13c-0.47-0.41-1.14-0.49-1.7-0.2l-5.6,2.65l1.52,2.59
					c2.35-1.18,4.55-2.62,6.58-4.29c1.4-1.16-0.39-3-1.82-2.36l-1.94,0.9l1.52,2.59c2.63-1.51,5.29-2.95,8-4.32
					c1.74-0.88,0.22-3.4-1.51-2.59c-1.21,0.57-2.38,1.24-3.48,2c-1.28,0.9-0.52,3.45,1.16,2.74c2.39-1,4.63-2.32,6.67-3.91
					c1.17-0.91-0.1-3.05-1.46-2.51l-5,2l1.16,2.74l3.82-2.11c1.7-0.94,0.2-3.45-1.51-2.59s-3.57,1.67-5.41,2.38l1.14,2.73l2.42-1.5
					c0.71-0.42,0.95-1.34,0.53-2.06c-0.34-0.58-1.03-0.86-1.68-0.68l-4,0.84l1.08,2.76l4.43-2.64c1.43-0.85,0.5-3.28-1.15-2.74
					c-1.29,0.43-2.64,0.69-4,0.77l1.06,2.56c0.65-0.54,1.19-1.2,1.59-1.95c0.41-0.73,0.15-1.66-0.59-2.07
					c-0.21-0.12-0.45-0.18-0.69-0.19c-1-0.09-2-0.09-3,0l1.06,2.56l1.44-1.76c0.56-0.62,0.52-1.58-0.1-2.15
					c-0.27-0.24-0.61-0.38-0.97-0.39c-0.39,0.02-0.77-0.02-1.15-0.11l-0.37-0.11c-0.48-0.26-0.5-0.19,0,0.23l-0.15,1.15
					c-0.19,0.37,0.13,0.24,0.43,0.34c0.29,0.11,0.57,0.25,0.83,0.42c0.6,0.36,1.15,0.79,1.71,1.19c1.18,0.9,2.59,1.46,4.07,1.61
					c3.17,0.11,6.22-1.17,8.36-3.51l-2.56-1.51l-3.15,8.47l-1.54,4.12c-0.35,1.41-0.93,2.76-1.7,4c-1.74,2.14-5.08,1.64-7.44,1.22
					c-1.45-0.25-2.89-0.56-4.31-0.93c-0.68-0.17-1.35-0.35-2-0.55c-0.46-0.14-1.23-0.24-1.53-0.67l-1.3,2.26
					c4.07-0.41,7.55-2.86,10.46-5.6c1.34-1.26,2.35-2.95,1.9-4.85s-2.14-3.06-2.57-4.9c-0.18-0.95-0.21-1.93-0.11-2.89
					c-0.03-0.25-0.03-0.51,0-0.76c-0.13,0.15-0.27-0.05,0,0.12c0.44,0.33,0.84,0.71,1.19,1.13c3.77,3.75,9.87,3.74,13.62-0.03
					c0.59-0.59,1.09-1.25,1.51-1.97c1.42-2.22,2.55-4.68,3.76-7s2.53-5,3.76-7.45c0.85-1.72-1.74-3.24-2.59-1.51L123.77,135.82z"/>
				<path fill="#FBDEE9" d="M71.52,142.48c4.83,0.83,9.79,0.3,14.34-1.53c4.16-1.81,7.74-4.74,10.33-8.47l-2.79-0.76
					c0.13,1.57-0.72,2.89-1.41,4.24s-1.35,2.72-2,4.1c-1.29,2.82-2.46,5.69-3.52,8.6c-0.67,1.81,2.23,2.6,2.89,0.79
					c1.12-3.07,2.37-6.1,3.76-9.06c0.68-1.42,1.41-2.82,2.12-4.24c0.79-1.34,1.18-2.88,1.14-4.43c-0.03-0.84-0.74-1.49-1.58-1.46
					c-0.5,0.02-0.95,0.28-1.22,0.7c-2.26,3.18-5.36,5.68-8.94,7.22c-3.91,1.59-8.18,2.08-12.35,1.41c-0.78-0.2-1.58,0.24-1.84,1
					c-0.22,0.79,0.22,1.6,1,1.85L71.52,142.48z"/>
				<path fill="#FBDEE9" d="M92.12,135.53c-2.38,2.25-4.57,4.7-6.53,7.32c-0.38,0.7-0.14,1.58,0.54,2c0.71,0.36,1.57,0.13,2-0.54
					l0.2-0.25c0,0,0.18-0.24,0.07-0.11s0.13-0.16,0.13-0.15l0.15-0.21l0.74-0.9c0.49-0.6,1-1.19,1.52-1.77
					c1-1.15,2.12-2.26,3.25-3.32c0.58-0.59,0.58-1.53,0-2.12c-0.59-0.56-1.53-0.56-2.12,0L92.12,135.53z"/>
				<path fill="#FBDEE9" d="M91.31,135.2c-2.38,1.82-4.62,3.83-6.69,6c-0.57,0.59-0.57,1.53,0,2.12c0.59,0.56,1.53,0.56,2.12,0
					c1-1,2-2,3-3c0.51-0.46,1.03-0.91,1.56-1.35l0.82-0.67c0.13-0.12,0.27-0.23,0.41-0.34l0.19-0.14c0.31-0.25-0.25,0.19,0.07-0.06
					c0.33-0.21,0.57-0.52,0.69-0.89c0.1-0.39,0.04-0.81-0.16-1.16c-0.42-0.68-1.3-0.92-2-0.54L91.31,135.2z"/>
				<path fill="#FDFDFD" d="M96.86,126.64c-3.58,8.14-6.13,16.69-7.61,25.46c-0.31,1.89,2.58,2.7,2.89,0.8
					c1.41-8.52,3.86-16.83,7.31-24.75C100.21,126.4,97.63,124.87,96.86,126.64z"/>
				<path fill="#FDFDFD" d="M118.57,145.63c3.23-5.24,7.19-10.28,12.83-13.05c0.73-0.42,0.98-1.34,0.56-2.07
					c-0.42-0.73-1.34-0.98-2.07-0.56c-6.08,3-10.43,8.47-13.91,14.13c-1,1.65,1.57,3.15,2.59,1.51L118.57,145.63z"/>
			</g>
		</g>
		<path fill="#F78B87" d="M110.12,111.16h6.38l0,0v10.32c0,1.3-1.05,2.35-2.35,2.35l0,0h-1.69c-1.3,0-2.35-1.05-2.35-2.35
			c0,0,0,0,0,0v-10.32H110.12z"/>
		<path fill="#F6B5A5" d="M108.6,114.03c0,0-6.11-2.38-3.13-13.7c0,0,1.17-4.93,0.7-7.22h2.22c1.65,0.03,3.21,0.75,4.29,2l7.21,8
			c0,0,5.88-0.55,0.59,5.2l-3.8,3.84C116.68,112.15,115.58,114.48,108.6,114.03z"/>
		<path fill="#26237F" d="M116.98,116.19c0,0,22.18-6.23,12-23.53c0,0-4.27-5.9-11.51-3.61c0,0-8.77-14.33-13.26,0.93
			c0,0-2,4.38,5.3,7.49c1.86,0.82,3.44,2.16,4.56,3.85l3.29,4.87c0.52,0.78,0.59,1.78,0.18,2.62l-1.78,3.63L116.98,116.19z"/>
	</g>
</g>
</svg>
